<?xml version="1.0" encoding="UTF-8" standalone="no"?>
<!-- Created with Inkscape (http://www.inkscape.org/) -->

<svg
   xmlns:dc="http://purl.org/dc/elements/1.1/"
   xmlns:cc="http://creativecommons.org/ns#"
   xmlns:rdf="http://www.w3.org/1999/02/22-rdf-syntax-ns#"
   xmlns:svg="http://www.w3.org/2000/svg"
   xmlns="http://www.w3.org/2000/svg"
   xmlns:sodipodi="http://sodipodi.sourceforge.net/DTD/sodipodi-0.dtd"
   xmlns:inkscape="http://www.inkscape.org/namespaces/inkscape"
   width="28.222221mm"
   height="28.222221mm"
   viewBox="0 0 99.999997 99.999997"
   id="svg2"
   version="1.1"
   inkscape:version="0.91 r13725"
   sodipodi:docname="weather-icon-font_logo.svg">
  <defs
     id="defs4" />
  <sodipodi:namedview
     id="base"
     pagecolor="#ffffff"
     bordercolor="#666666"
     borderopacity="1.0"
     inkscape:pageopacity="0.0"
     inkscape:pageshadow="2"
     inkscape:zoom="2.8"
     inkscape:cx="43.882066"
     inkscape:cy="43.175796"
     inkscape:document-units="px"
     inkscape:current-layer="layer1"
     showgrid="true"
     fit-margin-top="0"
     fit-margin-left="0"
     fit-margin-right="0"
     fit-margin-bottom="0"
     inkscape:window-width="1366"
     inkscape:window-height="719"
     inkscape:window-x="0"
     inkscape:window-y="25"
     inkscape:window-maximized="1">
    <inkscape:grid
       type="xygrid"
       id="grid4136"
       originx="-140"
       originy="-889.78325" />
  </sodipodi:namedview>
  <metadata
     id="metadata7">
    <rdf:RDF>
      <cc:Work
         rdf:about="">
        <dc:format>image/svg+xml</dc:format>
        <dc:type
           rdf:resource="http://purl.org/dc/dcmitype/StillImage" />
        <dc:title></dc:title>
      </cc:Work>
    </rdf:RDF>
  </metadata>
  <g
     inkscape:label="Layer 1"
     inkscape:groupmode="layer"
     id="layer1"
     transform="translate(-140,-62.57893)">
    <g
       id="g4215"
       inkscape:export-xdpi="230.39999"
       inkscape:export-ydpi="230.39999">
      <rect
         y="62.57893"
         x="140"
         height="100"
         width="100"
         id="rect4185"
         style="opacity:1;fill:none;fill-opacity:1;fill-rule:evenodd;stroke:none;stroke-width:4.19999981;stroke-linecap:butt;stroke-linejoin:round;stroke-miterlimit:4;stroke-dasharray:none;stroke-dashoffset:0;stroke-opacity:1" />
      <g
         transform="matrix(1.1380934,0,0,1.1380934,81.760192,-16.502147)"
         id="g4187">
        <g
           id="g4189"
           transform="matrix(0.75,0,0,0.75,-225.25,-396.23493)">
          <path
             sodipodi:type="arc"
             style="fill:#ffa111;fill-opacity:1;fill-rule:nonzero;stroke:none"
             id="path4191"
             sodipodi:cx="435"
             sodipodi:cy="657.36218"
             sodipodi:rx="25"
             sodipodi:ry="25"
             d="m 459.99541,657.84097 a 25,25 0 0 1 -25.42246,24.51756 25,25 0 0 1 -24.57013,-25.37166 25,25 0 0 1 25.32075,-24.62259 25,25 0 0 1 24.67495,25.26973"
             sodipodi:start="0.01915258"
             sodipodi:end="0.010873193"
             sodipodi:open="true"
             transform="translate(-9.4964918e-6,0.25)" />
          <path
             sodipodi:type="arc"
             style="fill:none;stroke:#ffc111;stroke-width:8;stroke-linecap:round;stroke-miterlimit:4;stroke-dasharray:none;stroke-opacity:1"
             id="path4193"
             sodipodi:cx="437.5"
             sodipodi:cy="654.86218"
             sodipodi:rx="32.5"
             sodipodi:ry="32.5"
             d="m 469.99404,655.4846 a 32.5,32.5 0 0 1 -33.0492,31.87284 32.5,32.5 0 0 1 -31.94118,-32.98316 32.5,32.5 0 0 1 32.91698,-32.00938 32.5,32.5 0 0 1 32.07744,32.85065"
             sodipodi:start="0.01915258"
             sodipodi:end="0.010873193"
             sodipodi:open="true"
             transform="translate(-2.5,2.75)" />
        </g>
        <path
           style="fill:#dddddd;fill-opacity:1;stroke:#888888;stroke-width:1;stroke-linecap:butt;stroke-linejoin:miter;stroke-miterlimit:4;stroke-dasharray:none;stroke-opacity:1"
           d="m 107.5086,101.45927 c 3.5623,1.2564 6.0289,4.6516 6.0289,8.52551 0,4.9862 -4.0563,9.0432 -9.0425,9.0432 -0.1505,0 -0.3098,-0.01 -0.4852,-0.014 l -29.6192,0 c -6.6463,0 -12.0531,-5.4067 -12.0531,-12.05311 0,-3.0406 1.136,-5.9449 3.1994,-8.176599 1.8137,-1.9616 4.1997,-3.2524 6.8026,-3.6992 2.4792,-7.2428 9.3721,-12.2189 17.1039,-12.2189 9.9654,0 18.073,8.1081 18.073,18.074199 0,0.1723 0,0.3456 -0.01,0.5191 z"
           id="path4195"
           inkscape:connector-curvature="0"
           sodipodi:nodetypes="csscssccsscc" />
        <g
           style="fill:#aaaaaa;fill-opacity:1;stroke:none"
           id="g4197"
           transform="matrix(0.08560941,-0.02293897,0.02293897,0.08560941,60.2382,107.77634)">
          <g
             style="fill:#aaaaaa;fill-opacity:1;stroke:none"
             id="g4199">
            <path
               id="path4201"
               d="m 90.7031,185.4844 18.9844,0 0,28.4062 25.0313,-14.3437 0,18.7031 -25.0313,14.3438 0,36.7031 32.9063,-18.5625 -1.125,-27.2813 16.0312,-9.5625 1.125,27.4219 23.9062,-14.0625 9.2813,16.0312 -24.75,14.2032 25.0313,14.625 -16.7344,9.8437 -25.0313,-14.7656 -31.3593,18.4219 31.3593,18.4218 25.0313,-14.625 16.7344,9.8438 -25.0313,14.625 24.75,14.0625 -9.2813,16.1719 -23.9062,-13.7813 -1.125,27 -16.0312,-9.4219 1.125,-27.4218 -32.9063,-18.4219 0,36.5625 25.0313,14.4844 0,18.7031 -25.0313,-14.4844 0,28.5469 -18.9844,0 0,-28.5469 -25.0312,14.4844 0,-18.7031 25.0312,-14.4844 0,-36.5625 -32.4843,18.4219 1.125,27.4218 -16.4532,9.4219 -1.125,-27 -23.625,13.7813 L 8.8594,327.9375 33.4688,313.875 8.2969,299.25 l 16.7343,-9.8438 25.0313,14.625 31.5,-18.4218 -31.5,-18.4219 -25.0313,14.7656 -16.7343,-9.8437 25.1719,-14.625 -24.6094,-14.2032 9,-16.0312 23.9062,14.0625 1.125,-27.4219 16.4532,9.5625 -1.125,27.2813 32.4843,18.5625 0,-36.7031 -25.0312,-14.3438 0,-18.7031 25.0312,14.3437 0,-28.4062 z"
               inkscape:connector-curvature="0"
               style="fill:#aaaaaa;fill-opacity:1;stroke:none" />
          </g>
        </g>
        <g
           transform="matrix(0.08560941,0.02293897,-0.02293897,0.08560941,86.8154,121.68758)"
           id="g4203"
           style="fill:#aaaaaa;fill-opacity:1;stroke:none">
          <g
             id="g4205"
             style="fill:#aaaaaa;fill-opacity:1;stroke:none">
            <path
               style="fill:#aaaaaa;fill-opacity:1;stroke:none"
               inkscape:connector-curvature="0"
               d="m 90.7031,185.4844 18.9844,0 0,28.4062 25.0313,-14.3437 0,18.7031 -25.0313,14.3438 0,36.7031 32.9063,-18.5625 -1.125,-27.2813 16.0312,-9.5625 1.125,27.4219 23.9062,-14.0625 9.2813,16.0312 -24.75,14.2032 25.0313,14.625 -16.7344,9.8437 -25.0313,-14.7656 -31.3593,18.4219 31.3593,18.4218 25.0313,-14.625 16.7344,9.8438 -25.0313,14.625 24.75,14.0625 -9.2813,16.1719 -23.9062,-13.7813 -1.125,27 -16.0312,-9.4219 1.125,-27.4218 -32.9063,-18.4219 0,36.5625 25.0313,14.4844 0,18.7031 -25.0313,-14.4844 0,28.5469 -18.9844,0 0,-28.5469 -25.0312,14.4844 0,-18.7031 25.0312,-14.4844 0,-36.5625 -32.4843,18.4219 1.125,27.4218 -16.4532,9.4219 -1.125,-27 -23.625,13.7813 L 8.8594,327.9375 33.4688,313.875 8.2969,299.25 l 16.7343,-9.8438 25.0313,14.625 31.5,-18.4218 -31.5,-18.4219 -25.0313,14.7656 -16.7343,-9.8437 25.1719,-14.625 -24.6094,-14.2032 9,-16.0312 23.9062,14.0625 1.125,-27.4219 16.4532,9.5625 -1.125,27.2813 32.4843,18.5625 0,-36.7031 -25.0312,-14.3438 0,-18.7031 25.0312,14.3437 0,-28.4062 z"
               id="path4207" />
          </g>
        </g>
        <g
           transform="matrix(0.04532324,-0.02616739,0.02616739,0.04532324,85.8605,124.90495)"
           id="g4209"
           style="fill:#aaaaaa;fill-opacity:1;stroke:none">
          <g
             id="g4211"
             style="fill:#aaaaaa;fill-opacity:1;stroke:none">
            <path
               style="fill:#aaaaaa;fill-opacity:1;stroke:none"
               inkscape:connector-curvature="0"
               d="m 90.7031,185.4844 18.9844,0 0,28.4062 25.0313,-14.3437 0,18.7031 -25.0313,14.3438 0,36.7031 32.9063,-18.5625 -1.125,-27.2813 16.0312,-9.5625 1.125,27.4219 23.9062,-14.0625 9.2813,16.0312 -24.75,14.2032 25.0313,14.625 -16.7344,9.8437 -25.0313,-14.7656 -31.3593,18.4219 31.3593,18.4218 25.0313,-14.625 16.7344,9.8438 -25.0313,14.625 24.75,14.0625 -9.2813,16.1719 -23.9062,-13.7813 -1.125,27 -16.0312,-9.4219 1.125,-27.4218 -32.9063,-18.4219 0,36.5625 25.0313,14.4844 0,18.7031 -25.0313,-14.4844 0,28.5469 -18.9844,0 0,-28.5469 -25.0312,14.4844 0,-18.7031 25.0312,-14.4844 0,-36.5625 -32.4843,18.4219 1.125,27.4218 -16.4532,9.4219 -1.125,-27 -23.625,13.7813 L 8.8594,327.9375 33.4688,313.875 8.2969,299.25 l 16.7343,-9.8438 25.0313,14.625 31.5,-18.4218 -31.5,-18.4219 -25.0313,14.7656 -16.7343,-9.8437 25.1719,-14.625 -24.6094,-14.2032 9,-16.0312 23.9062,14.0625 1.125,-27.4219 16.4532,9.5625 -1.125,27.2813 32.4843,18.5625 0,-36.7031 -25.0312,-14.3438 0,-18.7031 25.0312,14.3437 0,-28.4062 z"
               id="path4213" />
          </g>
        </g>
      </g>
    </g>
  </g>
</svg>
