<?xml version="1.0" encoding="UTF-8" standalone="no"?>
<!-- Generator: Adobe Illustrator 16.0.0, SVG Export Plug-In . SVG Version: 6.00 Build 0)  -->

<svg
   xmlns:dc="http://purl.org/dc/elements/1.1/"
   xmlns:cc="http://creativecommons.org/ns#"
   xmlns:rdf="http://www.w3.org/1999/02/22-rdf-syntax-ns#"
   xmlns:svg="http://www.w3.org/2000/svg"
   xmlns="http://www.w3.org/2000/svg"
   xmlns:sodipodi="http://sodipodi.sourceforge.net/DTD/sodipodi-0.dtd"
   xmlns:inkscape="http://www.inkscape.org/namespaces/inkscape"
   version="1.1"
   id="Layer_1"
   x="0px"
   y="0px"
   width="100px"
   height="100px"
   viewBox="0 0 100 100"
   enable-background="new 0 0 100 100"
   xml:space="preserve"
   inkscape:version="0.91 r13725"
   sodipodi:docname="c-as-xxx-s.svg"><metadata
     id="metadata53"><rdf:RDF><cc:Work
         rdf:about=""><dc:format>image/svg+xml</dc:format><dc:type
           rdf:resource="http://purl.org/dc/dcmitype/StillImage" /></cc:Work></rdf:RDF></metadata><defs
     id="defs51" /><sodipodi:namedview
     pagecolor="#ffffff"
     bordercolor="#666666"
     borderopacity="1"
     objecttolerance="10"
     gridtolerance="10"
     guidetolerance="10"
     inkscape:pageopacity="0"
     inkscape:pageshadow="2"
     inkscape:window-width="1366"
     inkscape:window-height="719"
     id="namedview49"
     showgrid="true"
     inkscape:zoom="2.8284271"
     inkscape:cx="17.78836"
     inkscape:cy="38.62707"
     inkscape:window-x="0"
     inkscape:window-y="25"
     inkscape:window-maximized="1"
     inkscape:current-layer="Layer_1"><inkscape:grid
       type="xygrid"
       id="grid4181" /></sodipodi:namedview><path
     style="fill:#aaaaaa;fill-opacity:1;stroke:none"
     d="M 41.908203 53.671875 L 41.908203 56.189453 L 39.689453 54.917969 L 39.689453 56.576172 L 41.908203 57.847656 L 41.908203 61.099609 L 39.029297 59.455078 L 39.128906 57.037109 L 37.671875 56.189453 L 37.572266 58.619141 L 35.453125 57.373047 L 34.654297 58.794922 L 36.835938 60.052734 L 34.605469 61.349609 L 36.087891 62.222656 L 38.306641 60.914062 L 41.097656 62.546875 L 38.306641 64.177734 L 36.087891 62.882812 L 34.605469 63.755859 L 36.835938 65.050781 L 34.654297 66.296875 L 35.476562 67.730469 L 37.572266 66.509766 L 37.671875 68.902344 L 39.128906 68.066406 L 39.029297 65.636719 L 41.908203 64.003906 L 41.908203 67.244141 L 39.689453 68.529297 L 39.689453 70.185547 L 41.908203 68.902344 L 41.908203 71.431641 L 43.591797 71.431641 L 43.591797 68.902344 L 45.810547 70.185547 L 45.810547 68.529297 L 43.591797 67.244141 L 43.591797 64.003906 L 46.507812 65.636719 L 46.408203 68.066406 L 47.828125 68.902344 L 47.927734 66.509766 L 50.046875 67.730469 L 50.869141 66.296875 L 48.675781 65.050781 L 50.894531 63.755859 L 49.412109 62.882812 L 47.193359 64.177734 L 44.414062 62.546875 L 47.193359 60.914062 L 49.412109 62.222656 L 50.894531 61.349609 L 48.675781 60.052734 L 50.869141 58.794922 L 50.046875 57.373047 L 47.927734 58.619141 L 47.828125 56.189453 L 46.408203 57.037109 L 46.507812 59.455078 L 43.591797 61.099609 L 43.591797 57.847656 L 45.810547 56.576172 L 45.810547 54.917969 L 43.591797 56.189453 L 43.591797 53.671875 L 41.908203 53.671875 z M 75.908203 61.671875 L 75.908203 64.189453 L 73.689453 62.917969 L 73.689453 64.576172 L 75.908203 65.847656 L 75.908203 69.099609 L 73.029297 67.455078 L 73.128906 65.037109 L 71.671875 64.189453 L 71.572266 66.619141 L 69.453125 65.373047 L 68.654297 66.794922 L 70.835938 68.052734 L 68.605469 69.349609 L 70.087891 70.222656 L 72.306641 68.914062 L 75.097656 70.546875 L 72.306641 72.177734 L 70.087891 70.882812 L 68.605469 71.755859 L 70.835938 73.050781 L 68.654297 74.296875 L 69.476562 75.730469 L 71.572266 74.509766 L 71.671875 76.902344 L 73.128906 76.066406 L 73.029297 73.636719 L 75.908203 72.003906 L 75.908203 75.244141 L 73.689453 76.529297 L 73.689453 78.185547 L 75.908203 76.902344 L 75.908203 79.431641 L 77.591797 79.431641 L 77.591797 76.902344 L 79.810547 78.185547 L 79.810547 76.529297 L 77.591797 75.244141 L 77.591797 72.003906 L 80.507812 73.636719 L 80.408203 76.066406 L 81.828125 76.902344 L 81.927734 74.509766 L 84.046875 75.730469 L 84.869141 74.296875 L 82.675781 73.050781 L 84.894531 71.755859 L 83.412109 70.882812 L 81.193359 72.177734 L 78.414062 70.546875 L 81.193359 68.914062 L 83.412109 70.222656 L 84.894531 69.349609 L 82.675781 68.052734 L 84.869141 66.794922 L 84.046875 65.373047 L 81.927734 66.619141 L 81.828125 64.189453 L 80.408203 65.037109 L 80.507812 67.455078 L 77.591797 69.099609 L 77.591797 65.847656 L 79.810547 64.576172 L 79.810547 62.917969 L 77.591797 64.189453 L 77.591797 61.671875 L 75.908203 61.671875 z M 20.755859 64.462891 L 19.130859 64.898438 L 19.783203 67.330078 L 17.310547 66.675781 L 17.740234 68.277344 L 20.210938 68.931641 L 21.052734 72.072266 L 17.847656 71.228516 L 17.316406 68.867188 L 15.689453 68.425781 L 16.222656 70.798828 L 13.853516 70.144531 L 13.451172 71.722656 L 15.882812 72.375 L 14.0625 74.203125 L 15.722656 74.662109 L 17.525391 72.824219 L 20.644531 73.679688 L 18.371094 75.978516 L 15.892578 75.300781 L 14.685547 76.527344 L 17.175781 77.201172 L 15.392578 78.970703 L 16.558594 80.142578 L 18.263672 78.419922 L 18.980469 80.705078 L 20.171875 79.521484 L 19.447266 77.199219 L 21.804688 74.876953 L 22.644531 78.007812 L 20.833984 79.822266 L 21.261719 81.423828 L 23.072266 79.609375 L 23.728516 82.052734 L 25.353516 81.617188 L 24.697266 79.173828 L 27.173828 79.839844 L 26.744141 78.238281 L 24.269531 77.572266 L 23.429688 74.441406 L 26.669922 75.263672 L 27.203125 77.638672 L 28.791016 78.076172 L 28.267578 75.740234 L 30.630859 76.371094 L 31.054688 74.773438 L 28.613281 74.136719 L 30.419922 72.310547 L 28.761719 71.851562 L 26.955078 73.677734 L 23.847656 72.820312 L 26.109375 70.525391 L 28.591797 71.214844 L 29.798828 69.988281 L 27.320312 69.310547 L 29.113281 67.525391 L 27.951172 66.367188 L 26.226562 68.119141 L 25.501953 65.796875 L 24.347656 66.984375 L 25.070312 69.292969 L 22.679688 71.636719 L 21.837891 68.496094 L 23.650391 66.693359 L 23.222656 65.091797 L 21.408203 66.894531 L 20.755859 64.462891 z M 57.873047 67.359375 L 56.912109 67.615234 L 57.296875 69.050781 L 55.837891 68.666016 L 56.091797 69.611328 L 57.550781 69.998047 L 58.048828 71.853516 L 56.154297 71.353516 L 55.841797 69.958984 L 54.880859 69.699219 L 55.195312 71.101562 L 53.796875 70.712891 L 53.558594 71.646484 L 54.994141 72.03125 L 53.919922 73.111328 L 54.900391 73.382812 L 55.964844 72.296875 L 57.806641 72.800781 L 56.464844 74.158203 L 55 73.757812 L 54.289062 74.482422 L 55.757812 74.880859 L 54.705078 75.925781 L 55.392578 76.617188 L 56.400391 75.601562 L 56.824219 76.951172 L 57.527344 76.251953 L 57.099609 74.880859 L 58.492188 73.509766 L 58.986328 75.357422 L 57.917969 76.427734 L 58.171875 77.373047 L 59.240234 76.302734 L 59.626953 77.746094 L 60.587891 77.488281 L 60.201172 76.044922 L 61.662109 76.439453 L 61.408203 75.494141 L 59.947266 75.099609 L 59.451172 73.251953 L 61.365234 73.738281 L 61.679688 75.138672 L 62.617188 75.398438 L 62.308594 74.017578 L 63.703125 74.390625 L 63.953125 73.447266 L 62.511719 73.072266 L 63.580078 71.994141 L 62.599609 71.722656 L 61.533203 72.800781 L 59.697266 72.294922 L 61.033203 70.9375 L 62.5 71.345703 L 63.210938 70.621094 L 61.748047 70.220703 L 62.806641 69.167969 L 62.121094 68.482422 L 61.103516 69.517578 L 60.673828 68.146484 L 59.994141 68.847656 L 60.419922 70.210938 L 59.007812 71.595703 L 58.509766 69.740234 L 59.582031 68.675781 L 59.328125 67.730469 L 58.257812 68.794922 L 57.873047 67.359375 z M 43.552734 74.451172 L 42.794922 75.757812 L 42.050781 74.46875 L 41.189453 74.966797 L 41.933594 76.253906 L 40.423828 76.257812 L 40.912109 77.105469 L 42.423828 77.101562 L 43.382812 78.765625 L 41.425781 78.773438 L 40.761719 77.507812 L 39.765625 77.505859 L 40.433594 78.777344 L 38.982422 78.765625 L 38.992188 79.726562 L 40.480469 79.726562 L 39.722656 81.048828 L 40.738281 81.056641 L 41.486328 79.732422 L 43.396484 79.744141 L 42.451172 81.402344 L 40.933594 81.394531 L 40.431641 82.279297 L 41.955078 82.283203 L 41.208984 83.564453 L 42.052734 84.054688 L 42.761719 82.8125 L 43.519531 84.005859 L 44.019531 83.148438 L 43.25 81.935547 L 44.240234 80.25 L 45.197266 81.908203 L 44.441406 83.21875 L 44.931641 84.066406 L 45.6875 82.755859 L 46.433594 84.048828 L 47.294922 83.552734 L 46.546875 82.257812 L 48.060547 82.259766 L 47.572266 81.412109 L 46.058594 81.410156 L 45.101562 79.753906 L 47.074219 79.726562 L 47.740234 81 L 48.714844 81.007812 L 48.058594 79.753906 L 49.503906 79.751953 L 49.5 78.777344 L 48.009766 78.787109 L 48.761719 77.46875 L 47.746094 77.460938 L 46.994141 78.779297 L 45.091797 78.765625 L 46.03125 77.109375 L 47.550781 77.123047 L 48.052734 76.240234 L 46.535156 76.232422 L 47.285156 74.939453 L 46.445312 74.457031 L 45.730469 75.71875 L 44.960938 74.505859 L 44.484375 75.359375 L 45.25 76.566406 L 44.244141 78.267578 L 43.283203 76.605469 L 44.042969 75.298828 L 43.552734 74.451172 z M 71.410156 81.113281 L 70.580078 82.548828 L 71.867188 84.757812 L 70.240234 87.576172 L 68.568359 84.710938 L 69.865234 82.667969 L 69.025391 81.205078 L 67.724609 83.259766 L 66.511719 81.121094 L 65.111328 81.953125 L 66.371094 84.132812 L 63.791016 84.140625 L 64.638672 85.636719 L 67.214844 85.613281 L 68.816406 88.423828 L 65.582031 88.441406 L 64.308594 86.208984 L 62.587891 86.222656 L 63.871094 88.460938 L 61.359375 88.449219 L 61.355469 90.103516 L 63.779297 90.091797 L 62.669922 92.214844 L 64.349609 92.220703 L 65.478516 90.064453 L 68.787109 90.091797 L 67.167969 92.896484 L 64.605469 92.900391 L 63.775391 94.335938 L 66.339844 94.332031 L 65.074219 96.523438 L 66.53125 97.365234 L 67.796875 95.173828 L 69.076172 97.394531 L 69.904297 95.958984 L 68.625 93.738281 L 70.246094 90.931641 L 71.955078 93.804688 L 70.652344 95.859375 L 71.466797 97.292969 L 72.748047 95.269531 L 73.972656 97.386719 L 75.402344 96.556641 L 74.125 94.380859 L 76.695312 94.367188 L 75.845703 92.871094 L 73.277344 92.884766 L 71.6875 90.080078 L 74.910156 90.056641 L 76.177734 92.298828 L 77.898438 92.285156 L 76.625 90.052734 L 79.154297 90.060547 L 79.152344 88.417969 L 76.693359 88.4375 L 77.822266 86.283203 L 76.167969 86.306641 L 75.044922 88.451172 L 71.697266 88.417969 L 73.324219 85.599609 L 75.880859 85.607422 L 76.708984 84.171875 L 74.152344 84.164062 L 75.412109 81.984375 L 73.955078 81.142578 L 72.695312 83.322266 L 71.410156 81.113281 z M 37.199219 82.970703 L 36.546875 85.402344 L 34.732422 83.599609 L 34.304688 85.201172 L 36.117188 87.003906 L 35.275391 90.144531 L 32.919922 87.810547 L 33.642578 85.501953 L 32.453125 84.304688 L 31.728516 86.626953 L 30.003906 84.875 L 28.867188 86.041016 L 30.646484 87.820312 L 28.15625 88.496094 L 29.363281 89.722656 L 31.845703 89.033203 L 34.119141 91.332031 L 31 92.1875 L 29.193359 90.361328 L 27.535156 90.818359 L 29.353516 92.648438 L 26.923828 93.289062 L 27.347656 94.884766 L 29.6875 94.248047 L 29.164062 96.583984 L 30.789062 96.15625 L 31.320312 93.783203 L 34.525391 92.951172 L 33.685547 96.080078 L 31.210938 96.746094 L 30.78125 98.347656 L 33.255859 97.681641 L 32.601562 100.125 L 34.226562 100.56055 L 34.882812 98.117188 L 36.693359 99.931641 L 37.121094 98.330078 L 35.310547 96.515625 L 36.150391 93.386719 L 38.544922 95.716797 L 37.818359 98.039062 L 38.974609 99.212891 L 39.691406 96.927734 L 41.421875 98.65625 L 42.585938 97.484375 L 40.791016 95.712891 L 43.269531 95.035156 L 42.0625 93.808594 L 39.583984 94.486328 L 37.322266 92.189453 L 40.429688 91.332031 L 42.232422 93.169922 L 43.890625 92.710938 L 42.083984 90.884766 L 44.529297 90.238281 L 44.101562 88.652344 L 41.732422 89.308594 L 42.265625 86.933594 L 40.673828 87.384766 L 40.144531 89.746094 L 36.900391 90.580078 L 37.744141 87.439453 L 40.214844 86.785156 L 40.644531 85.183594 L 38.171875 85.837891 L 38.824219 83.40625 L 37.199219 82.970703 z M 53.365234 84.064453 L 52.404297 84.320312 L 52.789062 85.757812 L 51.330078 85.371094 L 51.583984 86.316406 L 53.042969 86.703125 L 53.541016 88.558594 L 51.646484 88.060547 L 51.333984 86.666016 L 50.373047 86.404297 L 50.6875 87.806641 L 49.289062 87.419922 L 49.050781 88.351562 L 50.486328 88.736328 L 49.412109 89.816406 L 50.392578 90.087891 L 51.457031 89.001953 L 53.298828 89.505859 L 51.957031 90.865234 L 50.492188 90.464844 L 49.779297 91.1875 L 51.25 91.585938 L 50.197266 92.630859 L 50.884766 93.322266 L 51.892578 92.306641 L 52.316406 93.65625 L 53.019531 92.957031 L 52.591797 91.585938 L 53.984375 90.214844 L 54.478516 92.0625 L 53.410156 93.134766 L 53.664062 94.080078 L 54.732422 93.007812 L 55.119141 94.451172 L 56.078125 94.193359 L 55.691406 92.75 L 57.154297 93.144531 L 56.900391 92.199219 L 55.439453 91.804688 L 54.943359 89.957031 L 56.857422 90.443359 L 57.171875 91.84375 L 58.109375 92.103516 L 57.800781 90.722656 L 59.195312 91.095703 L 59.445312 90.152344 L 58.003906 89.777344 L 59.072266 88.699219 L 58.091797 88.427734 L 57.025391 89.505859 L 55.189453 89 L 56.525391 87.644531 L 57.990234 88.050781 L 58.703125 87.326172 L 57.240234 86.925781 L 58.298828 85.873047 L 57.613281 85.189453 L 56.595703 86.222656 L 56.166016 84.851562 L 55.486328 85.552734 L 55.912109 86.916016 L 54.5 88.300781 L 54.001953 86.445312 L 55.074219 85.380859 L 54.820312 84.435547 L 53.75 85.5 L 53.365234 84.064453 z M 17.216797 84.521484 L 17.216797 86.007812 L 15.90625 85.257812 L 15.90625 86.236328 L 17.216797 86.988281 L 17.216797 88.908203 L 15.515625 87.9375 L 15.574219 86.509766 L 14.712891 86.007812 L 14.654297 87.443359 L 13.404297 86.707031 L 12.933594 87.546875 L 14.220703 88.289062 L 12.902344 89.054688 L 13.779297 89.570312 L 15.089844 88.796875 L 16.738281 89.761719 L 15.089844 90.726562 L 13.779297 89.960938 L 12.902344 90.476562 L 14.220703 91.240234 L 12.933594 91.976562 L 13.417969 92.824219 L 14.654297 92.101562 L 14.712891 93.515625 L 15.574219 93.021484 L 15.515625 91.587891 L 17.216797 90.623047 L 17.216797 92.537109 L 15.90625 93.294922 L 15.90625 94.273438 L 17.216797 93.515625 L 17.216797 95.009766 L 18.208984 95.009766 L 18.208984 93.515625 L 19.519531 94.273438 L 19.519531 93.294922 L 18.208984 92.537109 L 18.208984 90.623047 L 19.931641 91.587891 L 19.873047 93.021484 L 20.710938 93.515625 L 20.771484 92.101562 L 22.021484 92.824219 L 22.507812 91.976562 L 21.212891 91.240234 L 22.521484 90.476562 L 21.646484 89.960938 L 20.335938 90.726562 L 18.695312 89.761719 L 20.335938 88.796875 L 21.646484 89.570312 L 22.521484 89.054688 L 21.212891 88.289062 L 22.507812 87.546875 L 22.021484 86.707031 L 20.771484 87.443359 L 20.710938 86.007812 L 19.873047 86.509766 L 19.931641 87.9375 L 18.208984 88.908203 L 18.208984 86.988281 L 19.519531 86.236328 L 19.519531 85.257812 L 18.208984 86.007812 L 18.208984 84.521484 L 17.216797 84.521484 z "
     id="path7116" /></svg>