<?xml version="1.0" encoding="UTF-8" standalone="no"?>
<!-- Generator: Adobe Illustrator 16.0.0, SVG Export Plug-In . SVG Version: 6.00 Build 0)  -->

<svg
   xmlns:dc="http://purl.org/dc/elements/1.1/"
   xmlns:cc="http://creativecommons.org/ns#"
   xmlns:rdf="http://www.w3.org/1999/02/22-rdf-syntax-ns#"
   xmlns:svg="http://www.w3.org/2000/svg"
   xmlns="http://www.w3.org/2000/svg"
   xmlns:sodipodi="http://sodipodi.sourceforge.net/DTD/sodipodi-0.dtd"
   xmlns:inkscape="http://www.inkscape.org/namespaces/inkscape"
   version="1.1"
   id="Layer_1"
   x="0px"
   y="0px"
   width="100px"
   height="100px"
   viewBox="0 0 100 100"
   enable-background="new 0 0 100 100"
   xml:space="preserve"
   inkscape:version="0.91 r13725"
   sodipodi:docname="c-as-xxx-rs.svg"><metadata
     id="metadata53"><rdf:RDF><cc:Work
         rdf:about=""><dc:format>image/svg+xml</dc:format><dc:type
           rdf:resource="http://purl.org/dc/dcmitype/StillImage" /></cc:Work></rdf:RDF></metadata><defs
     id="defs51" /><sodipodi:namedview
     pagecolor="#ffffff"
     bordercolor="#666666"
     borderopacity="1"
     objecttolerance="10"
     gridtolerance="10"
     guidetolerance="10"
     inkscape:pageopacity="0"
     inkscape:pageshadow="2"
     inkscape:window-width="1366"
     inkscape:window-height="719"
     id="namedview49"
     showgrid="true"
     inkscape:zoom="5.6568542"
     inkscape:cx="40.222204"
     inkscape:cy="23.301825"
     inkscape:window-x="0"
     inkscape:window-y="25"
     inkscape:window-maximized="1"
     inkscape:current-layer="Layer_1"><inkscape:grid
       type="xygrid"
       id="grid4181" /></sodipodi:namedview><path
     style="color:#000000;font-style:normal;font-variant:normal;font-weight:normal;font-stretch:normal;font-size:medium;line-height:normal;font-family:sans-serif;text-indent:0;text-align:start;text-decoration:none;text-decoration-line:none;text-decoration-style:solid;text-decoration-color:#000000;letter-spacing:normal;word-spacing:normal;text-transform:none;direction:ltr;block-progression:tb;writing-mode:lr-tb;baseline-shift:baseline;text-anchor:start;white-space:normal;clip-rule:nonzero;display:inline;overflow:visible;visibility:visible;opacity:1;isolation:auto;mix-blend-mode:normal;color-interpolation:sRGB;color-interpolation-filters:linearRGB;solid-color:#000000;solid-opacity:1;fill:#0277bd;fill-opacity:1;fill-rule:nonzero;stroke:none;stroke-width:6;stroke-linecap:round;stroke-linejoin:miter;stroke-miterlimit:4;stroke-dasharray:none;stroke-dashoffset:0;stroke-opacity:1;color-rendering:auto;image-rendering:auto;shape-rendering:auto;text-rendering:auto;enable-background:accumulate"
     d="M 21.748047 69 A 3.0003 3.0003 0 0 0 19 71.261719 L 17.447266 77.056641 A 3.0003 3.0003 0 1 0 23.242188 78.609375 L 24.794922 72.814453 A 3.0003 3.0003 0 0 0 21.748047 69 z M 57.748047 69 A 3.0003 3.0003 0 0 0 55 71.261719 L 53.447266 77.056641 A 3.0003 3.0003 0 1 0 59.242188 78.609375 L 60.794922 72.814453 A 3.0003 3.0003 0 0 0 57.748047 69 z M 67.148438 78.644531 A 3.0003 3.0003 0 0 0 64.398438 80.90625 L 62.845703 86.701172 A 3.0003 3.0003 0 1 0 68.640625 88.253906 L 70.193359 82.458984 A 3.0003 3.0003 0 0 0 67.148438 78.644531 z M 28.539062 88.300781 A 3.0003 3.0003 0 0 0 25.789062 90.5625 L 24.236328 96.357422 A 3.0003 3.0003 0 1 0 30.03125 97.910156 L 31.583984 92.115234 A 3.0003 3.0003 0 0 0 28.539062 88.300781 z "
     id="path4970" /><path
     style="fill:#aaaaaa;fill-opacity:1;stroke:none"
     d="M 75.910156 61.671875 L 75.910156 64.189453 L 73.693359 62.917969 L 73.693359 64.576172 L 75.910156 65.847656 L 75.910156 69.099609 L 73.03125 67.455078 L 73.130859 65.037109 L 71.673828 64.189453 L 71.574219 66.619141 L 69.455078 65.373047 L 68.658203 66.794922 L 70.837891 68.052734 L 68.607422 69.349609 L 70.089844 70.222656 L 72.308594 68.914062 L 75.101562 70.544922 L 72.308594 72.177734 L 70.089844 70.882812 L 68.607422 71.753906 L 70.837891 73.050781 L 68.658203 74.296875 L 69.480469 75.730469 L 71.574219 74.509766 L 71.673828 76.902344 L 73.130859 76.066406 L 73.03125 73.636719 L 75.910156 72.003906 L 75.910156 75.244141 L 73.693359 76.527344 L 73.693359 78.185547 L 75.910156 76.902344 L 75.910156 79.431641 L 77.59375 79.431641 L 77.59375 76.902344 L 79.8125 78.185547 L 79.8125 76.527344 L 77.59375 75.244141 L 77.59375 72.003906 L 80.509766 73.636719 L 80.410156 76.066406 L 81.832031 76.902344 L 81.931641 74.509766 L 84.048828 75.730469 L 84.873047 74.296875 L 82.679688 73.050781 L 84.896484 71.753906 L 83.414062 70.882812 L 81.195312 72.177734 L 78.416016 70.544922 L 81.195312 68.914062 L 83.414062 70.222656 L 84.896484 69.349609 L 82.679688 68.052734 L 84.873047 66.794922 L 84.048828 65.373047 L 81.931641 66.619141 L 81.832031 64.189453 L 80.410156 65.037109 L 80.509766 67.455078 L 77.59375 69.099609 L 77.59375 65.847656 L 79.8125 64.576172 L 79.8125 62.917969 L 77.59375 64.189453 L 77.59375 61.671875 L 75.910156 61.671875 z M 20.757812 64.462891 L 19.132812 64.898438 L 19.785156 67.330078 L 17.3125 66.675781 L 17.742188 68.277344 L 20.214844 68.929688 L 21.056641 72.072266 L 17.849609 71.228516 L 17.320312 68.867188 L 15.691406 68.425781 L 16.224609 70.798828 L 13.855469 70.144531 L 13.453125 71.722656 L 15.884766 72.375 L 14.066406 74.203125 L 15.724609 74.662109 L 17.529297 72.824219 L 20.648438 73.679688 L 18.373047 75.978516 L 15.894531 75.300781 L 14.6875 76.527344 L 17.179688 77.201172 L 15.394531 78.970703 L 16.560547 80.142578 L 18.265625 78.419922 L 18.982422 80.705078 L 20.173828 79.521484 L 19.449219 77.199219 L 21.808594 74.876953 L 22.646484 78.007812 L 20.835938 79.822266 L 21.265625 81.423828 L 23.076172 79.609375 L 23.730469 82.052734 L 25.355469 81.617188 L 24.701172 79.173828 L 27.175781 79.839844 L 26.746094 78.238281 L 24.271484 77.572266 L 23.433594 74.441406 L 26.671875 75.263672 L 27.205078 77.638672 L 28.792969 78.076172 L 28.271484 75.740234 L 30.632812 76.371094 L 31.056641 74.773438 L 28.615234 74.136719 L 30.423828 72.310547 L 28.765625 71.851562 L 26.957031 73.677734 L 23.849609 72.820312 L 26.111328 70.523438 L 28.59375 71.214844 L 29.800781 69.988281 L 27.322266 69.310547 L 29.115234 67.525391 L 27.953125 66.367188 L 26.228516 68.119141 L 25.503906 65.796875 L 24.349609 66.984375 L 25.072266 69.292969 L 22.681641 71.636719 L 21.839844 68.494141 L 23.652344 66.693359 L 23.224609 65.091797 L 21.410156 66.894531 L 20.757812 64.462891 z M 57.875 67.359375 L 56.916016 67.615234 L 57.300781 69.050781 L 55.839844 68.666016 L 56.09375 69.611328 L 57.552734 69.996094 L 58.050781 71.851562 L 56.15625 71.353516 L 55.84375 69.958984 L 54.882812 69.699219 L 55.197266 71.101562 L 53.798828 70.712891 L 53.560547 71.646484 L 54.998047 72.03125 L 53.923828 73.111328 L 54.902344 73.380859 L 55.966797 72.296875 L 57.808594 72.800781 L 56.466797 74.158203 L 55.003906 73.757812 L 54.291016 74.482422 L 55.761719 74.880859 L 54.707031 75.925781 L 55.396484 76.617188 L 56.404297 75.599609 L 56.826172 76.949219 L 57.529297 76.251953 L 57.101562 74.880859 L 58.494141 73.509766 L 58.990234 75.357422 L 57.919922 76.427734 L 58.173828 77.373047 L 59.242188 76.302734 L 59.628906 77.746094 L 60.589844 77.488281 L 60.203125 76.044922 L 61.664062 76.439453 L 61.410156 75.492188 L 59.949219 75.099609 L 59.453125 73.251953 L 61.367188 73.736328 L 61.681641 75.138672 L 62.619141 75.398438 L 62.310547 74.017578 L 63.705078 74.390625 L 63.957031 73.447266 L 62.513672 73.072266 L 63.582031 71.994141 L 62.601562 71.722656 L 61.535156 72.800781 L 59.701172 72.294922 L 61.035156 70.9375 L 62.501953 71.345703 L 63.214844 70.621094 L 61.75 70.220703 L 62.808594 69.167969 L 62.123047 68.482422 L 61.105469 69.517578 L 60.677734 68.146484 L 59.996094 68.847656 L 60.421875 70.210938 L 59.009766 71.595703 L 58.513672 69.740234 L 59.583984 68.675781 L 59.330078 67.730469 L 58.259766 68.794922 L 57.875 67.359375 z M 43.554688 74.451172 L 42.796875 75.757812 L 42.052734 74.46875 L 41.193359 74.966797 L 41.935547 76.253906 L 40.425781 76.257812 L 40.916016 77.105469 L 42.425781 77.101562 L 43.384766 78.765625 L 41.427734 78.773438 L 40.765625 77.507812 L 39.769531 77.503906 L 40.435547 78.777344 L 38.984375 78.765625 L 38.996094 79.726562 L 40.482422 79.726562 L 39.724609 81.048828 L 40.740234 81.056641 L 41.488281 79.732422 L 43.398438 79.744141 L 42.453125 81.402344 L 40.935547 81.394531 L 40.435547 82.279297 L 41.958984 82.283203 L 41.210938 83.564453 L 42.054688 84.054688 L 42.765625 82.8125 L 43.521484 84.005859 L 44.021484 83.148438 L 43.251953 81.935547 L 44.242188 80.25 L 45.199219 81.90625 L 44.445312 83.21875 L 44.933594 84.066406 L 45.689453 82.753906 L 46.435547 84.048828 L 47.296875 83.552734 L 46.548828 82.257812 L 48.0625 82.259766 L 47.574219 81.412109 L 46.060547 81.410156 L 45.103516 79.753906 L 47.076172 79.726562 L 47.744141 81 L 48.716797 81.007812 L 48.060547 79.753906 L 49.505859 79.751953 L 49.501953 78.777344 L 48.013672 78.787109 L 48.765625 77.46875 L 47.748047 77.460938 L 46.996094 78.779297 L 45.09375 78.763672 L 46.033203 77.109375 L 47.554688 77.123047 L 48.054688 76.238281 L 46.537109 76.230469 L 47.287109 74.939453 L 46.447266 74.457031 L 45.732422 75.71875 L 44.962891 74.505859 L 44.486328 75.359375 L 45.251953 76.566406 L 44.246094 78.267578 L 43.285156 76.605469 L 44.044922 75.298828 L 43.554688 74.451172 z M 71.412109 81.113281 L 70.583984 82.548828 L 71.869141 84.757812 L 70.242188 87.576172 L 68.572266 84.710938 L 69.867188 82.667969 L 69.027344 81.205078 L 67.726562 83.259766 L 66.513672 81.121094 L 65.113281 81.951172 L 66.373047 84.132812 L 63.792969 84.140625 L 64.640625 85.636719 L 67.216797 85.613281 L 68.818359 88.423828 L 65.583984 88.441406 L 64.310547 86.208984 L 62.589844 86.222656 L 63.873047 88.460938 L 61.361328 88.449219 L 61.357422 90.101562 L 63.78125 90.091797 L 62.671875 92.214844 L 64.351562 92.220703 L 65.480469 90.064453 L 68.791016 90.089844 L 67.169922 92.896484 L 64.607422 92.900391 L 63.777344 94.335938 L 66.341797 94.332031 L 65.076172 96.523438 L 66.533203 97.365234 L 67.798828 95.173828 L 69.078125 97.394531 L 69.90625 95.958984 L 68.626953 93.738281 L 70.248047 90.931641 L 71.957031 93.804688 L 70.65625 95.859375 L 71.46875 97.292969 L 72.751953 95.269531 L 73.974609 97.386719 L 75.404297 96.556641 L 74.126953 94.380859 L 76.697266 94.367188 L 75.849609 92.871094 L 73.279297 92.884766 L 71.689453 90.080078 L 74.912109 90.056641 L 76.179688 92.298828 L 77.900391 92.285156 L 76.626953 90.052734 L 79.15625 90.060547 L 79.154297 88.417969 L 76.695312 88.4375 L 77.824219 86.283203 L 76.169922 86.306641 L 75.046875 88.451172 L 71.699219 88.417969 L 73.326172 85.599609 L 75.882812 85.607422 L 76.710938 84.171875 L 74.154297 84.164062 L 75.414062 81.984375 L 73.957031 81.142578 L 72.697266 83.322266 L 71.412109 81.113281 z M 37.201172 82.970703 L 36.548828 85.402344 L 34.736328 83.599609 L 34.306641 85.201172 L 36.121094 87.003906 L 35.279297 90.144531 L 32.923828 87.810547 L 33.644531 85.501953 L 32.457031 84.304688 L 31.730469 86.626953 L 30.007812 84.875 L 28.869141 86.041016 L 30.650391 87.820312 L 28.160156 88.496094 L 29.365234 89.722656 L 31.847656 89.033203 L 34.121094 91.332031 L 31.001953 92.185547 L 29.195312 90.359375 L 27.537109 90.818359 L 29.355469 92.648438 L 26.925781 93.287109 L 27.349609 94.884766 L 29.689453 94.248047 L 29.166016 96.583984 L 30.791016 96.15625 L 31.324219 93.78125 L 34.527344 92.951172 L 33.6875 96.080078 L 31.212891 96.746094 L 30.783203 98.347656 L 33.259766 97.681641 L 32.603516 100.125 L 34.230469 100.56055 L 34.884766 98.117188 L 36.695312 99.931641 L 37.125 98.330078 L 35.3125 96.515625 L 36.152344 93.384766 L 38.546875 95.716797 L 37.820312 98.039062 L 38.978516 99.212891 L 39.693359 96.927734 L 41.423828 98.65625 L 42.589844 97.484375 L 40.792969 95.712891 L 43.271484 95.035156 L 42.064453 93.808594 L 39.585938 94.486328 L 37.324219 92.189453 L 40.431641 91.332031 L 42.236328 93.169922 L 43.894531 92.710938 L 42.085938 90.884766 L 44.53125 90.238281 L 44.103516 88.652344 L 41.734375 89.306641 L 42.267578 86.933594 L 40.675781 87.384766 L 40.146484 89.746094 L 36.904297 90.580078 L 37.746094 87.439453 L 40.216797 86.785156 L 40.646484 85.183594 L 38.173828 85.837891 L 38.826172 83.40625 L 37.201172 82.970703 z M 53.367188 84.064453 L 52.408203 84.320312 L 52.792969 85.757812 L 51.332031 85.371094 L 51.585938 86.316406 L 53.044922 86.703125 L 53.542969 88.558594 L 51.648438 88.058594 L 51.335938 86.666016 L 50.375 86.404297 L 50.689453 87.806641 L 49.291016 87.419922 L 49.052734 88.351562 L 50.490234 88.736328 L 49.414062 89.816406 L 50.394531 90.087891 L 51.458984 89.001953 L 53.300781 89.505859 L 51.958984 90.863281 L 50.496094 90.464844 L 49.783203 91.1875 L 51.253906 91.585938 L 50.199219 92.630859 L 50.888672 93.322266 L 51.894531 92.306641 L 52.318359 93.65625 L 53.021484 92.957031 L 52.59375 91.585938 L 53.986328 90.214844 L 54.482422 92.0625 L 53.412109 93.132812 L 53.666016 94.080078 L 54.734375 93.007812 L 55.121094 94.451172 L 56.082031 94.193359 L 55.695312 92.75 L 57.15625 93.144531 L 56.902344 92.199219 L 55.441406 91.804688 L 54.945312 89.957031 L 56.859375 90.443359 L 57.173828 91.84375 L 58.111328 92.103516 L 57.802734 90.722656 L 59.197266 91.095703 L 59.447266 90.152344 L 58.005859 89.777344 L 59.074219 88.699219 L 58.09375 88.427734 L 57.027344 89.505859 L 55.193359 89 L 56.527344 87.644531 L 57.994141 88.050781 L 58.707031 87.326172 L 57.242188 86.925781 L 58.300781 85.873047 L 57.615234 85.189453 L 56.597656 86.222656 L 56.167969 84.851562 L 55.488281 85.552734 L 55.914062 86.916016 L 54.501953 88.300781 L 54.005859 86.445312 L 55.076172 85.380859 L 54.822266 84.435547 L 53.751953 85.5 L 53.367188 84.064453 z M 17.21875 84.521484 L 17.21875 86.007812 L 15.908203 85.257812 L 15.908203 86.236328 L 17.21875 86.986328 L 17.21875 88.908203 L 15.517578 87.9375 L 15.578125 86.509766 L 14.716797 86.007812 L 14.658203 87.443359 L 13.40625 86.707031 L 12.935547 87.546875 L 14.222656 88.289062 L 12.90625 89.054688 L 13.78125 89.570312 L 15.091797 88.796875 L 16.740234 89.761719 L 15.091797 90.726562 L 13.78125 89.960938 L 12.90625 90.476562 L 14.222656 91.240234 L 12.935547 91.976562 L 13.419922 92.824219 L 14.658203 92.101562 L 14.716797 93.515625 L 15.578125 93.021484 L 15.517578 91.587891 L 17.21875 90.623047 L 17.21875 92.537109 L 15.908203 93.294922 L 15.908203 94.273438 L 17.21875 93.515625 L 17.21875 95.009766 L 18.212891 95.009766 L 18.212891 93.515625 L 19.521484 94.273438 L 19.521484 93.294922 L 18.212891 92.537109 L 18.212891 90.623047 L 19.933594 91.587891 L 19.875 93.021484 L 20.714844 93.515625 L 20.773438 92.101562 L 22.023438 92.824219 L 22.509766 91.976562 L 21.214844 91.240234 L 22.525391 90.476562 L 21.648438 89.960938 L 20.339844 90.726562 L 18.697266 89.761719 L 20.339844 88.796875 L 21.648438 89.570312 L 22.525391 89.054688 L 21.214844 88.289062 L 22.509766 87.546875 L 22.023438 86.707031 L 20.773438 87.443359 L 20.714844 86.007812 L 19.875 86.509766 L 19.933594 87.9375 L 18.212891 88.908203 L 18.212891 86.986328 L 19.521484 86.236328 L 19.521484 85.257812 L 18.212891 86.007812 L 18.212891 84.521484 L 17.21875 84.521484 z "
     id="path5129" /></svg>