<?xml version="1.0" encoding="UTF-8" standalone="no"?>
<!-- Generator: Adobe Illustrator 16.0.0, SVG Export Plug-In . SVG Version: 6.00 Build 0)  -->

<svg
   xmlns:dc="http://purl.org/dc/elements/1.1/"
   xmlns:cc="http://creativecommons.org/ns#"
   xmlns:rdf="http://www.w3.org/1999/02/22-rdf-syntax-ns#"
   xmlns:svg="http://www.w3.org/2000/svg"
   xmlns="http://www.w3.org/2000/svg"
   xmlns:sodipodi="http://sodipodi.sourceforge.net/DTD/sodipodi-0.dtd"
   xmlns:inkscape="http://www.inkscape.org/namespaces/inkscape"
   version="1.1"
   id="Layer_1"
   x="0px"
   y="0px"
   width="100px"
   height="100px"
   viewBox="0 0 100 100"
   enable-background="new 0 0 100 100"
   xml:space="preserve"
   inkscape:version="0.91 r13725"
   sodipodi:docname="c-as-xx-rs.svg"><metadata
     id="metadata53"><rdf:RDF><cc:Work
         rdf:about=""><dc:format>image/svg+xml</dc:format><dc:type
           rdf:resource="http://purl.org/dc/dcmitype/StillImage" /></cc:Work></rdf:RDF></metadata><defs
     id="defs51" /><sodipodi:namedview
     pagecolor="#ffffff"
     bordercolor="#666666"
     borderopacity="1"
     objecttolerance="10"
     gridtolerance="10"
     guidetolerance="10"
     inkscape:pageopacity="0"
     inkscape:pageshadow="2"
     inkscape:window-width="1366"
     inkscape:window-height="719"
     id="namedview49"
     showgrid="true"
     inkscape:zoom="7.9999999"
     inkscape:cx="18.527477"
     inkscape:cy="11.155962"
     inkscape:window-x="0"
     inkscape:window-y="25"
     inkscape:window-maximized="1"
     inkscape:current-layer="Layer_1"><inkscape:grid
       type="xygrid"
       id="grid4181" /></sodipodi:namedview><path
     style="color:#000000;font-style:normal;font-variant:normal;font-weight:normal;font-stretch:normal;font-size:medium;line-height:normal;font-family:sans-serif;text-indent:0;text-align:start;text-decoration:none;text-decoration-line:none;text-decoration-style:solid;text-decoration-color:#000000;letter-spacing:normal;word-spacing:normal;text-transform:none;direction:ltr;block-progression:tb;writing-mode:lr-tb;baseline-shift:baseline;text-anchor:start;white-space:normal;clip-rule:nonzero;display:inline;overflow:visible;visibility:visible;opacity:1;isolation:auto;mix-blend-mode:normal;color-interpolation:sRGB;color-interpolation-filters:linearRGB;solid-color:#000000;solid-opacity:1;fill:#0277bd;fill-opacity:1;fill-rule:nonzero;stroke:none;stroke-width:6;stroke-linecap:round;stroke-linejoin:miter;stroke-miterlimit:4;stroke-dasharray:none;stroke-dashoffset:0;stroke-opacity:1;color-rendering:auto;image-rendering:auto;shape-rendering:auto;text-rendering:auto;enable-background:accumulate"
     d="M 21.744141 69.001953 A 3.0003 3.0003 0 0 0 18.994141 71.263672 L 17.441406 77.058594 A 3.0006142 3.0006142 0 0 0 23.238281 78.611328 L 24.791016 72.816406 A 3.0003 3.0003 0 0 0 21.744141 69.001953 z M 57.744141 69.001953 A 3.0003 3.0003 0 0 0 54.994141 71.263672 L 53.441406 77.058594 A 3.0006142 3.0006142 0 0 0 59.238281 78.611328 L 60.791016 72.816406 A 3.0003 3.0003 0 0 0 57.744141 69.001953 z M 28.533203 88.302734 A 3.0003 3.0003 0 0 0 25.783203 90.564453 L 24.230469 96.359375 A 3.0006142 3.0006142 0 0 0 30.027344 97.912109 L 31.580078 92.117188 A 3.0003 3.0003 0 0 0 28.533203 88.302734 z "
     id="path4952" /><path
     style="fill:#aaaaaa;fill-opacity:1;stroke:none"
     d="M 21.261719 63.759766 L 19.636719 64.195312 L 20.287109 66.626953 L 17.816406 65.972656 L 18.246094 67.574219 L 20.716797 68.228516 L 21.558594 71.369141 L 18.351562 70.525391 L 17.822266 68.164062 L 16.195312 67.722656 L 16.728516 70.095703 L 14.359375 69.441406 L 13.955078 71.019531 L 16.388672 71.671875 L 14.568359 73.5 L 16.226562 73.958984 L 18.03125 72.121094 L 21.150391 72.976562 L 18.876953 75.275391 L 16.398438 74.597656 L 15.191406 75.824219 L 17.681641 76.498047 L 15.898438 78.267578 L 17.0625 79.439453 L 18.769531 77.716797 L 19.484375 80.001953 L 20.677734 78.818359 L 19.953125 76.498047 L 22.310547 74.175781 L 23.148438 77.304688 L 21.337891 79.119141 L 21.767578 80.720703 L 23.578125 78.90625 L 24.232422 81.349609 L 25.859375 80.914062 L 25.203125 78.470703 L 27.679688 79.136719 L 27.25 77.535156 L 24.775391 76.869141 L 23.935547 73.740234 L 27.175781 74.5625 L 27.708984 76.935547 L 29.296875 77.373047 L 28.773438 75.037109 L 31.136719 75.667969 L 31.560547 74.070312 L 29.119141 73.433594 L 30.925781 71.607422 L 29.267578 71.148438 L 27.460938 72.976562 L 24.353516 72.117188 L 26.615234 69.822266 L 29.097656 70.511719 L 30.302734 69.285156 L 27.824219 68.607422 L 29.619141 66.824219 L 28.455078 65.664062 L 26.732422 67.416016 L 26.005859 65.09375 L 24.853516 66.28125 L 25.576172 68.589844 L 23.183594 70.933594 L 22.341797 67.792969 L 24.15625 65.990234 L 23.726562 64.388672 L 21.914062 66.191406 L 21.261719 63.759766 z M 59.916016 66.410156 L 59.085938 67.845703 L 60.371094 70.056641 L 58.746094 72.873047 L 57.074219 70.007812 L 58.369141 67.964844 L 57.53125 66.501953 L 56.228516 68.556641 L 55.017578 66.417969 L 53.617188 67.25 L 54.875 69.429688 L 52.294922 69.4375 L 53.144531 70.933594 L 55.71875 70.910156 L 57.320312 73.720703 L 54.085938 73.738281 L 52.814453 71.505859 L 51.09375 71.519531 L 52.376953 73.757812 L 49.865234 73.746094 L 49.861328 75.400391 L 52.285156 75.388672 L 51.173828 77.511719 L 52.855469 77.517578 L 53.984375 75.363281 L 57.292969 75.388672 L 55.673828 78.193359 L 53.109375 78.197266 L 52.28125 79.632812 L 54.84375 79.628906 L 53.580078 81.820312 L 55.037109 82.662109 L 56.300781 80.470703 L 57.580078 82.691406 L 58.410156 81.255859 L 57.130859 79.035156 L 58.75 76.228516 L 60.458984 79.101562 L 59.158203 81.15625 L 59.970703 82.589844 L 61.253906 80.566406 L 62.478516 82.683594 L 63.908203 81.855469 L 62.630859 79.677734 L 65.201172 79.666016 L 64.351562 78.167969 L 61.783203 78.181641 L 60.191406 75.376953 L 63.416016 75.353516 L 64.681641 77.595703 L 66.402344 77.582031 L 65.128906 75.349609 L 67.658203 75.357422 L 67.65625 73.714844 L 65.199219 73.734375 L 66.328125 71.580078 L 64.673828 71.603516 L 63.550781 73.748047 L 60.203125 73.714844 L 61.828125 70.896484 L 64.386719 70.90625 L 65.214844 69.470703 L 62.658203 69.460938 L 63.916016 67.28125 L 62.458984 66.439453 L 61.201172 68.621094 L 59.916016 66.410156 z M 43.550781 74.455078 L 42.791016 75.759766 L 42.048828 74.472656 L 41.1875 74.96875 L 41.931641 76.255859 L 40.421875 76.261719 L 40.910156 77.109375 L 42.419922 77.103516 L 43.380859 78.767578 L 41.421875 78.775391 L 40.759766 77.509766 L 39.763672 77.507812 L 40.429688 78.779297 L 38.978516 78.767578 L 38.990234 79.730469 L 40.478516 79.730469 L 39.71875 81.050781 L 40.736328 81.058594 L 41.484375 79.734375 L 43.392578 79.746094 L 42.447266 81.404297 L 40.929688 81.396484 L 40.429688 82.28125 L 41.953125 82.285156 L 41.205078 83.566406 L 42.048828 84.056641 L 42.759766 82.814453 L 43.517578 84.007812 L 44.015625 83.150391 L 43.248047 81.9375 L 44.238281 80.251953 L 45.195312 81.910156 L 44.439453 83.220703 L 44.929688 84.068359 L 45.683594 82.757812 L 46.431641 84.050781 L 47.291016 83.554688 L 46.544922 82.259766 L 48.058594 82.261719 L 47.568359 81.414062 L 46.054688 81.412109 L 45.099609 79.755859 L 47.072266 79.730469 L 47.738281 81.001953 L 48.710938 81.009766 L 48.056641 79.755859 L 49.5 79.755859 L 49.498047 78.779297 L 48.007812 78.789062 L 48.759766 77.472656 L 47.744141 77.462891 L 46.992188 78.78125 L 45.087891 78.767578 L 46.027344 77.111328 L 47.548828 77.125 L 48.050781 76.242188 L 46.533203 76.234375 L 47.283203 74.943359 L 46.443359 74.458984 L 45.726562 75.722656 L 44.958984 74.507812 L 44.482422 75.361328 L 45.246094 76.568359 L 44.242188 78.271484 L 43.28125 76.607422 L 44.039062 75.302734 L 43.550781 74.455078 z M 37.195312 82.972656 L 36.544922 85.404297 L 34.730469 83.601562 L 34.300781 85.203125 L 36.115234 87.005859 L 35.273438 90.148438 L 32.917969 87.8125 L 33.640625 85.503906 L 32.451172 84.308594 L 31.726562 86.628906 L 30.001953 84.876953 L 28.863281 86.042969 L 30.644531 87.824219 L 28.154297 88.498047 L 29.361328 89.724609 L 31.841797 89.035156 L 34.117188 91.333984 L 30.998047 92.189453 L 29.189453 90.363281 L 27.53125 90.822266 L 29.351562 92.650391 L 26.921875 93.291016 L 27.345703 94.888672 L 29.683594 94.25 L 29.160156 96.587891 L 30.785156 96.158203 L 31.318359 93.785156 L 34.521484 92.953125 L 33.683594 96.082031 L 31.208984 96.748047 L 30.779297 98.349609 L 33.253906 97.683594 L 32.599609 100.12695 L 34.224609 100.5625 L 34.878906 98.119141 L 36.689453 99.933594 L 37.119141 98.332031 L 35.308594 96.517578 L 36.146484 93.388672 L 38.541016 95.720703 L 37.816406 98.041016 L 38.972656 99.216797 L 39.6875 96.929688 L 41.417969 98.658203 L 42.583984 97.486328 L 40.787109 95.714844 L 43.265625 95.037109 L 42.060547 93.810547 L 39.582031 94.488281 L 37.318359 92.193359 L 40.425781 91.333984 L 42.230469 93.173828 L 43.888672 92.714844 L 42.082031 90.888672 L 44.525391 90.240234 L 44.099609 88.654297 L 41.730469 89.310547 L 42.263672 86.9375 L 40.671875 87.386719 L 40.142578 89.748047 L 36.898438 90.583984 L 37.740234 87.441406 L 40.212891 86.787109 L 40.642578 85.185547 L 38.169922 85.839844 L 38.822266 83.408203 L 37.195312 82.972656 z M 53.361328 84.066406 L 52.402344 84.324219 L 52.787109 85.759766 L 51.328125 85.373047 L 51.580078 86.318359 L 53.041016 86.705078 L 53.537109 88.560547 L 51.644531 88.0625 L 51.332031 86.667969 L 50.371094 86.40625 L 50.685547 87.808594 L 49.285156 87.421875 L 49.048828 88.353516 L 50.484375 88.738281 L 49.410156 89.818359 L 50.388672 90.089844 L 51.455078 89.003906 L 53.296875 89.509766 L 51.953125 90.867188 L 50.490234 90.466797 L 49.777344 91.191406 L 51.248047 91.589844 L 50.195312 92.632812 L 50.882812 93.324219 L 51.890625 92.308594 L 52.3125 93.658203 L 53.017578 92.958984 L 52.589844 91.587891 L 53.982422 90.216797 L 54.476562 92.064453 L 53.408203 93.136719 L 53.660156 94.082031 L 54.730469 93.009766 L 55.117188 94.453125 L 56.076172 94.197266 L 55.689453 92.753906 L 57.152344 93.146484 L 56.898438 92.201172 L 55.4375 91.808594 L 54.941406 89.958984 L 56.853516 90.445312 L 57.167969 91.845703 L 58.107422 92.105469 L 57.798828 90.724609 L 59.193359 91.097656 L 59.443359 90.154297 L 58.001953 89.779297 L 59.068359 88.701172 L 58.089844 88.429688 L 57.021484 89.507812 L 55.1875 89.001953 L 56.523438 87.646484 L 57.988281 88.052734 L 58.701172 87.330078 L 57.238281 86.929688 L 58.296875 85.875 L 57.609375 85.191406 L 56.591797 86.226562 L 56.164062 84.855469 L 55.482422 85.554688 L 55.910156 86.919922 L 54.498047 88.302734 L 54 86.447266 L 55.072266 85.382812 L 54.818359 84.4375 L 53.746094 85.501953 L 53.361328 84.066406 z M 19.212891 84.523438 L 19.212891 86.011719 L 17.904297 85.259766 L 17.904297 86.238281 L 19.212891 86.990234 L 19.212891 88.910156 L 17.513672 87.939453 L 17.572266 86.511719 L 16.710938 86.011719 L 16.652344 87.445312 L 15.400391 86.710938 L 14.929688 87.548828 L 16.21875 88.292969 L 14.900391 89.058594 L 15.777344 89.572266 L 17.085938 88.800781 L 18.734375 89.763672 L 17.085938 90.728516 L 15.777344 89.962891 L 14.900391 90.478516 L 16.21875 91.244141 L 14.929688 91.980469 L 15.416016 92.826172 L 16.652344 92.105469 L 16.710938 93.517578 L 17.572266 93.025391 L 17.513672 91.589844 L 19.212891 90.625 L 19.212891 92.539062 L 17.904297 93.296875 L 17.904297 94.275391 L 19.212891 93.517578 L 19.212891 95.011719 L 20.207031 95.011719 L 20.207031 93.517578 L 21.517578 94.275391 L 21.517578 93.296875 L 20.207031 92.539062 L 20.207031 90.625 L 21.929688 91.589844 L 21.871094 93.025391 L 22.708984 93.517578 L 22.767578 92.105469 L 24.019531 92.826172 L 24.505859 91.980469 L 23.208984 91.244141 L 24.519531 90.478516 L 23.644531 89.962891 L 22.333984 90.728516 L 20.693359 89.763672 L 22.333984 88.800781 L 23.644531 89.572266 L 24.519531 89.058594 L 23.208984 88.292969 L 24.505859 87.548828 L 24.019531 86.710938 L 22.767578 87.445312 L 22.708984 86.011719 L 21.871094 86.511719 L 21.929688 87.939453 L 20.207031 88.910156 L 20.207031 86.990234 L 21.517578 86.238281 L 21.517578 85.259766 L 20.207031 86.011719 L 20.207031 84.523438 L 19.212891 84.523438 z "
     id="path5033" /></svg>