<?xml version="1.0" encoding="UTF-8" standalone="no"?>
<!-- Generator: Adobe Illustrator 16.0.0, SVG Export Plug-In . SVG Version: 6.00 Build 0)  -->

<svg
   xmlns:dc="http://purl.org/dc/elements/1.1/"
   xmlns:cc="http://creativecommons.org/ns#"
   xmlns:rdf="http://www.w3.org/1999/02/22-rdf-syntax-ns#"
   xmlns:svg="http://www.w3.org/2000/svg"
   xmlns="http://www.w3.org/2000/svg"
   xmlns:sodipodi="http://sodipodi.sourceforge.net/DTD/sodipodi-0.dtd"
   xmlns:inkscape="http://www.inkscape.org/namespaces/inkscape"
   version="1.1"
   id="Layer_1"
   x="0px"
   y="0px"
   width="100px"
   height="100px"
   viewBox="0 0 100 100"
   enable-background="new 0 0 100 100"
   xml:space="preserve"
   inkscape:version="0.91 r13725"
   sodipodi:docname="c-as-x-s.svg"><metadata
     id="metadata53"><rdf:RDF><cc:Work
         rdf:about=""><dc:format>image/svg+xml</dc:format><dc:type
           rdf:resource="http://purl.org/dc/dcmitype/StillImage" /></cc:Work></rdf:RDF></metadata><defs
     id="defs51" /><sodipodi:namedview
     pagecolor="#ffffff"
     bordercolor="#666666"
     borderopacity="1"
     objecttolerance="10"
     gridtolerance="10"
     guidetolerance="10"
     inkscape:pageopacity="0"
     inkscape:pageshadow="2"
     inkscape:window-width="1366"
     inkscape:window-height="719"
     id="namedview49"
     showgrid="true"
     inkscape:zoom="2.8284271"
     inkscape:cx="-32.004266"
     inkscape:cy="47.490379"
     inkscape:window-x="0"
     inkscape:window-y="25"
     inkscape:window-maximized="1"
     inkscape:current-layer="Layer_1"><inkscape:grid
       type="xygrid"
       id="grid4181" /></sodipodi:namedview><path
     style="fill:#aaaaaa;fill-opacity:1;stroke:none"
     d="M 22.875 64.470703 L 21.25 64.90625 L 21.902344 67.337891 L 19.429688 66.685547 L 19.859375 68.285156 L 22.332031 68.939453 L 23.173828 72.082031 L 19.966797 71.238281 L 19.4375 68.876953 L 17.808594 68.435547 L 18.341797 70.808594 L 15.972656 70.152344 L 15.570312 71.732422 L 18.001953 72.382812 L 16.183594 74.212891 L 17.841797 74.671875 L 19.646484 72.833984 L 22.765625 73.6875 L 20.490234 75.988281 L 18.011719 75.310547 L 16.804688 76.537109 L 19.296875 77.210938 L 17.511719 78.978516 L 18.677734 80.150391 L 20.382812 78.429688 L 21.099609 80.714844 L 22.291016 79.53125 L 21.566406 77.208984 L 23.923828 74.886719 L 24.763672 78.017578 L 22.953125 79.832031 L 23.380859 81.431641 L 25.193359 79.617188 L 25.847656 82.0625 L 27.472656 81.626953 L 26.818359 79.183594 L 29.292969 79.847656 L 28.863281 78.248047 L 26.388672 77.582031 L 25.550781 74.451172 L 28.789062 75.273438 L 29.322266 77.646484 L 30.910156 78.085938 L 30.388672 75.748047 L 32.75 76.380859 L 33.173828 74.783203 L 30.732422 74.146484 L 32.541016 72.320312 L 30.880859 71.861328 L 29.074219 73.6875 L 25.966797 72.830078 L 28.228516 70.533203 L 30.710938 71.222656 L 31.917969 69.996094 L 29.439453 69.318359 L 31.232422 67.535156 L 30.070312 66.375 L 28.345703 68.128906 L 27.621094 65.806641 L 26.466797 66.992188 L 27.189453 69.302734 L 24.798828 71.646484 L 23.957031 68.503906 L 25.769531 66.701172 L 25.341797 65.101562 L 23.527344 66.902344 L 22.875 64.470703 z M 46.179688 73.755859 L 45.421875 75.060547 L 44.677734 73.773438 L 43.818359 74.269531 L 44.560547 75.556641 L 43.050781 75.5625 L 43.541016 76.410156 L 45.050781 76.404297 L 46.009766 78.068359 L 44.052734 78.078125 L 43.390625 76.810547 L 42.394531 76.808594 L 43.060547 78.080078 L 41.609375 78.068359 L 41.621094 79.03125 L 43.107422 79.03125 L 42.349609 80.351562 L 43.365234 80.361328 L 44.113281 79.037109 L 46.023438 79.046875 L 45.078125 80.707031 L 43.560547 80.699219 L 43.060547 81.582031 L 44.583984 81.585938 L 43.835938 82.867188 L 44.679688 83.357422 L 45.390625 82.115234 L 46.146484 83.310547 L 46.646484 82.451172 L 45.876953 81.238281 L 46.867188 79.554688 L 47.824219 81.210938 L 47.070312 82.521484 L 47.558594 83.369141 L 48.314453 82.058594 L 49.060547 83.351562 L 49.921875 82.855469 L 49.173828 81.5625 L 50.6875 81.5625 L 50.199219 80.714844 L 48.685547 80.714844 L 47.728516 79.056641 L 49.701172 79.03125 L 50.369141 80.302734 L 51.341797 80.310547 L 50.685547 79.056641 L 52.130859 79.056641 L 52.126953 78.080078 L 50.638672 78.091797 L 51.390625 76.773438 L 50.373047 76.765625 L 49.621094 78.082031 L 47.71875 78.068359 L 48.658203 76.412109 L 50.179688 76.427734 L 50.679688 75.542969 L 49.162109 75.535156 L 49.912109 74.244141 L 49.072266 73.759766 L 48.357422 75.023438 L 47.587891 73.810547 L 47.111328 74.662109 L 47.876953 75.869141 L 46.871094 77.572266 L 45.910156 75.908203 L 46.669922 74.603516 L 46.179688 73.755859 z M 39.318359 82.978516 L 38.666016 85.410156 L 36.853516 83.609375 L 36.423828 85.210938 L 38.238281 87.011719 L 37.396484 90.154297 L 35.041016 87.820312 L 35.761719 85.509766 L 34.574219 84.314453 L 33.847656 86.636719 L 32.123047 84.882812 L 30.986328 86.048828 L 32.767578 87.830078 L 30.275391 88.503906 L 31.482422 89.730469 L 33.964844 89.041016 L 36.238281 91.341797 L 33.119141 92.195312 L 31.3125 90.369141 L 29.654297 90.828125 L 31.472656 92.658203 L 29.042969 93.296875 L 29.466797 94.894531 L 31.806641 94.255859 L 31.283203 96.59375 L 32.908203 96.164062 L 33.439453 93.791016 L 36.644531 92.958984 L 35.804688 96.089844 L 33.330078 96.755859 L 32.900391 98.355469 L 35.376953 97.691406 L 34.720703 100.13477 L 36.345703 100.57031 L 37.001953 98.126953 L 38.8125 99.939453 L 39.240234 98.339844 L 37.429688 96.525391 L 38.269531 93.394531 L 40.664062 95.726562 L 39.9375 98.048828 L 41.09375 99.222656 L 41.810547 96.9375 L 43.541016 98.666016 L 44.707031 97.494141 L 42.910156 95.722656 L 45.388672 95.044922 L 44.181641 93.818359 L 41.703125 94.496094 L 39.441406 92.199219 L 42.548828 91.341797 L 44.353516 93.179688 L 46.011719 92.720703 L 44.203125 90.894531 L 46.648438 90.246094 L 46.220703 88.662109 L 43.851562 89.316406 L 44.384766 86.943359 L 42.792969 87.394531 L 42.263672 89.755859 L 39.021484 90.589844 L 39.863281 87.447266 L 42.333984 86.792969 L 42.763672 85.193359 L 40.291016 85.845703 L 40.943359 83.414062 L 39.318359 82.978516 z "
     id="path7360" /></svg>