<?xml version="1.0" encoding="UTF-8" standalone="no"?>
<!-- Generator: Adobe Illustrator 16.0.0, SVG Export Plug-In . SVG Version: 6.00 Build 0)  -->

<svg
   xmlns:dc="http://purl.org/dc/elements/1.1/"
   xmlns:cc="http://creativecommons.org/ns#"
   xmlns:rdf="http://www.w3.org/1999/02/22-rdf-syntax-ns#"
   xmlns:svg="http://www.w3.org/2000/svg"
   xmlns="http://www.w3.org/2000/svg"
   xmlns:sodipodi="http://sodipodi.sourceforge.net/DTD/sodipodi-0.dtd"
   xmlns:inkscape="http://www.inkscape.org/namespaces/inkscape"
   version="1.1"
   id="Layer_1"
   x="0px"
   y="0px"
   width="100px"
   height="100px"
   viewBox="0 0 100 100"
   enable-background="new 0 0 100 100"
   xml:space="preserve"
   inkscape:version="0.91 r13725"
   sodipodi:docname="c-as-x-rs.svg"><metadata
     id="metadata53"><rdf:RDF><cc:Work
         rdf:about=""><dc:format>image/svg+xml</dc:format><dc:type
           rdf:resource="http://purl.org/dc/dcmitype/StillImage" /></cc:Work></rdf:RDF></metadata><defs
     id="defs51" /><sodipodi:namedview
     pagecolor="#ffffff"
     bordercolor="#666666"
     borderopacity="1"
     objecttolerance="10"
     gridtolerance="10"
     guidetolerance="10"
     inkscape:pageopacity="0"
     inkscape:pageshadow="2"
     inkscape:window-width="1366"
     inkscape:window-height="719"
     id="namedview49"
     showgrid="true"
     inkscape:zoom="8"
     inkscape:cx="8.14777"
     inkscape:cy="17.827577"
     inkscape:window-x="0"
     inkscape:window-y="25"
     inkscape:window-maximized="1"
     inkscape:current-layer="Layer_1"><inkscape:grid
       type="xygrid"
       id="grid4181" /></sodipodi:namedview><path
     style="color:#000000;font-style:normal;font-variant:normal;font-weight:normal;font-stretch:normal;font-size:medium;line-height:normal;font-family:sans-serif;text-indent:0;text-align:start;text-decoration:none;text-decoration-line:none;text-decoration-style:solid;text-decoration-color:#000000;letter-spacing:normal;word-spacing:normal;text-transform:none;direction:ltr;block-progression:tb;writing-mode:lr-tb;baseline-shift:baseline;text-anchor:start;white-space:normal;clip-rule:nonzero;display:inline;overflow:visible;visibility:visible;opacity:1;isolation:auto;mix-blend-mode:normal;color-interpolation:sRGB;color-interpolation-filters:linearRGB;solid-color:#000000;solid-opacity:1;fill:#0277bd;fill-opacity:1;fill-rule:nonzero;stroke:none;stroke-width:6;stroke-linecap:round;stroke-linejoin:miter;stroke-miterlimit:4;stroke-dasharray:none;stroke-dashoffset:0;stroke-opacity:1;color-rendering:auto;image-rendering:auto;shape-rendering:auto;text-rendering:auto;enable-background:accumulate"
     d="M 21.869141 69.005859 A 3.0003 3.0003 0 0 0 19.119141 71.267578 L 17.566406 77.0625 A 3.0008671 3.0008671 0 1 0 23.363281 78.617188 L 24.916016 72.820312 A 3.0003 3.0003 0 0 0 22.169922 69.005859 A 3.0003 3.0003 0 0 0 21.869141 69.005859 z M 43.267578 78.650391 A 3.0003 3.0003 0 0 0 40.517578 80.912109 L 38.964844 86.707031 A 3.0008671 3.0008671 0 1 0 44.761719 88.261719 L 46.314453 82.464844 A 3.0003 3.0003 0 0 0 43.568359 78.650391 A 3.0003 3.0003 0 0 0 43.267578 78.650391 z M 28.658203 88.306641 A 3.0003 3.0003 0 0 0 25.908203 90.568359 L 24.355469 96.363281 A 3.0008671 3.0008671 0 1 0 30.152344 97.917969 L 31.705078 92.121094 A 3.0003 3.0003 0 0 0 28.958984 88.306641 A 3.0003 3.0003 0 0 0 28.658203 88.306641 z "
     id="path4962" /><path
     style="fill:#aaaaaa;fill-opacity:1;stroke:none"
     d="M 22.878906 64.46875 L 21.253906 64.904297 L 21.904297 67.335938 L 19.433594 66.681641 L 19.861328 68.283203 L 22.333984 68.9375 L 23.175781 72.080078 L 19.96875 71.236328 L 19.439453 68.875 L 17.8125 68.433594 L 18.34375 70.806641 L 15.974609 70.150391 L 15.572266 71.730469 L 18.005859 72.380859 L 16.185547 74.210938 L 17.84375 74.669922 L 19.648438 72.832031 L 22.767578 73.685547 L 20.494141 75.986328 L 18.015625 75.306641 L 16.808594 76.535156 L 19.298828 77.208984 L 17.515625 78.976562 L 18.679688 80.148438 L 20.386719 78.427734 L 21.101562 80.712891 L 22.294922 79.529297 L 21.570312 77.207031 L 23.927734 74.884766 L 24.765625 78.015625 L 22.955078 79.828125 L 23.384766 81.429688 L 25.195312 79.615234 L 25.849609 82.060547 L 27.474609 81.625 L 26.820312 79.179688 L 29.294922 79.845703 L 28.867188 78.244141 L 26.392578 77.580078 L 25.552734 74.449219 L 28.792969 75.271484 L 29.326172 77.644531 L 30.914062 78.083984 L 30.390625 75.746094 L 32.753906 76.376953 L 33.177734 74.78125 L 30.736328 74.144531 L 32.542969 72.318359 L 30.884766 71.859375 L 29.078125 73.685547 L 25.970703 72.828125 L 28.232422 70.53125 L 30.712891 71.220703 L 31.919922 69.994141 L 29.441406 69.316406 L 31.234375 67.533203 L 30.072266 66.373047 L 28.349609 68.125 L 27.623047 65.804688 L 26.470703 66.990234 L 27.193359 69.300781 L 24.800781 71.644531 L 23.958984 68.501953 L 25.773438 66.699219 L 25.34375 65.099609 L 23.53125 66.900391 L 22.878906 64.46875 z M 46.183594 73.753906 L 45.423828 75.058594 L 44.681641 73.771484 L 43.820312 74.267578 L 44.564453 75.554688 L 43.054688 75.560547 L 43.542969 76.408203 L 45.052734 76.402344 L 46.013672 78.066406 L 44.056641 78.074219 L 43.392578 76.808594 L 42.396484 76.806641 L 43.0625 78.078125 L 41.611328 78.066406 L 41.623047 79.029297 L 43.111328 79.029297 L 42.351562 80.349609 L 43.369141 80.359375 L 44.117188 79.035156 L 46.025391 79.044922 L 45.080078 80.705078 L 43.564453 80.697266 L 43.0625 81.580078 L 44.585938 81.583984 L 43.837891 82.865234 L 44.683594 83.355469 L 45.392578 82.113281 L 46.150391 83.306641 L 46.650391 82.449219 L 45.880859 81.236328 L 46.871094 79.550781 L 47.828125 81.208984 L 47.072266 82.519531 L 47.5625 83.367188 L 48.316406 82.056641 L 49.064453 83.349609 L 49.923828 82.853516 L 49.177734 81.558594 L 50.691406 81.560547 L 50.201172 80.712891 L 48.6875 80.710938 L 47.732422 79.054688 L 49.705078 79.029297 L 50.371094 80.300781 L 51.345703 80.308594 L 50.689453 79.054688 L 52.132812 79.054688 L 52.130859 78.078125 L 50.640625 78.087891 L 51.392578 76.771484 L 50.376953 76.761719 L 49.625 78.080078 L 47.722656 78.066406 L 48.660156 76.410156 L 50.181641 76.425781 L 50.683594 75.541016 L 49.166016 75.533203 L 49.916016 74.242188 L 49.076172 73.757812 L 48.359375 75.021484 L 47.591797 73.806641 L 47.115234 74.660156 L 47.878906 75.867188 L 46.875 77.570312 L 45.914062 75.90625 L 46.673828 74.601562 L 46.183594 73.753906 z M 39.320312 82.976562 L 38.669922 85.408203 L 36.855469 83.607422 L 36.425781 85.207031 L 38.240234 87.009766 L 37.398438 90.152344 L 35.042969 87.818359 L 35.765625 85.507812 L 34.576172 84.3125 L 33.851562 86.634766 L 32.126953 84.880859 L 30.988281 86.046875 L 32.769531 87.828125 L 30.279297 88.501953 L 31.486328 89.728516 L 33.966797 89.039062 L 36.242188 91.339844 L 33.123047 92.193359 L 31.314453 90.367188 L 29.65625 90.826172 L 31.476562 92.65625 L 29.046875 93.294922 L 29.470703 94.892578 L 31.808594 94.253906 L 31.285156 96.591797 L 32.910156 96.162109 L 33.443359 93.789062 L 36.646484 92.957031 L 35.808594 96.087891 L 33.333984 96.753906 L 32.904297 98.353516 L 35.378906 97.6875 L 34.724609 100.13281 L 36.349609 100.56836 L 37.003906 98.123047 L 38.814453 99.9375 L 39.244141 98.337891 L 37.433594 96.523438 L 38.271484 93.392578 L 40.666016 95.724609 L 39.941406 98.046875 L 41.097656 99.220703 L 41.8125 96.935547 L 43.542969 98.664062 L 44.708984 97.492188 L 42.912109 95.720703 L 45.390625 95.042969 L 44.185547 93.816406 L 41.707031 94.494141 L 39.443359 92.197266 L 42.550781 91.339844 L 44.355469 93.177734 L 46.013672 92.71875 L 44.207031 90.892578 L 46.650391 90.244141 L 46.224609 88.658203 L 43.855469 89.314453 L 44.388672 86.941406 L 42.796875 87.392578 L 42.267578 89.753906 L 39.023438 90.587891 L 39.865234 87.445312 L 42.337891 86.791016 L 42.767578 85.191406 L 40.294922 85.84375 L 40.947266 83.412109 L 39.320312 82.976562 z "
     id="path5238" /><g
     style="fill:#aaaaaa;fill-opacity:1;stroke:none"
     id="g5246"
     transform="matrix(0.04532324,-0.02616739,0.02616739,0.04532324,34.856,68.23451)" /></svg>