<?xml version="1.0" encoding="UTF-8" standalone="no"?>
<!-- Generator: Adobe Illustrator 16.0.0, SVG Export Plug-In . SVG Version: 6.00 Build 0)  -->

<svg
   xmlns:dc="http://purl.org/dc/elements/1.1/"
   xmlns:cc="http://creativecommons.org/ns#"
   xmlns:rdf="http://www.w3.org/1999/02/22-rdf-syntax-ns#"
   xmlns:svg="http://www.w3.org/2000/svg"
   xmlns="http://www.w3.org/2000/svg"
   xmlns:sodipodi="http://sodipodi.sourceforge.net/DTD/sodipodi-0.dtd"
   xmlns:inkscape="http://www.inkscape.org/namespaces/inkscape"
   version="1.1"
   id="Layer_1"
   x="0px"
   y="0px"
   width="100px"
   height="100px"
   viewBox="0 0 100 100"
   enable-background="new 0 0 100 100"
   xml:space="preserve"
   inkscape:version="0.91 r13725"
   sodipodi:docname="gmm-c-cb-xxx.svg"><metadata
     id="metadata53"><rdf:RDF><cc:Work
         rdf:about=""><dc:format>image/svg+xml</dc:format><dc:type
           rdf:resource="http://purl.org/dc/dcmitype/StillImage" /></cc:Work></rdf:RDF></metadata><defs
     id="defs51" /><sodipodi:namedview
     pagecolor="#ffffff"
     bordercolor="#666666"
     borderopacity="1"
     objecttolerance="10"
     gridtolerance="10"
     guidetolerance="10"
     inkscape:pageopacity="0"
     inkscape:pageshadow="2"
     inkscape:window-width="1366"
     inkscape:window-height="719"
     id="namedview49"
     showgrid="true"
     inkscape:zoom="4"
     inkscape:cx="76.699818"
     inkscape:cy="39.002993"
     inkscape:window-x="0"
     inkscape:window-y="25"
     inkscape:window-maximized="1"
     inkscape:current-layer="Layer_1"><inkscape:grid
       type="xygrid"
       id="grid4181" /></sodipodi:namedview><path
     sodipodi:nodetypes="ccccscsccc"
     d="m 17.913656,77.216132 c -9.5163,0 -17.2259,-7.7188 -17.2259,-17.2282 0,0 -0.088,-17.2122 18.0224,-17.2122 3.914,-16.127 19.003,-16.9437 23.235499,-15.806 4.5899,-4.567 12.2289,-7.9213 19.9545,-7.9213 15.3143,0 27.871,11.8444 28.9995,26.8742 5.0267,2.8969 8.4126,8.3149 8.4126,14.5295 0,9.2638 -7.5023,16.7663 -16.7593,16.7663 l -64.639299,0 z"
     style="fill:#cccccc;fill-opacity:1;stroke:#000000;stroke-width:1;stroke-miterlimit:4;stroke-dasharray:none;stroke-opacity:1"
     id="path7468"
     inkscape:connector-curvature="0" /><path
     sodipodi:nodetypes="ccccscsccc"
     d="m 84.450555,79.186732 c 6.214,0 11.2483,-5.0402 11.2483,-11.2499 0,0 0.056,-11.2395 -11.7686,-11.2395 -2.5557,-10.5309 -12.4088,-11.0641 -15.1726,-10.3212 -2.9972,-2.9823 -7.9853,-5.1726 -13.03,-5.1726 -10.0004,0 -18.199499,7.7344 -18.936699,17.5488 -3.2822,1.8916 -5.4933,5.4295 -5.4933,9.4876 0,6.0492 4.8991,10.9484 10.943699,10.9484 l 42.2092,0 z"
     style="fill:#bbbbbb;fill-opacity:1;stroke:#000000;stroke-width:1;stroke-miterlimit:4;stroke-dasharray:none;stroke-opacity:1"
     id="path7464-5"
     inkscape:connector-curvature="0" /></svg>