<?xml version="1.0" encoding="UTF-8" standalone="no"?>
<!-- Generator: Adobe Illustrator 16.0.0, SVG Export Plug-In . SVG Version: 6.00 Build 0)  -->

<svg
   xmlns:dc="http://purl.org/dc/elements/1.1/"
   xmlns:cc="http://creativecommons.org/ns#"
   xmlns:rdf="http://www.w3.org/1999/02/22-rdf-syntax-ns#"
   xmlns:svg="http://www.w3.org/2000/svg"
   xmlns="http://www.w3.org/2000/svg"
   xmlns:sodipodi="http://sodipodi.sourceforge.net/DTD/sodipodi-0.dtd"
   xmlns:inkscape="http://www.inkscape.org/namespaces/inkscape"
   version="1.1"
   id="Layer_1"
   x="0px"
   y="0px"
   width="100px"
   height="100px"
   viewBox="0 0 100 100"
   enable-background="new 0 0 100 100"
   xml:space="preserve"
   inkscape:version="0.91 r13725"
   sodipodi:docname="c-cicc-xx.svg"><metadata
     id="metadata53"><rdf:RDF><cc:Work
         rdf:about=""><dc:format>image/svg+xml</dc:format><dc:type
           rdf:resource="http://purl.org/dc/dcmitype/StillImage" /></cc:Work></rdf:RDF></metadata><defs
     id="defs51" /><sodipodi:namedview
     pagecolor="#ffffff"
     bordercolor="#666666"
     borderopacity="1"
     objecttolerance="10"
     gridtolerance="10"
     guidetolerance="10"
     inkscape:pageopacity="0"
     inkscape:pageshadow="2"
     inkscape:window-width="1366"
     inkscape:window-height="719"
     id="namedview49"
     showgrid="true"
     inkscape:zoom="5.6568543"
     inkscape:cx="19.977121"
     inkscape:cy="69.335099"
     inkscape:window-x="0"
     inkscape:window-y="25"
     inkscape:window-maximized="1"
     inkscape:current-layer="Layer_1"><inkscape:grid
       type="xygrid"
       id="grid4181" /></sodipodi:namedview><path
     sodipodi:nodetypes="csscssccsscc"
     inkscape:connector-curvature="0"
     id="path7217"
     d="m 56.564894,19.703976 c 3.5623,1.2564 6.0289,4.651601 6.0289,8.525514 0,4.9862 -4.0563,9.0432 -9.0425,9.0432 -0.1505,0 -0.3098,-0.01 -0.4852,-0.014 l -29.6192,0 c -6.6463,0 -12.0531,-5.4067 -12.0531,-12.053117 0,-3.040599 1.136,-5.9449 3.1994,-8.176598 1.8137,-1.961601 4.1997,-3.2524 6.8026,-3.699201 2.4792,-7.2427985 9.3721,-12.2188975 17.1039,-12.2188975 9.9654,0 18.073,8.1080985 18.073,18.0741975 0,0.172301 0,0.345601 -0.01,0.519099 z"
     style="fill:#ffffff;fill-opacity:1;stroke:#000000;stroke-width:1;stroke-linecap:butt;stroke-linejoin:miter;stroke-miterlimit:4;stroke-dasharray:none;stroke-opacity:1" /><path
     style="fill:#efefef;fill-opacity:1;stroke:#000000;stroke-width:1;stroke-linecap:butt;stroke-linejoin:miter;stroke-miterlimit:4;stroke-dasharray:none;stroke-opacity:1"
     d="m 65.672094,25.575925 c 2.6718,0.942301 4.5217,3.488705 4.5217,6.394137 0,3.739649 -3.0422,6.782399 -6.7819,6.782399 -0.1129,0 -0.2323,-0.007 -0.3639,-0.0105 l -22.2144,0 c -4.9847,0 -9.0398,-4.05502 -9.0398,-9.03983 0,-2.28045 0.852,-4.458685 2.3995,-6.132455 1.3603,-1.4712 3.1498,-2.4393 5.102,-2.7744 1.8594,-5.4321 7.0291,-9.16418 12.8279,-9.16418 7.4741,0 13.5548,6.08108 13.5548,13.55565 0,0.12923 0,0.2592 -0.01,0.38933 z"
     id="path7219"
     inkscape:connector-curvature="0"
     sodipodi:nodetypes="csscssccsscc" /></svg>