<?xml version="1.0" encoding="UTF-8" standalone="no"?>
<!-- Generator: Adobe Illustrator 16.0.0, SVG Export Plug-In . SVG Version: 6.00 Build 0)  -->

<svg
   xmlns:dc="http://purl.org/dc/elements/1.1/"
   xmlns:cc="http://creativecommons.org/ns#"
   xmlns:rdf="http://www.w3.org/1999/02/22-rdf-syntax-ns#"
   xmlns:svg="http://www.w3.org/2000/svg"
   xmlns="http://www.w3.org/2000/svg"
   xmlns:sodipodi="http://sodipodi.sourceforge.net/DTD/sodipodi-0.dtd"
   xmlns:inkscape="http://www.inkscape.org/namespaces/inkscape"
   version="1.1"
   id="Layer_1"
   x="0px"
   y="0px"
   width="100px"
   height="100px"
   viewBox="0 0 100 100"
   enable-background="new 0 0 100 100"
   xml:space="preserve"
   inkscape:version="0.91 r13725"
   sodipodi:docname="c-cs-xx-rs.svg"><metadata
     id="metadata53"><rdf:RDF><cc:Work
         rdf:about=""><dc:format>image/svg+xml</dc:format><dc:type
           rdf:resource="http://purl.org/dc/dcmitype/StillImage" /></cc:Work></rdf:RDF></metadata><defs
     id="defs51" /><sodipodi:namedview
     pagecolor="#ffffff"
     bordercolor="#666666"
     borderopacity="1"
     objecttolerance="10"
     gridtolerance="10"
     guidetolerance="10"
     inkscape:pageopacity="0"
     inkscape:pageshadow="2"
     inkscape:window-width="1366"
     inkscape:window-height="719"
     id="namedview49"
     showgrid="true"
     inkscape:zoom="5.6568543"
     inkscape:cx="36.354365"
     inkscape:cy="34.08083"
     inkscape:window-x="0"
     inkscape:window-y="25"
     inkscape:window-maximized="1"
     inkscape:current-layer="Layer_1"><inkscape:grid
       type="xygrid"
       id="grid4181" /></sodipodi:namedview><path
     style="color:#000000;font-style:normal;font-variant:normal;font-weight:normal;font-stretch:normal;font-size:medium;line-height:normal;font-family:sans-serif;text-indent:0;text-align:start;text-decoration:none;text-decoration-line:none;text-decoration-style:solid;text-decoration-color:#000000;letter-spacing:normal;word-spacing:normal;text-transform:none;direction:ltr;block-progression:tb;writing-mode:lr-tb;baseline-shift:baseline;text-anchor:start;white-space:normal;clip-rule:nonzero;display:inline;overflow:visible;visibility:visible;opacity:1;isolation:auto;mix-blend-mode:normal;color-interpolation:sRGB;color-interpolation-filters:linearRGB;solid-color:#000000;solid-opacity:1;fill:#0277bd;fill-opacity:1;fill-rule:nonzero;stroke:none;stroke-width:6;stroke-linecap:round;stroke-linejoin:miter;stroke-miterlimit:4;stroke-dasharray:none;stroke-dashoffset:0;stroke-opacity:1;color-rendering:auto;image-rendering:auto;shape-rendering:auto;text-rendering:auto;enable-background:accumulate"
     d="M 29.808594 39.900391 A 3.0003 3.0003 0 0 0 26.759766 42.162109 L 25.205078 47.957031 A 3.0008671 3.0008671 0 1 0 31.001953 49.511719 L 32.554688 43.714844 A 3.0003 3.0003 0 0 0 29.808594 39.900391 z M 50.919922 49.558594 A 3.0003 3.0003 0 0 0 48.169922 51.818359 L 46.617188 57.615234 A 3.0003 3.0003 0 1 0 52.412109 59.167969 L 53.966797 53.373047 A 3.0003 3.0003 0 0 0 50.919922 49.558594 z M 22.042969 68.878906 A 3.0003 3.0003 0 0 0 18.994141 71.140625 L 17.441406 76.935547 A 3.0003 3.0003 0 1 0 23.236328 78.490234 L 24.789062 72.693359 A 3.0003 3.0003 0 0 0 22.042969 68.878906 z M 28.832031 88.179688 A 3.0003 3.0003 0 0 0 25.783203 90.441406 L 24.230469 96.236328 A 3.0003 3.0003 0 1 0 30.025391 97.791016 L 31.578125 91.994141 A 3.0003 3.0003 0 0 0 28.832031 88.179688 z "
     id="path4888" /><path
     style="fill:#aaaaaa;fill-opacity:1;stroke:none"
     d="M 26.876953 39.572266 L 26.876953 42.089844 L 24.658203 40.820312 L 24.658203 42.476562 L 26.876953 43.748047 L 26.876953 47.001953 L 23.998047 45.355469 L 24.097656 42.9375 L 22.640625 42.089844 L 22.541016 44.521484 L 20.421875 43.275391 L 19.623047 44.695312 L 21.804688 45.955078 L 19.574219 47.25 L 21.056641 48.123047 L 23.275391 46.814453 L 26.068359 48.447266 L 23.275391 50.080078 L 21.056641 48.783203 L 19.574219 49.65625 L 21.804688 50.953125 L 19.623047 52.199219 L 20.447266 53.632812 L 22.541016 52.410156 L 22.640625 54.802734 L 24.097656 53.96875 L 23.998047 51.537109 L 26.876953 49.904297 L 26.876953 53.146484 L 24.658203 54.429688 L 24.658203 56.087891 L 26.876953 54.802734 L 26.876953 57.333984 L 28.560547 57.333984 L 28.560547 54.802734 L 30.779297 56.087891 L 30.779297 54.429688 L 28.560547 53.146484 L 28.560547 49.904297 L 31.476562 51.537109 L 31.376953 53.96875 L 32.796875 54.802734 L 32.898438 52.410156 L 35.015625 53.632812 L 35.839844 52.199219 L 33.644531 50.953125 L 35.863281 49.65625 L 34.380859 48.783203 L 32.162109 50.080078 L 29.382812 48.447266 L 32.162109 46.814453 L 34.380859 48.123047 L 35.863281 47.25 L 33.644531 45.955078 L 35.839844 44.695312 L 35.015625 43.275391 L 32.898438 44.521484 L 32.796875 42.089844 L 31.376953 42.9375 L 31.476562 45.355469 L 28.560547 47.001953 L 28.560547 43.748047 L 30.779297 42.476562 L 30.779297 40.820312 L 28.560547 42.089844 L 28.560547 39.572266 L 26.876953 39.572266 z M 64.802734 42.041016 L 64.326172 43.814453 L 63.003906 42.5 L 62.691406 43.667969 L 64.013672 44.982422 L 63.400391 47.271484 L 61.683594 45.570312 L 62.210938 43.886719 L 61.34375 43.015625 L 60.814453 44.707031 L 59.556641 43.429688 L 58.728516 44.279297 L 60.025391 45.578125 L 58.210938 46.070312 L 59.089844 46.962891 L 60.900391 46.460938 L 62.556641 48.136719 L 60.283203 48.759766 L 58.964844 47.429688 L 57.755859 47.763672 L 59.083984 49.097656 L 57.3125 49.5625 L 57.621094 50.728516 L 59.326172 50.261719 L 58.945312 51.966797 L 60.128906 51.654297 L 60.517578 49.923828 L 62.853516 49.316406 L 62.240234 51.599609 L 60.4375 52.083984 L 60.123047 53.251953 L 61.927734 52.765625 L 61.451172 54.546875 L 62.636719 54.865234 L 63.113281 53.083984 L 64.433594 54.40625 L 64.746094 53.238281 L 63.425781 51.916016 L 64.037109 49.634766 L 65.783203 51.333984 L 65.253906 53.027344 L 66.097656 53.882812 L 66.619141 52.216797 L 67.880859 53.476562 L 68.730469 52.623047 L 67.419922 51.332031 L 69.226562 50.837891 L 68.347656 49.943359 L 66.541016 50.4375 L 64.892578 48.763672 L 67.15625 48.136719 L 68.472656 49.478516 L 69.681641 49.142578 L 68.363281 47.8125 L 70.146484 47.339844 L 69.833984 46.183594 L 68.107422 46.662109 L 68.496094 44.931641 L 67.335938 45.259766 L 66.949219 46.980469 L 64.585938 47.589844 L 65.199219 45.298828 L 67.001953 44.822266 L 67.314453 43.654297 L 65.511719 44.130859 L 65.986328 42.359375 L 64.802734 42.041016 z M 44.869141 62.519531 L 43.931641 64.130859 L 43.013672 62.542969 L 41.951172 63.15625 L 42.869141 64.744141 L 41.005859 64.751953 L 41.609375 65.796875 L 43.472656 65.791016 L 44.658203 67.845703 L 42.242188 67.855469 L 41.423828 66.292969 L 40.193359 66.289062 L 41.015625 67.861328 L 39.224609 67.845703 L 39.238281 69.033203 L 41.074219 69.033203 L 40.138672 70.664062 L 41.392578 70.675781 L 42.316406 69.041016 L 44.673828 69.052734 L 43.507812 71.101562 L 41.632812 71.091797 L 41.015625 72.183594 L 42.896484 72.189453 L 41.974609 73.769531 L 43.015625 74.375 L 43.892578 72.841797 L 44.828125 74.316406 L 45.443359 73.257812 L 44.494141 71.759766 L 45.716797 69.677734 L 46.898438 71.724609 L 45.964844 73.34375 L 46.570312 74.390625 L 47.501953 72.771484 L 48.425781 74.369141 L 49.486328 73.755859 L 48.564453 72.158203 L 50.433594 72.160156 L 49.830078 71.113281 L 47.960938 71.111328 L 46.779297 69.064453 L 49.216797 69.033203 L 50.039062 70.603516 L 51.240234 70.613281 L 50.431641 69.066406 L 52.212891 69.064453 L 52.210938 67.859375 L 50.371094 67.873047 L 51.298828 66.246094 L 50.044922 66.236328 L 49.117188 67.863281 L 46.767578 67.845703 L 47.927734 65.800781 L 49.804688 65.818359 L 50.423828 64.726562 L 48.550781 64.716797 L 49.476562 63.123047 L 48.439453 62.525391 L 47.554688 64.085938 L 46.607422 62.587891 L 46.017578 63.640625 L 46.962891 65.130859 L 45.720703 67.232422 L 44.535156 65.177734 L 45.472656 63.566406 L 44.869141 62.519531 z M 22.333984 69.964844 L 21.373047 70.222656 L 21.757812 71.658203 L 20.298828 71.271484 L 20.552734 72.216797 L 22.011719 72.603516 L 22.509766 74.458984 L 20.615234 73.960938 L 20.302734 72.566406 L 19.341797 72.306641 L 19.65625 73.707031 L 18.257812 73.320312 L 18.019531 74.251953 L 19.455078 74.636719 L 18.380859 75.716797 L 19.361328 75.988281 L 20.425781 74.902344 L 22.267578 75.408203 L 20.925781 76.765625 L 19.460938 76.365234 L 18.75 77.089844 L 20.220703 77.488281 L 19.166016 78.53125 L 19.853516 79.224609 L 20.861328 78.207031 L 21.285156 79.556641 L 21.988281 78.857422 L 21.560547 77.486328 L 22.953125 76.115234 L 23.449219 77.962891 L 22.378906 79.035156 L 22.632812 79.980469 L 23.701172 78.910156 L 24.087891 80.351562 L 25.048828 80.095703 L 24.662109 78.652344 L 26.123047 79.044922 L 25.869141 78.099609 L 24.408203 77.707031 L 23.912109 75.857422 L 25.826172 76.34375 L 26.140625 77.746094 L 27.078125 78.003906 L 26.769531 76.625 L 28.164062 76.998047 L 28.414062 76.054688 L 26.972656 75.677734 L 28.041016 74.599609 L 27.060547 74.328125 L 25.994141 75.408203 L 24.158203 74.900391 L 25.494141 73.544922 L 26.960938 73.953125 L 27.671875 73.228516 L 26.208984 72.828125 L 27.267578 71.773438 L 26.582031 71.089844 L 25.564453 72.125 L 25.134766 70.753906 L 24.455078 71.453125 L 24.880859 72.818359 L 23.46875 74.201172 L 22.972656 72.345703 L 24.042969 71.283203 L 23.789062 70.335938 L 22.71875 71.400391 L 22.333984 69.964844 z M 58.333984 77.964844 L 57.373047 78.222656 L 57.757812 79.658203 L 56.298828 79.271484 L 56.552734 80.216797 L 58.011719 80.603516 L 58.509766 82.458984 L 56.615234 81.960938 L 56.302734 80.566406 L 55.341797 80.306641 L 55.65625 81.707031 L 54.257812 81.320312 L 54.019531 82.251953 L 55.455078 82.636719 L 54.380859 83.716797 L 55.361328 83.988281 L 56.425781 82.902344 L 58.267578 83.408203 L 56.925781 84.765625 L 55.460938 84.365234 L 54.75 85.089844 L 56.220703 85.488281 L 55.166016 86.53125 L 55.853516 87.224609 L 56.861328 86.207031 L 57.285156 87.556641 L 57.988281 86.857422 L 57.560547 85.486328 L 58.953125 84.115234 L 59.449219 85.962891 L 58.378906 87.035156 L 58.632812 87.980469 L 59.701172 86.910156 L 60.087891 88.351562 L 61.048828 88.095703 L 60.662109 86.652344 L 62.123047 87.044922 L 61.869141 86.099609 L 60.408203 85.707031 L 59.912109 83.857422 L 61.826172 84.34375 L 62.140625 85.746094 L 63.078125 86.003906 L 62.769531 84.625 L 64.164062 84.998047 L 64.414062 84.054688 L 62.972656 83.677734 L 64.041016 82.599609 L 63.060547 82.328125 L 61.994141 83.408203 L 60.158203 82.900391 L 61.494141 81.544922 L 62.960938 81.953125 L 63.671875 81.228516 L 62.208984 80.828125 L 63.267578 79.773438 L 62.582031 79.089844 L 61.564453 80.125 L 61.134766 78.753906 L 60.455078 79.453125 L 60.880859 80.818359 L 59.46875 82.201172 L 58.972656 80.345703 L 60.042969 79.283203 L 59.789062 78.335938 L 58.71875 79.400391 L 58.333984 77.964844 z M 37.765625 85.253906 L 37.289062 87.027344 L 35.966797 85.712891 L 35.654297 86.880859 L 36.976562 88.195312 L 36.363281 90.486328 L 34.646484 88.783203 L 35.173828 87.099609 L 34.306641 86.228516 L 33.777344 87.919922 L 32.519531 86.642578 L 31.691406 87.494141 L 32.988281 88.791016 L 31.173828 89.283203 L 32.052734 90.177734 L 33.863281 89.673828 L 35.519531 91.351562 L 33.246094 91.972656 L 31.927734 90.642578 L 30.71875 90.976562 L 32.046875 92.310547 L 30.275391 92.777344 L 30.583984 93.941406 L 32.289062 93.476562 L 31.908203 95.179688 L 33.091797 94.867188 L 33.480469 93.136719 L 35.816406 92.53125 L 35.203125 94.8125 L 33.400391 95.296875 L 33.085938 96.464844 L 34.890625 95.978516 L 34.414062 97.761719 L 35.599609 98.078125 L 36.076172 96.296875 L 37.396484 97.619141 L 37.708984 96.453125 L 36.388672 95.128906 L 37 92.847656 L 38.746094 94.546875 L 38.216797 96.240234 L 39.060547 97.095703 L 39.582031 95.429688 L 40.84375 96.689453 L 41.693359 95.835938 L 40.382812 94.544922 L 42.189453 94.050781 L 41.310547 93.15625 L 39.503906 93.650391 L 37.855469 91.976562 L 40.119141 91.351562 L 41.435547 92.691406 L 42.644531 92.357422 L 41.326172 91.025391 L 43.109375 90.552734 L 42.796875 89.396484 L 41.070312 89.875 L 41.458984 88.144531 L 40.298828 88.472656 L 39.912109 90.195312 L 37.548828 90.802734 L 38.162109 88.511719 L 39.964844 88.035156 L 40.277344 86.869141 L 38.474609 87.345703 L 38.949219 85.572266 L 37.765625 85.253906 z "
     id="path4912" /></svg>