<?xml version="1.0" encoding="UTF-8" standalone="no"?>
<!-- Generator: Adobe Illustrator 16.0.0, SVG Export Plug-In . SVG Version: 6.00 Build 0)  -->

<svg
   xmlns:dc="http://purl.org/dc/elements/1.1/"
   xmlns:cc="http://creativecommons.org/ns#"
   xmlns:rdf="http://www.w3.org/1999/02/22-rdf-syntax-ns#"
   xmlns:svg="http://www.w3.org/2000/svg"
   xmlns="http://www.w3.org/2000/svg"
   xmlns:sodipodi="http://sodipodi.sourceforge.net/DTD/sodipodi-0.dtd"
   xmlns:inkscape="http://www.inkscape.org/namespaces/inkscape"
   version="1.1"
   id="Layer_1"
   x="0px"
   y="0px"
   width="100px"
   height="100px"
   viewBox="0 0 100 100"
   enable-background="new 0 0 100 100"
   xml:space="preserve"
   inkscape:version="0.91 r13725"
   sodipodi:docname="c-cs-x-r.svg"><metadata
     id="metadata53"><rdf:RDF><cc:Work
         rdf:about=""><dc:format>image/svg+xml</dc:format><dc:type
           rdf:resource="http://purl.org/dc/dcmitype/StillImage" /></cc:Work></rdf:RDF></metadata><defs
     id="defs51" /><sodipodi:namedview
     pagecolor="#ffffff"
     bordercolor="#666666"
     borderopacity="1"
     objecttolerance="10"
     gridtolerance="10"
     guidetolerance="10"
     inkscape:pageopacity="0"
     inkscape:pageshadow="2"
     inkscape:window-width="1366"
     inkscape:window-height="719"
     id="namedview49"
     showgrid="true"
     inkscape:zoom="2.8284271"
     inkscape:cx="-44.94972"
     inkscape:cy="48.418778"
     inkscape:window-x="0"
     inkscape:window-y="25"
     inkscape:window-maximized="1"
     inkscape:current-layer="Layer_1"><inkscape:grid
       type="xygrid"
       id="grid4181" /></sodipodi:namedview><path
     style="color:#000000;font-style:normal;font-variant:normal;font-weight:normal;font-stretch:normal;font-size:medium;line-height:normal;font-family:sans-serif;text-indent:0;text-align:start;text-decoration:none;text-decoration-line:none;text-decoration-style:solid;text-decoration-color:#000000;letter-spacing:normal;word-spacing:normal;text-transform:none;direction:ltr;block-progression:tb;writing-mode:lr-tb;baseline-shift:baseline;text-anchor:start;white-space:normal;clip-rule:nonzero;display:inline;overflow:visible;visibility:visible;opacity:1;isolation:auto;mix-blend-mode:normal;color-interpolation:sRGB;color-interpolation-filters:linearRGB;solid-color:#000000;solid-opacity:1;fill:#0277bd;fill-opacity:1;fill-rule:nonzero;stroke:none;stroke-width:6;stroke-linecap:round;stroke-linejoin:miter;stroke-miterlimit:4;stroke-dasharray:none;stroke-dashoffset:0;stroke-opacity:1;color-rendering:auto;image-rendering:auto;shape-rendering:auto;text-rendering:auto;enable-background:accumulate"
     d="M 26.078125 39.802734 A 3.0003 3.0003 0 0 0 23.330078 42.064453 L 21.775391 47.859375 A 3.0006142 3.0006142 0 0 0 27.572266 49.412109 L 29.125 43.617188 A 3.0003 3.0003 0 0 0 26.078125 39.802734 z M 47.490234 49.458984 A 3.0003 3.0003 0 0 0 44.740234 51.720703 L 43.1875 57.515625 A 3.0003 3.0003 0 1 0 48.982422 59.068359 L 50.537109 53.273438 A 3.0003 3.0003 0 0 0 47.490234 49.458984 z M 32.902344 59.117188 A 3.0003 3.0003 0 0 0 30.154297 61.376953 L 28.599609 67.173828 A 3.0006142 3.0006142 0 0 0 34.396484 68.726562 L 35.949219 62.931641 A 3.0003 3.0003 0 0 0 32.902344 59.117188 z M 18.3125 68.78125 A 3.0003 3.0003 0 0 0 15.564453 71.041016 L 14.009766 76.837891 A 3.0006142 3.0006142 0 0 0 19.806641 78.390625 L 21.359375 72.595703 A 3.0003 3.0003 0 0 0 18.3125 68.78125 z M 39.710938 78.425781 A 3.0003 3.0003 0 0 0 36.962891 80.685547 L 35.410156 86.482422 A 3.0003 3.0003 0 1 0 41.205078 88.035156 L 42.757812 82.240234 A 3.0003 3.0003 0 0 0 39.710938 78.425781 z M 25.101562 88.082031 A 3.0003 3.0003 0 0 0 22.353516 90.341797 L 20.800781 96.138672 A 3.0003 3.0003 0 1 0 26.595703 97.691406 L 28.148438 91.896484 A 3.0003 3.0003 0 0 0 25.101562 88.082031 z "
     id="path2987-3-5-1-7-9-9" /></svg>