<?xml version="1.0" encoding="UTF-8" standalone="no"?>
<!-- Generator: Adobe Illustrator 16.0.0, SVG Export Plug-In . SVG Version: 6.00 Build 0)  -->

<svg
   xmlns:dc="http://purl.org/dc/elements/1.1/"
   xmlns:cc="http://creativecommons.org/ns#"
   xmlns:rdf="http://www.w3.org/1999/02/22-rdf-syntax-ns#"
   xmlns:svg="http://www.w3.org/2000/svg"
   xmlns="http://www.w3.org/2000/svg"
   xmlns:sodipodi="http://sodipodi.sourceforge.net/DTD/sodipodi-0.dtd"
   xmlns:inkscape="http://www.inkscape.org/namespaces/inkscape"
   version="1.1"
   id="Layer_1"
   x="0px"
   y="0px"
   width="100px"
   height="100px"
   viewBox="0 0 100 100"
   enable-background="new 0 0 100 100"
   xml:space="preserve"
   inkscape:version="0.91 r13725"
   sodipodi:docname="c-cs-xx-r.svg"><metadata
     id="metadata53"><rdf:RDF><cc:Work
         rdf:about=""><dc:format>image/svg+xml</dc:format><dc:type
           rdf:resource="http://purl.org/dc/dcmitype/StillImage" /></cc:Work></rdf:RDF></metadata><defs
     id="defs51" /><sodipodi:namedview
     pagecolor="#ffffff"
     bordercolor="#666666"
     borderopacity="1"
     objecttolerance="10"
     gridtolerance="10"
     guidetolerance="10"
     inkscape:pageopacity="0"
     inkscape:pageshadow="2"
     inkscape:window-width="1366"
     inkscape:window-height="719"
     id="namedview49"
     showgrid="true"
     inkscape:zoom="2.8284271"
     inkscape:cx="-1.3728732"
     inkscape:cy="37.655346"
     inkscape:window-x="0"
     inkscape:window-y="25"
     inkscape:window-maximized="1"
     inkscape:current-layer="Layer_1"><inkscape:grid
       type="xygrid"
       id="grid4181" /></sodipodi:namedview><path
     style="color:#000000;font-style:normal;font-variant:normal;font-weight:normal;font-stretch:normal;font-size:medium;line-height:normal;font-family:sans-serif;text-indent:0;text-align:start;text-decoration:none;text-decoration-line:none;text-decoration-style:solid;text-decoration-color:#000000;letter-spacing:normal;word-spacing:normal;text-transform:none;direction:ltr;block-progression:tb;writing-mode:lr-tb;baseline-shift:baseline;text-anchor:start;white-space:normal;clip-rule:nonzero;display:inline;overflow:visible;visibility:visible;opacity:1;isolation:auto;mix-blend-mode:normal;color-interpolation:sRGB;color-interpolation-filters:linearRGB;solid-color:#000000;solid-opacity:1;fill:#0277bd;fill-opacity:1;fill-rule:nonzero;stroke:none;stroke-width:6;stroke-linecap:round;stroke-linejoin:miter;stroke-miterlimit:4;stroke-dasharray:none;stroke-dashoffset:0;stroke-opacity:1;color-rendering:auto;image-rendering:auto;shape-rendering:auto;text-rendering:auto;enable-background:accumulate"
     d="M 28.556641 39.904297 A 3.0003 3.0003 0 0 0 25.806641 42.166016 L 24.253906 47.960938 A 3.0003 3.0003 0 1 0 30.048828 49.513672 L 31.601562 43.71875 A 3.0003 3.0003 0 0 0 28.556641 39.904297 z M 50.267578 49.560547 A 3.0003 3.0003 0 0 0 47.21875 51.822266 L 45.666016 57.617188 A 3.0003 3.0003 0 1 0 51.460938 59.171875 L 53.013672 53.375 A 3.0003 3.0003 0 0 0 50.267578 49.560547 z M 35.380859 59.21875 A 3.0003 3.0003 0 0 0 32.630859 61.480469 L 31.078125 67.275391 A 3.0003 3.0003 0 1 0 36.873047 68.828125 L 38.425781 63.033203 A 3.0003 3.0003 0 0 0 35.380859 59.21875 z M 20.791016 68.882812 A 3.0003 3.0003 0 0 0 18.041016 71.144531 L 16.488281 76.939453 A 3.0003 3.0003 0 1 0 22.283203 78.492188 L 23.835938 72.697266 A 3.0003 3.0003 0 0 0 20.791016 68.882812 z M 42.189453 78.527344 A 3.0003 3.0003 0 0 0 39.439453 80.789062 L 37.886719 86.583984 A 3.0003 3.0003 0 1 0 43.681641 88.136719 L 45.236328 82.341797 A 3.0003 3.0003 0 0 0 42.189453 78.527344 z M 27.580078 88.183594 A 3.0003 3.0003 0 0 0 24.830078 90.445312 L 23.277344 96.240234 A 3.0003 3.0003 0 1 0 29.072266 97.792969 L 30.625 91.998047 A 3.0003 3.0003 0 0 0 27.580078 88.183594 z "
     id="path2987-3-5-1-7-9-9" /></svg>