<?xml version="1.0" encoding="UTF-8" standalone="no"?>
<!-- Generator: Adobe Illustrator 16.0.0, SVG Export Plug-In . SVG Version: 6.00 Build 0)  -->

<svg
   xmlns:dc="http://purl.org/dc/elements/1.1/"
   xmlns:cc="http://creativecommons.org/ns#"
   xmlns:rdf="http://www.w3.org/1999/02/22-rdf-syntax-ns#"
   xmlns:svg="http://www.w3.org/2000/svg"
   xmlns="http://www.w3.org/2000/svg"
   xmlns:sodipodi="http://sodipodi.sourceforge.net/DTD/sodipodi-0.dtd"
   xmlns:inkscape="http://www.inkscape.org/namespaces/inkscape"
   version="1.1"
   id="Layer_1"
   x="0px"
   y="0px"
   width="100px"
   height="100px"
   viewBox="0 0 100 100"
   enable-background="new 0 0 100 100"
   xml:space="preserve"
   inkscape:version="0.91 r13725"
   sodipodi:docname="c-cs-x-rs.svg"><metadata
     id="metadata53"><rdf:RDF><cc:Work
         rdf:about=""><dc:format>image/svg+xml</dc:format><dc:type
           rdf:resource="http://purl.org/dc/dcmitype/StillImage" /></cc:Work></rdf:RDF></metadata><defs
     id="defs51" /><sodipodi:namedview
     pagecolor="#ffffff"
     bordercolor="#666666"
     borderopacity="1"
     objecttolerance="10"
     gridtolerance="10"
     guidetolerance="10"
     inkscape:pageopacity="0"
     inkscape:pageshadow="2"
     inkscape:window-width="1366"
     inkscape:window-height="719"
     id="namedview49"
     showgrid="true"
     inkscape:zoom="5.6568544"
     inkscape:cx="45.795199"
     inkscape:cy="19.8511"
     inkscape:window-x="0"
     inkscape:window-y="25"
     inkscape:window-maximized="1"
     inkscape:current-layer="Layer_1"><inkscape:grid
       type="xygrid"
       id="grid4181" /></sodipodi:namedview><path
     style="color:#000000;font-style:normal;font-variant:normal;font-weight:normal;font-stretch:normal;font-size:medium;line-height:normal;font-family:sans-serif;text-indent:0;text-align:start;text-decoration:none;text-decoration-line:none;text-decoration-style:solid;text-decoration-color:#000000;letter-spacing:normal;word-spacing:normal;text-transform:none;direction:ltr;block-progression:tb;writing-mode:lr-tb;baseline-shift:baseline;text-anchor:start;white-space:normal;clip-rule:nonzero;display:inline;overflow:visible;visibility:visible;opacity:1;isolation:auto;mix-blend-mode:normal;color-interpolation:sRGB;color-interpolation-filters:linearRGB;solid-color:#000000;solid-opacity:1;fill:#0277bd;fill-opacity:1;fill-rule:nonzero;stroke:none;stroke-width:6;stroke-linecap:round;stroke-linejoin:miter;stroke-miterlimit:4;stroke-dasharray:none;stroke-dashoffset:0;stroke-opacity:1;color-rendering:auto;image-rendering:auto;shape-rendering:auto;text-rendering:auto;enable-background:accumulate"
     d="M 25.625 39.828125 A 3.0003 3.0003 0 0 0 22.875 42.089844 L 21.322266 47.884766 A 3.0003 3.0003 0 1 0 27.117188 49.4375 L 28.669922 43.642578 A 3.0003 3.0003 0 0 0 25.625 39.828125 z M 47.035156 49.484375 A 3.0003 3.0003 0 0 0 44.287109 51.746094 L 42.734375 57.541016 A 3.0003 3.0003 0 1 0 48.529297 59.09375 L 50.082031 53.298828 A 3.0003 3.0003 0 0 0 47.035156 49.484375 z M 17.859375 68.806641 A 3.0003 3.0003 0 0 0 15.109375 71.068359 L 13.556641 76.863281 A 3.0003 3.0003 0 1 0 19.351562 78.416016 L 20.904297 72.621094 A 3.0003 3.0003 0 0 0 17.859375 68.806641 z M 24.648438 88.107422 A 3.0003 3.0003 0 0 0 21.898438 90.369141 L 20.345703 96.164062 A 3.0003 3.0003 0 1 0 26.140625 97.716797 L 27.693359 91.921875 A 3.0003 3.0003 0 0 0 24.648438 88.107422 z "
     id="path4874" /><path
     style="fill:#aaaaaa;fill-opacity:1;stroke:none"
     d="M 28.994141 39.5 L 28.994141 42.017578 L 26.775391 40.746094 L 26.775391 42.404297 L 28.994141 43.675781 L 28.994141 46.927734 L 26.115234 45.283203 L 26.214844 42.865234 L 24.755859 42.017578 L 24.65625 44.447266 L 22.537109 43.201172 L 21.740234 44.623047 L 23.921875 45.880859 L 21.689453 47.177734 L 23.173828 48.048828 L 25.392578 46.740234 L 28.183594 48.373047 L 25.392578 50.005859 L 23.173828 48.710938 L 21.689453 49.582031 L 23.921875 50.878906 L 21.740234 52.125 L 22.5625 53.558594 L 24.65625 52.337891 L 24.755859 54.730469 L 26.214844 53.894531 L 26.115234 51.464844 L 28.994141 49.832031 L 28.994141 53.072266 L 26.775391 54.355469 L 26.775391 56.013672 L 28.994141 54.730469 L 28.994141 57.259766 L 30.675781 57.259766 L 30.675781 54.730469 L 32.894531 56.013672 L 32.894531 54.355469 L 30.675781 53.072266 L 30.675781 49.832031 L 33.59375 51.464844 L 33.494141 53.894531 L 34.914062 54.730469 L 35.013672 52.337891 L 37.132812 53.558594 L 37.955078 52.125 L 35.761719 50.878906 L 37.980469 49.582031 L 36.496094 48.710938 L 34.279297 50.005859 L 31.5 48.373047 L 34.279297 46.740234 L 36.496094 48.048828 L 37.980469 47.177734 L 35.761719 45.880859 L 37.955078 44.623047 L 37.132812 43.201172 L 35.013672 44.447266 L 34.914062 42.017578 L 33.494141 42.865234 L 33.59375 45.283203 L 30.675781 46.927734 L 30.675781 43.675781 L 32.894531 42.404297 L 32.894531 40.746094 L 30.675781 42.017578 L 30.675781 39.5 L 28.994141 39.5 z M 48.685547 62.443359 L 48.082031 63.490234 L 49.019531 65.099609 L 47.833984 67.154297 L 46.615234 65.066406 L 47.560547 63.576172 L 46.947266 62.509766 L 46 64.007812 L 45.115234 62.449219 L 44.09375 63.054688 L 45.011719 64.644531 L 43.130859 64.648438 L 43.75 65.740234 L 45.626953 65.722656 L 46.794922 67.771484 L 44.4375 67.785156 L 43.509766 66.158203 L 42.255859 66.167969 L 43.191406 67.798828 L 41.359375 67.791016 L 41.357422 68.996094 L 43.123047 68.988281 L 42.314453 70.535156 L 43.539062 70.539062 L 44.361328 68.96875 L 46.775391 68.988281 L 45.59375 71.033203 L 43.724609 71.035156 L 43.121094 72.082031 L 44.990234 72.080078 L 44.068359 73.677734 L 45.128906 74.291016 L 46.052734 72.693359 L 46.984375 74.3125 L 47.587891 73.265625 L 46.65625 71.646484 L 47.837891 69.601562 L 49.083984 71.695312 L 48.134766 73.193359 L 48.726562 74.238281 L 49.662109 72.763672 L 50.554688 74.306641 L 51.597656 73.701172 L 50.666016 72.115234 L 52.539062 72.105469 L 51.919922 71.013672 L 50.046875 71.023438 L 48.888672 68.980469 L 51.238281 68.962891 L 52.162109 70.597656 L 53.416016 70.587891 L 52.488281 68.960938 L 54.332031 68.964844 L 54.330078 67.767578 L 52.539062 67.783203 L 53.361328 66.210938 L 52.154297 66.228516 L 51.335938 67.791016 L 48.896484 67.767578 L 50.082031 65.712891 L 51.945312 65.71875 L 52.548828 64.673828 L 50.685547 64.667969 L 51.603516 63.078125 L 50.541016 62.464844 L 49.623047 64.054688 L 48.685547 62.443359 z M 24.449219 69.892578 L 23.490234 70.148438 L 23.875 71.583984 L 22.416016 71.199219 L 22.667969 72.144531 L 24.128906 72.53125 L 24.625 74.386719 L 22.732422 73.886719 L 22.419922 72.492188 L 21.457031 72.232422 L 21.773438 73.634766 L 20.373047 73.246094 L 20.136719 74.179688 L 21.572266 74.564453 L 20.498047 75.644531 L 21.476562 75.916016 L 22.542969 74.830078 L 24.384766 75.333984 L 23.041016 76.691406 L 21.578125 76.291016 L 20.865234 77.015625 L 22.335938 77.414062 L 21.283203 78.458984 L 21.970703 79.150391 L 22.978516 78.134766 L 23.400391 79.484375 L 24.105469 78.785156 L 23.675781 77.414062 L 25.068359 76.042969 L 25.564453 77.890625 L 24.496094 78.960938 L 24.748047 79.90625 L 25.818359 78.835938 L 26.205078 80.279297 L 27.164062 80.021484 L 26.777344 78.578125 L 28.238281 78.972656 L 27.986328 78.027344 L 26.523438 77.632812 L 26.029297 75.785156 L 27.941406 76.269531 L 28.255859 77.671875 L 29.195312 77.931641 L 28.884766 76.550781 L 30.28125 76.923828 L 30.53125 75.980469 L 29.089844 75.605469 L 30.15625 74.527344 L 29.177734 74.255859 L 28.109375 75.333984 L 26.275391 74.828125 L 27.611328 73.470703 L 29.076172 73.878906 L 29.789062 73.154297 L 28.326172 72.753906 L 29.384766 71.701172 L 28.697266 71.015625 L 27.679688 72.050781 L 27.251953 70.679688 L 26.570312 71.380859 L 26.998047 72.744141 L 25.585938 74.128906 L 25.087891 72.273438 L 26.158203 71.208984 L 25.90625 70.263672 L 24.833984 71.328125 L 24.449219 69.892578 z M 39.880859 85.181641 L 39.40625 86.955078 L 38.083984 85.640625 L 37.771484 86.808594 L 39.09375 88.121094 L 38.480469 90.412109 L 36.761719 88.710938 L 37.289062 87.027344 L 36.421875 86.154297 L 35.892578 87.847656 L 34.636719 86.570312 L 33.806641 87.419922 L 35.105469 88.71875 L 33.289062 89.208984 L 34.169922 90.103516 L 35.978516 89.601562 L 37.636719 91.277344 L 35.363281 91.900391 L 34.044922 90.568359 L 32.835938 90.904297 L 34.162109 92.236328 L 32.390625 92.703125 L 32.699219 93.867188 L 34.404297 93.402344 L 34.023438 95.107422 L 35.207031 94.792969 L 35.595703 93.064453 L 37.931641 92.457031 L 37.320312 94.738281 L 35.515625 95.224609 L 35.203125 96.390625 L 37.007812 95.90625 L 36.529297 97.6875 L 37.714844 98.005859 L 38.191406 96.222656 L 39.511719 97.546875 L 39.824219 96.378906 L 38.505859 95.056641 L 39.117188 92.775391 L 40.861328 94.474609 L 40.333984 96.167969 L 41.175781 97.023438 L 41.697266 95.357422 L 42.958984 96.617188 L 43.808594 95.761719 L 42.5 94.470703 L 44.306641 93.976562 L 43.425781 93.082031 L 41.619141 93.576172 L 39.970703 91.902344 L 42.236328 91.277344 L 43.550781 92.617188 L 44.759766 92.283203 L 43.443359 90.951172 L 45.224609 90.478516 L 44.914062 89.324219 L 43.185547 89.800781 L 43.574219 88.072266 L 42.414062 88.400391 L 42.029297 90.121094 L 39.664062 90.730469 L 40.277344 88.439453 L 42.080078 87.962891 L 42.392578 86.794922 L 40.591797 87.271484 L 41.066406 85.498047 L 39.880859 85.181641 z "
     id="path4998" /></svg>