<?xml version="1.0" encoding="UTF-8" standalone="no"?>
<!-- Generator: Adobe Illustrator 16.0.0, SVG Export Plug-In . SVG Version: 6.00 Build 0)  -->

<svg
   xmlns:dc="http://purl.org/dc/elements/1.1/"
   xmlns:cc="http://creativecommons.org/ns#"
   xmlns:rdf="http://www.w3.org/1999/02/22-rdf-syntax-ns#"
   xmlns:svg="http://www.w3.org/2000/svg"
   xmlns="http://www.w3.org/2000/svg"
   xmlns:sodipodi="http://sodipodi.sourceforge.net/DTD/sodipodi-0.dtd"
   xmlns:inkscape="http://www.inkscape.org/namespaces/inkscape"
   version="1.1"
   id="Layer_1"
   x="0px"
   y="0px"
   width="100px"
   height="100px"
   viewBox="0 0 100 100"
   enable-background="new 0 0 100 100"
   xml:space="preserve"
   inkscape:version="0.91 r13725"
   sodipodi:docname="c-cs-xx-s.svg"><metadata
     id="metadata53"><rdf:RDF><cc:Work
         rdf:about=""><dc:format>image/svg+xml</dc:format><dc:type
           rdf:resource="http://purl.org/dc/dcmitype/StillImage" /></cc:Work></rdf:RDF></metadata><defs
     id="defs51" /><sodipodi:namedview
     pagecolor="#ffffff"
     bordercolor="#666666"
     borderopacity="1"
     objecttolerance="10"
     gridtolerance="10"
     guidetolerance="10"
     inkscape:pageopacity="0"
     inkscape:pageshadow="2"
     inkscape:window-width="1366"
     inkscape:window-height="719"
     id="namedview49"
     showgrid="true"
     inkscape:zoom="2"
     inkscape:cx="-88.258689"
     inkscape:cy="58.081668"
     inkscape:window-x="0"
     inkscape:window-y="25"
     inkscape:window-maximized="1"
     inkscape:current-layer="Layer_1"><inkscape:grid
       type="xygrid"
       id="grid4181" /></sodipodi:namedview><path
     style="fill:#aaaaaa;fill-opacity:1;stroke:none"
     d="M 26.878906 39.570312 L 26.878906 42.087891 L 24.660156 40.816406 L 24.660156 42.472656 L 26.878906 43.744141 L 26.878906 46.998047 L 24 45.351562 L 24.099609 42.933594 L 22.642578 42.087891 L 22.542969 44.517578 L 20.423828 43.271484 L 19.625 44.691406 L 21.806641 45.951172 L 19.576172 47.246094 L 21.058594 48.119141 L 23.277344 46.810547 L 26.068359 48.443359 L 23.277344 50.076172 L 21.058594 48.779297 L 19.576172 49.652344 L 21.806641 50.949219 L 19.625 52.195312 L 20.447266 53.628906 L 22.542969 52.40625 L 22.642578 54.798828 L 24.099609 53.964844 L 24 51.535156 L 26.878906 49.902344 L 26.878906 53.142578 L 24.660156 54.425781 L 24.660156 56.083984 L 26.878906 54.798828 L 26.878906 57.330078 L 28.5625 57.330078 L 28.5625 54.798828 L 30.78125 56.083984 L 30.78125 54.425781 L 28.5625 53.142578 L 28.5625 49.902344 L 31.478516 51.535156 L 31.378906 53.964844 L 32.798828 54.798828 L 32.898438 52.40625 L 35.017578 53.628906 L 35.839844 52.195312 L 33.646484 50.949219 L 35.865234 49.652344 L 34.382812 48.779297 L 32.164062 50.076172 L 29.384766 48.443359 L 32.164062 46.810547 L 34.382812 48.119141 L 35.865234 47.246094 L 33.646484 45.951172 L 35.839844 44.691406 L 35.017578 43.271484 L 32.898438 44.517578 L 32.798828 42.087891 L 31.378906 42.933594 L 31.478516 45.351562 L 28.5625 46.998047 L 28.5625 43.744141 L 30.78125 42.472656 L 30.78125 40.816406 L 28.5625 42.087891 L 28.5625 39.570312 L 26.878906 39.570312 z M 64.804688 42.037109 L 64.328125 43.810547 L 63.005859 42.496094 L 62.693359 43.664062 L 64.015625 44.978516 L 63.402344 47.267578 L 61.685547 45.566406 L 62.210938 43.882812 L 61.345703 43.011719 L 60.816406 44.703125 L 59.558594 43.425781 L 58.728516 44.275391 L 60.027344 45.574219 L 58.212891 46.066406 L 59.091797 46.960938 L 60.900391 46.457031 L 62.558594 48.132812 L 60.285156 48.755859 L 58.966797 47.425781 L 57.757812 47.759766 L 59.083984 49.09375 L 57.314453 49.558594 L 57.623047 50.724609 L 59.328125 50.259766 L 58.945312 51.962891 L 60.130859 51.650391 L 60.519531 49.919922 L 62.853516 49.3125 L 62.242188 51.595703 L 60.4375 52.080078 L 60.125 53.248047 L 61.929688 52.761719 L 61.453125 54.544922 L 62.636719 54.861328 L 63.115234 53.080078 L 64.435547 54.402344 L 64.748047 53.234375 L 63.427734 51.912109 L 64.039062 49.630859 L 65.785156 51.330078 L 65.255859 53.023438 L 66.099609 53.878906 L 66.621094 52.212891 L 67.882812 53.472656 L 68.732422 52.619141 L 67.421875 51.328125 L 69.228516 50.833984 L 68.349609 49.939453 L 66.542969 50.433594 L 64.892578 48.759766 L 67.158203 48.134766 L 68.474609 49.474609 L 69.683594 49.138672 L 68.365234 47.808594 L 70.146484 47.335938 L 69.835938 46.179688 L 68.109375 46.658203 L 68.498047 44.927734 L 67.337891 45.255859 L 66.951172 46.978516 L 64.587891 47.585938 L 65.201172 45.294922 L 67.001953 44.818359 L 67.316406 43.652344 L 65.513672 44.128906 L 65.988281 42.355469 L 64.804688 42.037109 z M 44.869141 62.517578 L 43.933594 64.128906 L 43.015625 62.539062 L 41.953125 63.152344 L 42.871094 64.742188 L 41.005859 64.748047 L 41.611328 65.792969 L 43.474609 65.787109 L 44.660156 67.841797 L 42.244141 67.851562 L 41.423828 66.289062 L 40.195312 66.285156 L 41.017578 67.857422 L 39.226562 67.841797 L 39.240234 69.029297 L 41.076172 69.029297 L 40.140625 70.662109 L 41.394531 70.671875 L 42.318359 69.037109 L 44.675781 69.048828 L 43.507812 71.097656 L 41.634766 71.087891 L 41.017578 72.179688 L 42.898438 72.185547 L 41.974609 73.767578 L 43.017578 74.371094 L 43.894531 72.837891 L 44.828125 74.3125 L 45.445312 73.253906 L 44.496094 71.755859 L 45.71875 69.675781 L 46.900391 71.720703 L 45.966797 73.339844 L 46.572266 74.386719 L 47.503906 72.767578 L 48.425781 74.365234 L 49.488281 73.751953 L 48.566406 72.154297 L 50.435547 72.15625 L 49.830078 71.109375 L 47.962891 71.107422 L 46.78125 69.0625 L 49.216797 69.029297 L 50.041016 70.599609 L 51.242188 70.609375 L 50.433594 69.0625 L 52.214844 69.060547 L 52.212891 67.855469 L 50.373047 67.869141 L 51.300781 66.242188 L 50.046875 66.232422 L 49.119141 67.859375 L 46.769531 67.841797 L 47.927734 65.796875 L 49.806641 65.814453 L 50.423828 64.722656 L 48.550781 64.712891 L 49.478516 63.119141 L 48.439453 62.521484 L 47.556641 64.082031 L 46.607422 62.583984 L 46.019531 63.636719 L 46.964844 65.126953 L 45.722656 67.228516 L 44.537109 65.173828 L 45.474609 63.5625 L 44.869141 62.517578 z M 22.335938 69.960938 L 21.375 70.21875 L 21.759766 71.654297 L 20.300781 71.267578 L 20.554688 72.214844 L 22.013672 72.599609 L 22.511719 74.455078 L 20.617188 73.957031 L 20.304688 72.5625 L 19.34375 72.302734 L 19.658203 73.703125 L 18.259766 73.316406 L 18.021484 74.248047 L 19.457031 74.632812 L 18.382812 75.712891 L 19.363281 75.984375 L 20.427734 74.898438 L 22.269531 75.404297 L 20.927734 76.761719 L 19.462891 76.361328 L 18.75 77.085938 L 20.220703 77.484375 L 19.167969 78.529297 L 19.855469 79.220703 L 20.863281 78.203125 L 21.287109 79.552734 L 21.990234 78.853516 L 21.5625 77.482422 L 22.955078 76.111328 L 23.449219 77.960938 L 22.380859 79.03125 L 22.634766 79.976562 L 23.703125 78.90625 L 24.089844 80.347656 L 25.048828 80.091797 L 24.662109 78.648438 L 26.125 79.041016 L 25.871094 78.095703 L 24.410156 77.703125 L 23.914062 75.855469 L 25.828125 76.339844 L 26.142578 77.742188 L 27.080078 78 L 26.771484 76.621094 L 28.166016 76.994141 L 28.416016 76.050781 L 26.974609 75.673828 L 28.042969 74.595703 L 27.0625 74.326172 L 25.996094 75.404297 L 24.160156 74.896484 L 25.496094 73.541016 L 26.960938 73.949219 L 27.673828 73.224609 L 26.210938 72.824219 L 27.269531 71.771484 L 26.583984 71.085938 L 25.566406 72.121094 L 25.136719 70.75 L 24.457031 71.451172 L 24.882812 72.814453 L 23.470703 74.199219 L 22.972656 72.34375 L 24.044922 71.279297 L 23.791016 70.333984 L 22.720703 71.396484 L 22.335938 69.960938 z M 58.335938 77.960938 L 57.375 78.21875 L 57.759766 79.654297 L 56.300781 79.267578 L 56.554688 80.214844 L 58.013672 80.599609 L 58.511719 82.455078 L 56.617188 81.957031 L 56.304688 80.5625 L 55.34375 80.302734 L 55.658203 81.703125 L 54.259766 81.316406 L 54.021484 82.248047 L 55.457031 82.632812 L 54.382812 83.712891 L 55.363281 83.984375 L 56.427734 82.898438 L 58.269531 83.404297 L 56.927734 84.761719 L 55.462891 84.361328 L 54.75 85.085938 L 56.220703 85.484375 L 55.167969 86.529297 L 55.855469 87.220703 L 56.863281 86.203125 L 57.287109 87.552734 L 57.990234 86.853516 L 57.5625 85.482422 L 58.955078 84.111328 L 59.449219 85.960938 L 58.380859 87.03125 L 58.634766 87.976562 L 59.703125 86.90625 L 60.089844 88.347656 L 61.048828 88.091797 L 60.662109 86.648438 L 62.125 87.041016 L 61.871094 86.095703 L 60.410156 85.703125 L 59.914062 83.855469 L 61.828125 84.339844 L 62.142578 85.742188 L 63.080078 86 L 62.771484 84.621094 L 64.166016 84.994141 L 64.416016 84.050781 L 62.974609 83.673828 L 64.042969 82.595703 L 63.0625 82.326172 L 61.996094 83.404297 L 60.160156 82.896484 L 61.496094 81.541016 L 62.960938 81.949219 L 63.673828 81.224609 L 62.210938 80.824219 L 63.269531 79.771484 L 62.583984 79.085938 L 61.566406 80.121094 L 61.136719 78.75 L 60.457031 79.451172 L 60.882812 80.814453 L 59.470703 82.199219 L 58.972656 80.34375 L 60.044922 79.279297 L 59.791016 78.333984 L 58.720703 79.396484 L 58.335938 77.960938 z M 37.767578 85.251953 L 37.291016 87.023438 L 35.96875 85.710938 L 35.65625 86.876953 L 36.978516 88.191406 L 36.365234 90.482422 L 34.648438 88.779297 L 35.173828 87.095703 L 34.308594 86.224609 L 33.779297 87.917969 L 32.521484 86.638672 L 31.691406 87.490234 L 32.990234 88.787109 L 31.175781 89.279297 L 32.054688 90.173828 L 33.863281 89.669922 L 35.521484 91.347656 L 33.248047 91.970703 L 31.929688 90.638672 L 30.720703 90.972656 L 32.046875 92.306641 L 30.277344 92.773438 L 30.585938 93.9375 L 32.291016 93.472656 L 31.908203 95.175781 L 33.09375 94.863281 L 33.482422 93.132812 L 35.816406 92.527344 L 35.205078 94.808594 L 33.400391 95.292969 L 33.087891 96.460938 L 34.892578 95.976562 L 34.416016 97.757812 L 35.599609 98.074219 L 36.078125 96.292969 L 37.398438 97.615234 L 37.710938 96.449219 L 36.390625 95.126953 L 37.001953 92.84375 L 38.748047 94.544922 L 38.21875 96.236328 L 39.0625 97.09375 L 39.583984 95.425781 L 40.845703 96.685547 L 41.695312 95.832031 L 40.384766 94.541016 L 42.191406 94.046875 L 41.3125 93.152344 L 39.505859 93.646484 L 37.855469 91.972656 L 40.121094 91.347656 L 41.4375 92.6875 L 42.646484 92.353516 L 41.328125 91.021484 L 43.109375 90.548828 L 42.798828 89.392578 L 41.072266 89.871094 L 41.460938 88.140625 L 40.300781 88.46875 L 39.914062 90.191406 L 37.550781 90.798828 L 38.164062 88.507812 L 39.964844 88.03125 L 40.279297 86.865234 L 38.476562 87.341797 L 38.951172 85.568359 L 37.767578 85.251953 z "
     id="path4553" /></svg>