<?xml version="1.0" encoding="UTF-8" standalone="no"?>
<!-- Generator: Adobe Illustrator 16.0.0, SVG Export Plug-In . SVG Version: 6.00 Build 0)  -->

<svg
   xmlns:dc="http://purl.org/dc/elements/1.1/"
   xmlns:cc="http://creativecommons.org/ns#"
   xmlns:rdf="http://www.w3.org/1999/02/22-rdf-syntax-ns#"
   xmlns:svg="http://www.w3.org/2000/svg"
   xmlns="http://www.w3.org/2000/svg"
   xmlns:sodipodi="http://sodipodi.sourceforge.net/DTD/sodipodi-0.dtd"
   xmlns:inkscape="http://www.inkscape.org/namespaces/inkscape"
   version="1.1"
   id="Layer_1"
   x="0px"
   y="0px"
   width="100px"
   height="100px"
   viewBox="0 0 100 100"
   enable-background="new 0 0 100 100"
   xml:space="preserve"
   inkscape:version="0.91 r13725"
   sodipodi:docname="c-cs-x-s.svg"><metadata
     id="metadata53"><rdf:RDF><cc:Work
         rdf:about=""><dc:format>image/svg+xml</dc:format><dc:type
           rdf:resource="http://purl.org/dc/dcmitype/StillImage" /></cc:Work></rdf:RDF></metadata><defs
     id="defs51" /><sodipodi:namedview
     pagecolor="#ffffff"
     bordercolor="#666666"
     borderopacity="1"
     objecttolerance="10"
     gridtolerance="10"
     guidetolerance="10"
     inkscape:pageopacity="0"
     inkscape:pageshadow="2"
     inkscape:window-width="1366"
     inkscape:window-height="719"
     id="namedview49"
     showgrid="true"
     inkscape:zoom="2.8284271"
     inkscape:cx="-27.801933"
     inkscape:cy="33.280274"
     inkscape:window-x="0"
     inkscape:window-y="25"
     inkscape:window-maximized="1"
     inkscape:current-layer="Layer_1"><inkscape:grid
       type="xygrid"
       id="grid4181" /></sodipodi:namedview><path
     style="fill:#aaaaaa;fill-opacity:1;stroke:none"
     d="M 28.992188 39.498047 L 28.992188 42.015625 L 26.775391 40.744141 L 26.775391 42.400391 L 28.992188 43.671875 L 28.992188 46.925781 L 26.113281 45.28125 L 26.212891 42.863281 L 24.755859 42.015625 L 24.65625 44.445312 L 22.537109 43.199219 L 21.738281 44.619141 L 23.919922 45.878906 L 21.689453 47.175781 L 23.171875 48.046875 L 25.390625 46.738281 L 28.183594 48.371094 L 25.390625 50.003906 L 23.171875 48.707031 L 21.689453 49.580078 L 23.919922 50.876953 L 21.738281 52.123047 L 22.5625 53.556641 L 24.65625 52.333984 L 24.755859 54.728516 L 26.212891 53.892578 L 26.113281 51.462891 L 28.992188 49.830078 L 28.992188 53.070312 L 26.775391 54.353516 L 26.775391 56.011719 L 28.992188 54.728516 L 28.992188 57.257812 L 30.675781 57.257812 L 30.675781 54.728516 L 32.894531 56.011719 L 32.894531 54.353516 L 30.675781 53.070312 L 30.675781 49.830078 L 33.591797 51.462891 L 33.492188 53.892578 L 34.914062 54.728516 L 35.013672 52.333984 L 37.130859 53.556641 L 37.955078 52.123047 L 35.759766 50.876953 L 37.978516 49.580078 L 36.496094 48.707031 L 34.277344 50.003906 L 31.498047 48.371094 L 34.277344 46.738281 L 36.496094 48.046875 L 37.978516 47.175781 L 35.759766 45.878906 L 37.955078 44.619141 L 37.130859 43.199219 L 35.013672 44.445312 L 34.914062 42.015625 L 33.492188 42.863281 L 33.591797 45.28125 L 30.675781 46.925781 L 30.675781 43.671875 L 32.894531 42.400391 L 32.894531 40.744141 L 30.675781 42.015625 L 30.675781 39.498047 L 28.992188 39.498047 z M 48.685547 62.439453 L 48.082031 63.486328 L 49.017578 65.097656 L 47.832031 67.152344 L 46.615234 65.064453 L 47.558594 63.574219 L 46.947266 62.507812 L 45.998047 64.005859 L 45.115234 62.445312 L 44.09375 63.052734 L 45.011719 64.642578 L 43.130859 64.646484 L 43.75 65.738281 L 45.626953 65.720703 L 46.794922 67.769531 L 44.4375 67.783203 L 43.507812 66.15625 L 42.253906 66.166016 L 43.189453 67.796875 L 41.359375 67.789062 L 41.355469 68.994141 L 43.123047 68.986328 L 42.3125 70.533203 L 43.539062 70.537109 L 44.361328 68.966797 L 46.773438 68.984375 L 45.59375 71.03125 L 43.724609 71.033203 L 43.121094 72.080078 L 44.988281 72.078125 L 44.066406 73.675781 L 45.128906 74.289062 L 46.050781 72.691406 L 46.984375 74.310547 L 47.587891 73.263672 L 46.654297 71.644531 L 47.835938 69.597656 L 49.082031 71.691406 L 48.132812 73.189453 L 48.726562 74.236328 L 49.662109 72.761719 L 50.554688 74.304688 L 51.595703 73.699219 L 50.666016 72.113281 L 52.539062 72.103516 L 51.919922 71.011719 L 50.046875 71.021484 L 48.886719 68.978516 L 51.236328 68.958984 L 52.160156 70.595703 L 53.416016 70.583984 L 52.486328 68.957031 L 54.330078 68.962891 L 54.330078 67.765625 L 52.537109 67.779297 L 53.359375 66.208984 L 52.154297 66.226562 L 51.335938 67.789062 L 48.894531 67.765625 L 50.080078 65.710938 L 51.945312 65.716797 L 52.548828 64.669922 L 50.685547 64.664062 L 51.603516 63.076172 L 50.541016 62.462891 L 49.623047 64.050781 L 48.685547 62.439453 z M 24.449219 69.888672 L 23.490234 70.146484 L 23.875 71.582031 L 22.414062 71.197266 L 22.667969 72.142578 L 24.126953 72.527344 L 24.625 74.382812 L 22.730469 73.884766 L 22.417969 72.490234 L 21.457031 72.230469 L 21.771484 73.630859 L 20.373047 73.244141 L 20.134766 74.177734 L 21.570312 74.560547 L 20.496094 75.642578 L 21.476562 75.912109 L 22.541016 74.828125 L 24.382812 75.332031 L 23.041016 76.689453 L 21.576172 76.289062 L 20.865234 77.013672 L 22.335938 77.412109 L 21.28125 78.457031 L 21.970703 79.148438 L 22.976562 78.130859 L 23.400391 79.480469 L 24.103516 78.78125 L 23.675781 77.410156 L 25.068359 76.039062 L 25.564453 77.888672 L 24.494141 78.958984 L 24.748047 79.904297 L 25.816406 78.833984 L 26.203125 80.277344 L 27.164062 80.019531 L 26.777344 78.576172 L 28.238281 78.96875 L 27.984375 78.023438 L 26.523438 77.630859 L 26.027344 75.783203 L 27.941406 76.267578 L 28.255859 77.669922 L 29.193359 77.927734 L 28.884766 76.548828 L 30.279297 76.921875 L 30.529297 75.978516 L 29.087891 75.603516 L 30.15625 74.523438 L 29.175781 74.253906 L 28.109375 75.332031 L 26.273438 74.824219 L 27.609375 73.46875 L 29.076172 73.876953 L 29.789062 73.152344 L 28.324219 72.751953 L 29.382812 71.699219 L 28.697266 71.013672 L 27.679688 72.048828 L 27.25 70.677734 L 26.570312 71.378906 L 26.996094 72.742188 L 25.583984 74.126953 L 25.087891 72.271484 L 26.158203 71.207031 L 25.904297 70.261719 L 24.833984 71.326172 L 24.449219 69.888672 z M 39.880859 85.179688 L 39.404297 86.951172 L 38.082031 85.638672 L 37.769531 86.804688 L 39.091797 88.119141 L 38.478516 90.410156 L 36.761719 88.708984 L 37.289062 87.023438 L 36.421875 86.152344 L 35.892578 87.845703 L 34.634766 86.568359 L 33.806641 87.417969 L 35.103516 88.714844 L 33.289062 89.207031 L 34.167969 90.101562 L 35.978516 89.597656 L 37.634766 91.275391 L 35.361328 91.898438 L 34.042969 90.566406 L 32.833984 90.900391 L 34.162109 92.234375 L 32.390625 92.701172 L 32.699219 93.865234 L 34.404297 93.400391 L 34.023438 95.103516 L 35.207031 94.791016 L 35.595703 93.060547 L 37.931641 92.455078 L 37.320312 94.736328 L 35.515625 95.222656 L 35.203125 96.388672 L 37.005859 95.904297 L 36.529297 97.685547 L 37.714844 98.001953 L 38.191406 96.220703 L 39.511719 97.542969 L 39.824219 96.376953 L 38.503906 95.054688 L 39.115234 92.771484 L 40.861328 94.472656 L 40.332031 96.164062 L 41.175781 97.021484 L 41.697266 95.355469 L 42.958984 96.615234 L 43.808594 95.759766 L 42.498047 94.46875 L 44.304688 93.974609 L 43.425781 93.080078 L 41.619141 93.574219 L 39.970703 91.900391 L 42.234375 91.275391 L 43.550781 92.615234 L 44.759766 92.28125 L 43.441406 90.949219 L 45.224609 90.476562 L 44.912109 89.320312 L 43.185547 89.798828 L 43.574219 88.068359 L 42.414062 88.398438 L 42.027344 90.119141 L 39.664062 90.726562 L 40.277344 88.4375 L 42.080078 87.960938 L 42.392578 86.792969 L 40.589844 87.269531 L 41.064453 85.496094 L 39.880859 85.179688 z "
     id="path9-5-6-7-5" /></svg>