<?xml version="1.0" encoding="UTF-8" standalone="no"?>
<!-- Generator: Adobe Illustrator 16.0.0, SVG Export Plug-In . SVG Version: 6.00 Build 0)  -->

<svg
   xmlns:dc="http://purl.org/dc/elements/1.1/"
   xmlns:cc="http://creativecommons.org/ns#"
   xmlns:rdf="http://www.w3.org/1999/02/22-rdf-syntax-ns#"
   xmlns:svg="http://www.w3.org/2000/svg"
   xmlns="http://www.w3.org/2000/svg"
   xmlns:sodipodi="http://sodipodi.sourceforge.net/DTD/sodipodi-0.dtd"
   xmlns:inkscape="http://www.inkscape.org/namespaces/inkscape"
   version="1.1"
   id="Layer_1"
   x="0px"
   y="0px"
   width="100px"
   height="100px"
   viewBox="0 0 100 100"
   enable-background="new 0 0 100 100"
   xml:space="preserve"
   inkscape:version="0.91 r13725"
   sodipodi:docname="gmm-c-cu-xxx.svg"><metadata
     id="metadata53"><rdf:RDF><cc:Work
         rdf:about=""><dc:format>image/svg+xml</dc:format><dc:type
           rdf:resource="http://purl.org/dc/dcmitype/StillImage" /></cc:Work></rdf:RDF></metadata><defs
     id="defs51" /><sodipodi:namedview
     pagecolor="#ffffff"
     bordercolor="#666666"
     borderopacity="1"
     objecttolerance="10"
     gridtolerance="10"
     guidetolerance="10"
     inkscape:pageopacity="0"
     inkscape:pageshadow="2"
     inkscape:window-width="1366"
     inkscape:window-height="719"
     id="namedview49"
     showgrid="true"
     inkscape:zoom="2.8284271"
     inkscape:cx="87.756094"
     inkscape:cy="72.965414"
     inkscape:window-x="0"
     inkscape:window-y="25"
     inkscape:window-maximized="1"
     inkscape:current-layer="Layer_1"><inkscape:grid
       type="xygrid"
       id="grid4181" /></sodipodi:namedview><path
     inkscape:connector-curvature="0"
     id="_x30_4-8-3"
     style="fill:#ffffff;fill-opacity:1;stroke:#000000;stroke-width:1;stroke-miterlimit:4;stroke-dasharray:none;stroke-opacity:1"
     d="m 27.267251,73.091912 c -8.168,0 -14.7851,-6.625004 -14.7851,-14.787004 0,0 -0.076,-14.7735 15.4687,-14.7735 3.3594,-13.8419 16.3105,-14.5429 19.9433,-13.5664 3.9395,-3.92 10.4961,-6.7989 17.127,-6.7989 13.1446,0 23.9219,10.1661 24.8906,23.0664 4.3144,2.4864 7.2206,7.1367 7.2206,12.4707 0,7.9512 -6.4393,14.390704 -14.3846,14.390704 l -55.4805,0 z"
     sodipodi:nodetypes="ccccscsccc" /><path
     inkscape:connector-curvature="0"
     id="_x30_4-8-9"
     style="fill:#eeeeee;fill-opacity:1;stroke:#000000;stroke-width:1;stroke-miterlimit:4;stroke-dasharray:none;stroke-opacity:1"
     d="m 80.137551,74.179612 c 3.9206,0 7.0969,-3.18 7.0969,-7.097804 0,0 0.037,-7.0912 -7.425,-7.0912 -1.6125,-6.6441 -7.829,-6.9806 -9.5728,-6.5119 -1.891,-1.8816 -5.0381,-3.2635 -8.221,-3.2635 -6.3093,0 -11.4825,4.8798 -11.9475,11.0719 -2.0709,1.1935 -3.4659,3.4256 -3.4659,5.986 0,3.816504 3.0909,6.907504 6.9047,6.907504 l 26.6306,0 z"
     sodipodi:nodetypes="ccccscsccc" /></svg>