<?xml version="1.0" encoding="UTF-8" standalone="no"?>
<!-- Generator: Adobe Illustrator 16.0.0, SVG Export Plug-In . SVG Version: 6.00 Build 0)  -->

<svg
   xmlns:dc="http://purl.org/dc/elements/1.1/"
   xmlns:cc="http://creativecommons.org/ns#"
   xmlns:rdf="http://www.w3.org/1999/02/22-rdf-syntax-ns#"
   xmlns:svg="http://www.w3.org/2000/svg"
   xmlns="http://www.w3.org/2000/svg"
   xmlns:sodipodi="http://sodipodi.sourceforge.net/DTD/sodipodi-0.dtd"
   xmlns:inkscape="http://www.inkscape.org/namespaces/inkscape"
   version="1.1"
   id="Layer_1"
   x="0px"
   y="0px"
   width="100px"
   height="100px"
   viewBox="0 0 100 100"
   enable-background="new 0 0 100 100"
   xml:space="preserve"
   inkscape:version="0.91 r13725"
   sodipodi:docname="c-ns-xx-r.svg"><metadata
     id="metadata53"><rdf:RDF><cc:Work
         rdf:about=""><dc:format>image/svg+xml</dc:format><dc:type
           rdf:resource="http://purl.org/dc/dcmitype/StillImage" /></cc:Work></rdf:RDF></metadata><defs
     id="defs51" /><sodipodi:namedview
     pagecolor="#ffffff"
     bordercolor="#666666"
     borderopacity="1"
     objecttolerance="10"
     gridtolerance="10"
     guidetolerance="10"
     inkscape:pageopacity="0"
     inkscape:pageshadow="2"
     inkscape:window-width="1366"
     inkscape:window-height="719"
     id="namedview49"
     showgrid="true"
     inkscape:zoom="4"
     inkscape:cx="-29.564812"
     inkscape:cy="38.992952"
     inkscape:window-x="0"
     inkscape:window-y="25"
     inkscape:window-maximized="1"
     inkscape:current-layer="Layer_1"><inkscape:grid
       type="xygrid"
       id="grid4181" /></sodipodi:namedview><path
     style="color:#000000;font-style:normal;font-variant:normal;font-weight:normal;font-stretch:normal;font-size:medium;line-height:normal;font-family:sans-serif;text-indent:0;text-align:start;text-decoration:none;text-decoration-line:none;text-decoration-style:solid;text-decoration-color:#000000;letter-spacing:normal;word-spacing:normal;text-transform:none;direction:ltr;block-progression:tb;writing-mode:lr-tb;baseline-shift:baseline;text-anchor:start;white-space:normal;clip-rule:nonzero;display:inline;overflow:visible;visibility:visible;opacity:1;isolation:auto;mix-blend-mode:normal;color-interpolation:sRGB;color-interpolation-filters:linearRGB;solid-color:#000000;solid-opacity:1;fill:#0277bd;fill-opacity:1;fill-rule:nonzero;stroke:none;stroke-width:6;stroke-linecap:round;stroke-linejoin:miter;stroke-miterlimit:4;stroke-dasharray:none;stroke-dashoffset:0;stroke-opacity:1;color-rendering:auto;image-rendering:auto;shape-rendering:auto;text-rendering:auto;enable-background:accumulate"
     d="M 19.203125 82.488281 A 3.0003 3.0003 0 0 0 16.154297 84.75 L 13.048828 96.341797 A 3.0003 3.0003 0 1 0 18.84375 97.894531 L 21.951172 86.302734 A 3.0003 3.0003 0 0 0 19.203125 82.488281 z M 31.203125 82.488281 A 3.0003 3.0003 0 0 0 28.154297 84.75 L 25.048828 96.341797 A 3.0003 3.0003 0 1 0 30.84375 97.894531 L 33.951172 86.302734 A 3.0003 3.0003 0 0 0 31.203125 82.488281 z M 43.203125 82.488281 A 3.0003 3.0003 0 0 0 40.154297 84.75 L 37.048828 96.341797 A 3.0003 3.0003 0 1 0 42.84375 97.894531 L 45.951172 86.302734 A 3.0003 3.0003 0 0 0 43.203125 82.488281 z M 55.203125 82.488281 A 3.0003 3.0003 0 0 0 52.154297 84.75 L 49.048828 96.341797 A 3.0003 3.0003 0 1 0 54.84375 97.894531 L 57.951172 86.302734 A 3.0003 3.0003 0 0 0 55.203125 82.488281 z M 67.203125 82.488281 A 3.0003 3.0003 0 0 0 64.154297 84.75 L 61.048828 96.341797 A 3.0003 3.0003 0 1 0 66.84375 97.894531 L 69.951172 86.302734 A 3.0003 3.0003 0 0 0 67.203125 82.488281 z "
     id="path6400" /></svg>