<?xml version="1.0" encoding="UTF-8" standalone="no"?>
<!-- Generator: Adobe Illustrator 16.0.0, SVG Export Plug-In . SVG Version: 6.00 Build 0)  -->

<svg
   xmlns:dc="http://purl.org/dc/elements/1.1/"
   xmlns:cc="http://creativecommons.org/ns#"
   xmlns:rdf="http://www.w3.org/1999/02/22-rdf-syntax-ns#"
   xmlns:svg="http://www.w3.org/2000/svg"
   xmlns="http://www.w3.org/2000/svg"
   xmlns:sodipodi="http://sodipodi.sourceforge.net/DTD/sodipodi-0.dtd"
   xmlns:inkscape="http://www.inkscape.org/namespaces/inkscape"
   version="1.1"
   id="Layer_1"
   x="0px"
   y="0px"
   width="100px"
   height="100px"
   viewBox="0 0 100 100"
   enable-background="new 0 0 100 100"
   xml:space="preserve"
   inkscape:version="0.91 r13725"
   sodipodi:docname="c-ns-xxx-s.svg"><metadata
     id="metadata53"><rdf:RDF><cc:Work
         rdf:about=""><dc:format>image/svg+xml</dc:format><dc:type
           rdf:resource="http://purl.org/dc/dcmitype/StillImage" /></cc:Work></rdf:RDF></metadata><defs
     id="defs51" /><sodipodi:namedview
     pagecolor="#ffffff"
     bordercolor="#666666"
     borderopacity="1"
     objecttolerance="10"
     gridtolerance="10"
     guidetolerance="10"
     inkscape:pageopacity="0"
     inkscape:pageshadow="2"
     inkscape:window-width="1366"
     inkscape:window-height="719"
     id="namedview49"
     showgrid="true"
     inkscape:zoom="2"
     inkscape:cx="66.89043"
     inkscape:cy="12.445271"
     inkscape:window-x="0"
     inkscape:window-y="25"
     inkscape:window-maximized="1"
     inkscape:current-layer="Layer_1"><inkscape:grid
       type="xygrid"
       id="grid4181" /></sodipodi:namedview><path
     style="fill:#aaaaaa;fill-opacity:1;stroke:none"
     d="M 12.330078 82.601562 L 11.013672 82.955078 L 11.541016 84.923828 L 9.5390625 84.394531 L 9.8867188 85.691406 L 11.888672 86.220703 L 12.572266 88.765625 L 9.9746094 88.082031 L 9.5449219 86.169922 L 8.2265625 85.8125 L 8.6582031 87.734375 L 6.7382812 87.203125 L 6.4121094 88.482422 L 8.3828125 89.009766 L 6.9101562 90.492188 L 8.2519531 90.863281 L 9.7148438 89.375 L 12.240234 90.066406 L 10.398438 91.929688 L 8.390625 91.380859 L 7.4140625 92.375 L 9.4316406 92.919922 L 7.9863281 94.353516 L 8.9296875 95.302734 L 10.3125 93.908203 L 10.892578 95.759766 L 11.857422 94.800781 L 11.269531 92.919922 L 13.179688 91.039062 L 13.859375 93.574219 L 12.392578 95.042969 L 12.740234 96.339844 L 14.207031 94.871094 L 14.738281 96.849609 L 16.054688 96.498047 L 15.523438 94.517578 L 17.529297 95.056641 L 17.181641 93.759766 L 15.175781 93.220703 L 14.496094 90.685547 L 17.121094 91.351562 L 17.552734 93.273438 L 18.839844 93.628906 L 18.416016 91.736328 L 20.330078 92.248047 L 20.671875 90.953125 L 18.695312 90.439453 L 20.158203 88.958984 L 18.816406 88.587891 L 17.351562 90.066406 L 14.833984 89.373047 L 16.666016 87.511719 L 18.677734 88.070312 L 19.654297 87.078125 L 17.646484 86.527344 L 19.099609 85.083984 L 18.158203 84.144531 L 16.761719 85.564453 L 16.173828 83.683594 L 15.240234 84.644531 L 15.824219 86.515625 L 13.888672 88.414062 L 13.205078 85.869141 L 14.675781 84.408203 L 14.328125 83.111328 L 12.859375 84.572266 L 12.330078 82.601562 z M 50.738281 82.601562 L 50.208984 84.570312 L 48.740234 83.111328 L 48.392578 84.408203 L 49.861328 85.869141 L 49.179688 88.414062 L 47.273438 86.523438 L 47.857422 84.652344 L 46.894531 83.683594 L 46.306641 85.564453 L 44.910156 84.144531 L 43.988281 85.087891 L 45.431641 86.53125 L 43.414062 87.078125 L 44.390625 88.070312 L 46.400391 87.511719 L 48.244141 89.375 L 45.716797 90.066406 L 44.251953 88.587891 L 42.910156 88.958984 L 44.382812 90.441406 L 42.416016 90.958984 L 42.757812 92.251953 L 44.652344 91.736328 L 44.228516 93.628906 L 45.544922 93.28125 L 45.976562 91.359375 L 48.572266 90.685547 L 47.892578 93.220703 L 45.886719 93.759766 L 45.539062 95.056641 L 47.544922 94.517578 L 47.013672 96.498047 L 48.330078 96.849609 L 48.861328 94.871094 L 50.328125 96.339844 L 50.675781 95.042969 L 49.208984 93.574219 L 49.888672 91.039062 L 51.828125 92.927734 L 51.240234 94.808594 L 52.175781 95.759766 L 52.755859 93.908203 L 54.158203 95.306641 L 55.101562 94.357422 L 53.646484 92.923828 L 55.654297 92.375 L 54.677734 91.380859 L 52.669922 91.929688 L 50.837891 90.070312 L 53.353516 89.375 L 54.816406 90.863281 L 56.158203 90.492188 L 54.695312 89.013672 L 56.675781 88.488281 L 56.330078 87.203125 L 54.410156 87.734375 L 54.841797 85.8125 L 53.552734 86.177734 L 53.123047 88.089844 L 50.496094 88.765625 L 51.177734 86.220703 L 53.181641 85.691406 L 53.529297 84.394531 L 51.525391 84.923828 L 52.054688 82.955078 L 50.738281 82.601562 z M 86.738281 82.601562 L 86.208984 84.570312 L 84.740234 83.111328 L 84.392578 84.408203 L 85.861328 85.869141 L 85.179688 88.414062 L 83.273438 86.523438 L 83.857422 84.652344 L 82.894531 83.683594 L 82.306641 85.564453 L 80.910156 84.144531 L 79.988281 85.087891 L 81.431641 86.53125 L 79.414062 87.078125 L 80.390625 88.070312 L 82.400391 87.511719 L 84.244141 89.375 L 81.716797 90.066406 L 80.251953 88.587891 L 78.910156 88.958984 L 80.382812 90.441406 L 78.416016 90.958984 L 78.757812 92.251953 L 80.652344 91.736328 L 80.228516 93.628906 L 81.544922 93.28125 L 81.976562 91.359375 L 84.572266 90.685547 L 83.892578 93.220703 L 81.886719 93.759766 L 81.539062 95.056641 L 83.544922 94.517578 L 83.013672 96.498047 L 84.330078 96.849609 L 84.861328 94.871094 L 86.328125 96.339844 L 86.675781 95.042969 L 85.208984 93.574219 L 85.888672 91.039062 L 87.828125 92.927734 L 87.240234 94.808594 L 88.175781 95.759766 L 88.755859 93.908203 L 90.158203 95.306641 L 91.101562 94.357422 L 89.646484 92.923828 L 91.654297 92.375 L 90.677734 91.380859 L 88.669922 91.929688 L 86.837891 90.070312 L 89.353516 89.375 L 90.816406 90.863281 L 92.158203 90.492188 L 90.695312 89.013672 L 92.675781 88.488281 L 92.330078 87.203125 L 90.410156 87.734375 L 90.841797 85.8125 L 89.552734 86.177734 L 89.123047 88.089844 L 86.496094 88.765625 L 87.177734 86.220703 L 89.181641 85.691406 L 89.529297 84.394531 L 87.525391 84.923828 L 88.054688 82.955078 L 86.738281 82.601562 z M 66.693359 82.845703 L 66.693359 85.363281 L 64.474609 84.091797 L 64.474609 85.75 L 66.693359 87.021484 L 66.693359 90.273438 L 63.814453 88.628906 L 63.914062 86.210938 L 62.455078 85.363281 L 62.355469 87.792969 L 60.236328 86.546875 L 59.439453 87.96875 L 61.621094 89.226562 L 59.388672 90.523438 L 60.873047 91.394531 L 63.091797 90.085938 L 65.882812 91.71875 L 63.091797 93.351562 L 60.873047 92.056641 L 59.388672 92.927734 L 61.621094 94.224609 L 59.439453 95.470703 L 60.261719 96.904297 L 62.355469 95.683594 L 62.455078 98.076172 L 63.914062 97.240234 L 63.814453 94.810547 L 66.693359 93.177734 L 66.693359 96.417969 L 64.474609 97.701172 L 64.474609 99.359375 L 66.693359 98.076172 L 66.693359 100.60547 L 68.375 100.60547 L 68.375 98.076172 L 70.59375 99.359375 L 70.59375 97.701172 L 68.375 96.417969 L 68.375 93.177734 L 71.291016 94.810547 L 71.191406 97.240234 L 72.613281 98.076172 L 72.712891 95.683594 L 74.832031 96.904297 L 75.654297 95.470703 L 73.460938 94.224609 L 75.679688 92.927734 L 74.195312 92.056641 L 71.976562 93.351562 L 69.197266 91.71875 L 71.976562 90.085938 L 74.195312 91.394531 L 75.679688 90.523438 L 73.460938 89.226562 L 75.654297 87.96875 L 74.832031 86.546875 L 72.712891 87.792969 L 72.613281 85.363281 L 71.191406 86.210938 L 71.291016 88.628906 L 68.375 90.273438 L 68.375 87.021484 L 70.59375 85.75 L 70.59375 84.091797 L 68.375 85.363281 L 68.375 82.845703 L 66.693359 82.845703 z M 30.367188 83.587891 L 29.082031 85.796875 L 27.822266 83.617188 L 26.365234 84.458984 L 27.625 86.638672 L 25.068359 86.646484 L 25.896484 88.082031 L 28.453125 88.074219 L 30.080078 90.890625 L 26.763672 90.90625 L 25.640625 88.761719 L 23.955078 88.757812 L 25.083984 90.912109 L 22.625 90.892578 L 22.644531 92.521484 L 25.164062 92.521484 L 23.878906 94.759766 L 25.599609 94.773438 L 26.867188 92.53125 L 30.101562 92.548828 L 28.5 95.359375 L 25.929688 95.345703 L 25.082031 96.841797 L 27.662109 96.849609 L 26.396484 99.019531 L 27.826172 99.849609 L 29.029297 97.744141 L 30.310547 99.767578 L 31.15625 98.314453 L 29.855469 96.259766 L 31.53125 93.40625 L 33.152344 96.212891 L 31.873047 98.433594 L 32.701172 99.869141 L 33.980469 97.648438 L 35.246094 99.839844 L 36.703125 98.998047 L 35.4375 96.806641 L 38.001953 96.810547 L 37.171875 95.375 L 34.609375 95.371094 L 32.988281 92.564453 L 36.332031 92.521484 L 37.460938 94.675781 L 39.107422 94.6875 L 37.998047 92.566406 L 40.443359 92.564453 L 40.439453 90.912109 L 37.916016 90.929688 L 39.189453 88.697266 L 37.46875 88.683594 L 36.195312 90.916016 L 32.972656 90.890625 L 34.5625 88.087891 L 37.138672 88.111328 L 37.986328 86.615234 L 35.417969 86.601562 L 36.6875 84.414062 L 35.265625 83.595703 L 34.052734 85.734375 L 32.751953 83.679688 L 31.945312 85.123047 L 33.240234 87.167969 L 31.537109 90.050781 L 29.910156 87.232422 L 31.195312 85.023438 L 30.367188 83.587891 z "
     id="path7655" /></svg>