<?xml version="1.0" encoding="UTF-8" standalone="no"?>
<!-- Generator: Adobe Illustrator 16.0.0, SVG Export Plug-In . SVG Version: 6.00 Build 0)  -->

<svg
   xmlns:dc="http://purl.org/dc/elements/1.1/"
   xmlns:cc="http://creativecommons.org/ns#"
   xmlns:rdf="http://www.w3.org/1999/02/22-rdf-syntax-ns#"
   xmlns:svg="http://www.w3.org/2000/svg"
   xmlns="http://www.w3.org/2000/svg"
   xmlns:sodipodi="http://sodipodi.sourceforge.net/DTD/sodipodi-0.dtd"
   xmlns:inkscape="http://www.inkscape.org/namespaces/inkscape"
   version="1.1"
   id="Layer_1"
   x="0px"
   y="0px"
   width="100px"
   height="100px"
   viewBox="0 0 100 100"
   enable-background="new 0 0 100 100"
   xml:space="preserve"
   inkscape:version="0.91 r13725"
   sodipodi:docname="c-ns-xxx-rs.svg"><metadata
     id="metadata53"><rdf:RDF><cc:Work
         rdf:about=""><dc:format>image/svg+xml</dc:format><dc:type
           rdf:resource="http://purl.org/dc/dcmitype/StillImage" /></cc:Work></rdf:RDF></metadata><defs
     id="defs51" /><sodipodi:namedview
     pagecolor="#ffffff"
     bordercolor="#666666"
     borderopacity="1"
     objecttolerance="10"
     gridtolerance="10"
     guidetolerance="10"
     inkscape:pageopacity="0"
     inkscape:pageshadow="2"
     inkscape:window-width="1366"
     inkscape:window-height="719"
     id="namedview49"
     showgrid="true"
     inkscape:zoom="4"
     inkscape:cx="57.395497"
     inkscape:cy="17.876928"
     inkscape:window-x="0"
     inkscape:window-y="25"
     inkscape:window-maximized="1"
     inkscape:current-layer="Layer_1"><inkscape:grid
       type="xygrid"
       id="grid4181" /></sodipodi:namedview><path
     style="color:#000000;font-style:normal;font-variant:normal;font-weight:normal;font-stretch:normal;font-size:medium;line-height:normal;font-family:sans-serif;text-indent:0;text-align:start;text-decoration:none;text-decoration-line:none;text-decoration-style:solid;text-decoration-color:#000000;letter-spacing:normal;word-spacing:normal;text-transform:none;direction:ltr;block-progression:tb;writing-mode:lr-tb;baseline-shift:baseline;text-anchor:start;white-space:normal;clip-rule:nonzero;display:inline;overflow:visible;visibility:visible;opacity:1;isolation:auto;mix-blend-mode:normal;color-interpolation:sRGB;color-interpolation-filters:linearRGB;solid-color:#000000;solid-opacity:1;fill:#0277bd;fill-opacity:1;fill-rule:nonzero;stroke:none;stroke-width:6;stroke-linecap:round;stroke-linejoin:miter;stroke-miterlimit:4;stroke-dasharray:none;stroke-dashoffset:0;stroke-opacity:1;color-rendering:auto;image-rendering:auto;shape-rendering:auto;text-rendering:auto;enable-background:accumulate"
     d="M 18 82.482422 A 3.0003 3.0003 0 0 0 15.25 84.744141 L 12.144531 96.333984 A 3.0003 3.0003 0 1 0 17.939453 97.886719 L 21.044922 86.296875 A 3.0003 3.0003 0 0 0 18 82.482422 z M 42 82.482422 A 3.0003 3.0003 0 0 0 39.25 84.744141 L 36.144531 96.333984 A 3.0003 3.0003 0 1 0 41.939453 97.886719 L 45.044922 86.296875 A 3.0003 3.0003 0 0 0 42 82.482422 z M 66 82.482422 A 3.0003 3.0003 0 0 0 63.25 84.744141 L 60.144531 96.333984 A 3.0003 3.0003 0 1 0 65.939453 97.886719 L 69.044922 86.296875 A 3.0003 3.0003 0 0 0 66 82.482422 z M 78 82.482422 A 3.0003 3.0003 0 0 0 75.25 84.744141 L 72.144531 96.333984 A 3.0003 3.0003 0 1 0 77.939453 97.886719 L 81.044922 86.296875 A 3.0003 3.0003 0 0 0 78 82.482422 z "
     id="path5461" /><path
     style="fill:#aaaaaa;fill-opacity:1;stroke:none"
     d="M 12.330078 82.599609 L 11.013672 82.953125 L 11.541016 84.921875 L 9.5390625 84.392578 L 9.8867188 85.689453 L 11.888672 86.21875 L 12.570312 88.763672 L 9.9726562 88.080078 L 9.5449219 86.167969 L 8.2265625 85.810547 L 8.6582031 87.732422 L 6.7382812 87.203125 L 6.4121094 88.480469 L 8.3828125 89.007812 L 6.9082031 90.490234 L 8.2519531 90.861328 L 9.7128906 89.373047 L 12.240234 90.064453 L 10.398438 91.927734 L 8.390625 91.378906 L 7.4140625 92.373047 L 9.4296875 92.919922 L 7.984375 94.351562 L 8.9296875 95.300781 L 10.310547 93.90625 L 10.890625 95.757812 L 11.857422 94.798828 L 11.269531 92.917969 L 13.179688 91.037109 L 13.859375 93.572266 L 12.392578 95.041016 L 12.740234 96.337891 L 14.207031 94.869141 L 14.736328 96.847656 L 16.052734 96.496094 L 15.523438 94.515625 L 17.527344 95.054688 L 17.179688 93.757812 L 15.175781 93.21875 L 14.496094 90.683594 L 17.121094 91.349609 L 17.552734 93.271484 L 18.837891 93.626953 L 18.414062 91.734375 L 20.328125 92.246094 L 20.671875 90.951172 L 18.693359 90.4375 L 20.158203 88.957031 L 18.814453 88.585938 L 17.351562 90.064453 L 14.833984 89.371094 L 16.666016 87.509766 L 18.675781 88.068359 L 19.654297 87.076172 L 17.646484 86.527344 L 19.099609 85.082031 L 18.158203 84.142578 L 16.761719 85.5625 L 16.173828 83.681641 L 15.240234 84.642578 L 15.824219 86.513672 L 13.886719 88.412109 L 13.205078 85.867188 L 14.673828 84.40625 L 14.328125 83.109375 L 12.857422 84.570312 L 12.330078 82.599609 z M 50.736328 82.599609 L 50.208984 84.570312 L 48.740234 83.109375 L 48.392578 84.40625 L 49.861328 85.867188 L 49.179688 88.412109 L 47.271484 86.521484 L 47.857422 84.650391 L 46.894531 83.681641 L 46.306641 85.5625 L 44.910156 84.142578 L 43.988281 85.085938 L 45.429688 86.529297 L 43.414062 87.076172 L 44.390625 88.068359 L 46.400391 87.509766 L 48.242188 89.373047 L 45.716797 90.064453 L 44.251953 88.585938 L 42.908203 88.957031 L 44.382812 90.439453 L 42.414062 90.957031 L 42.757812 92.251953 L 44.652344 91.734375 L 44.228516 93.626953 L 45.544922 93.279297 L 45.976562 91.357422 L 48.570312 90.683594 L 47.892578 93.21875 L 45.886719 93.757812 L 45.539062 95.054688 L 47.544922 94.515625 L 47.013672 96.496094 L 48.330078 96.847656 L 48.861328 94.869141 L 50.328125 96.337891 L 50.673828 95.041016 L 49.208984 93.572266 L 49.886719 91.037109 L 51.826172 92.925781 L 51.240234 94.806641 L 52.175781 95.757812 L 52.755859 93.90625 L 54.158203 95.304688 L 55.101562 94.357422 L 53.646484 92.921875 L 55.654297 92.373047 L 54.675781 91.378906 L 52.669922 91.927734 L 50.835938 90.068359 L 53.353516 89.373047 L 54.814453 90.861328 L 56.158203 90.490234 L 54.693359 89.011719 L 56.673828 88.486328 L 56.328125 87.203125 L 54.410156 87.732422 L 54.841797 85.810547 L 53.552734 86.175781 L 53.123047 88.087891 L 50.496094 88.763672 L 51.177734 86.21875 L 53.179688 85.689453 L 53.527344 84.392578 L 51.525391 84.921875 L 52.052734 82.953125 L 50.736328 82.599609 z M 86.736328 82.599609 L 86.208984 84.570312 L 84.740234 83.109375 L 84.392578 84.40625 L 85.861328 85.867188 L 85.179688 88.412109 L 83.271484 86.521484 L 83.857422 84.650391 L 82.894531 83.681641 L 82.306641 85.5625 L 80.910156 84.142578 L 79.988281 85.085938 L 81.429688 86.529297 L 79.414062 87.076172 L 80.390625 88.068359 L 82.400391 87.509766 L 84.242188 89.373047 L 81.716797 90.064453 L 80.251953 88.585938 L 78.908203 88.957031 L 80.382812 90.439453 L 78.414062 90.957031 L 78.757812 92.251953 L 80.652344 91.734375 L 80.228516 93.626953 L 81.544922 93.279297 L 81.976562 91.357422 L 84.570312 90.683594 L 83.892578 93.21875 L 81.886719 93.757812 L 81.539062 95.054688 L 83.544922 94.515625 L 83.013672 96.496094 L 84.330078 96.847656 L 84.861328 94.869141 L 86.328125 96.337891 L 86.673828 95.041016 L 85.208984 93.572266 L 85.886719 91.037109 L 87.826172 92.925781 L 87.240234 94.806641 L 88.175781 95.757812 L 88.755859 93.90625 L 90.158203 95.304688 L 91.101562 94.357422 L 89.646484 92.921875 L 91.654297 92.373047 L 90.675781 91.378906 L 88.669922 91.927734 L 86.835938 90.068359 L 89.353516 89.373047 L 90.814453 90.861328 L 92.158203 90.490234 L 90.693359 89.011719 L 92.673828 88.486328 L 92.328125 87.203125 L 90.410156 87.732422 L 90.841797 85.810547 L 89.552734 86.175781 L 89.123047 88.087891 L 86.496094 88.763672 L 87.177734 86.21875 L 89.179688 85.689453 L 89.527344 84.392578 L 87.525391 84.921875 L 88.052734 82.953125 L 86.736328 82.599609 z M 66.691406 82.84375 L 66.691406 85.361328 L 64.474609 84.089844 L 64.474609 85.748047 L 66.691406 87.019531 L 66.691406 90.271484 L 63.8125 88.626953 L 63.912109 86.208984 L 62.455078 85.361328 L 62.355469 87.791016 L 60.236328 86.544922 L 59.439453 87.966797 L 61.619141 89.224609 L 59.388672 90.521484 L 60.871094 91.394531 L 63.089844 90.085938 L 65.882812 91.71875 L 63.089844 93.349609 L 60.871094 92.054688 L 59.388672 92.925781 L 61.619141 94.222656 L 59.439453 95.46875 L 60.261719 96.902344 L 62.355469 95.681641 L 62.455078 98.074219 L 63.912109 97.238281 L 63.8125 94.808594 L 66.691406 93.175781 L 66.691406 96.416016 L 64.474609 97.701172 L 64.474609 99.357422 L 66.691406 98.074219 L 66.691406 100.60352 L 68.375 100.60352 L 68.375 98.074219 L 70.59375 99.357422 L 70.59375 97.701172 L 68.375 96.416016 L 68.375 93.175781 L 71.291016 94.808594 L 71.191406 97.238281 L 72.613281 98.074219 L 72.712891 95.681641 L 74.830078 96.902344 L 75.654297 95.46875 L 73.460938 94.222656 L 75.677734 92.925781 L 74.195312 92.054688 L 71.976562 93.349609 L 69.197266 91.71875 L 71.976562 90.085938 L 74.195312 91.394531 L 75.677734 90.521484 L 73.460938 89.224609 L 75.654297 87.966797 L 74.830078 86.544922 L 72.712891 87.791016 L 72.613281 85.361328 L 71.191406 86.208984 L 71.291016 88.626953 L 68.375 90.271484 L 68.375 87.019531 L 70.59375 85.748047 L 70.59375 84.089844 L 68.375 85.361328 L 68.375 82.84375 L 66.691406 82.84375 z M 30.367188 83.585938 L 29.082031 85.794922 L 27.822266 83.615234 L 26.365234 84.457031 L 27.625 86.636719 L 25.066406 86.644531 L 25.896484 88.080078 L 28.453125 88.072266 L 30.080078 90.890625 L 26.763672 90.904297 L 25.640625 88.761719 L 23.955078 88.755859 L 25.083984 90.910156 L 22.625 90.890625 L 22.644531 92.519531 L 25.162109 92.519531 L 23.878906 94.757812 L 25.599609 94.771484 L 26.867188 92.529297 L 30.101562 92.546875 L 28.5 95.357422 L 25.929688 95.34375 L 25.082031 96.839844 L 27.662109 96.847656 L 26.396484 99.017578 L 27.826172 99.847656 L 29.027344 97.742188 L 30.310547 99.765625 L 31.15625 98.3125 L 29.855469 96.257812 L 31.53125 93.404297 L 33.152344 96.210938 L 31.873047 98.431641 L 32.701172 99.867188 L 33.980469 97.646484 L 35.246094 99.837891 L 36.703125 98.996094 L 35.4375 96.804688 L 38 96.808594 L 37.171875 95.373047 L 34.609375 95.369141 L 32.988281 92.564453 L 36.330078 92.519531 L 37.458984 94.673828 L 39.107422 94.6875 L 37.998047 92.564453 L 40.443359 92.5625 L 40.439453 90.910156 L 37.916016 90.927734 L 39.189453 88.695312 L 37.46875 88.681641 L 36.195312 90.914062 L 32.972656 90.888672 L 34.5625 88.085938 L 37.138672 88.109375 L 37.986328 86.613281 L 35.416016 86.599609 L 36.6875 84.412109 L 35.263672 83.59375 L 34.052734 85.732422 L 32.751953 83.677734 L 31.945312 85.121094 L 33.240234 87.166016 L 31.537109 90.048828 L 29.910156 87.230469 L 31.195312 85.021484 L 30.367188 83.585938 z "
     id="path5639" /></svg>