<?xml version="1.0" encoding="UTF-8" standalone="no"?>
<!-- Generator: Adobe Illustrator 16.0.0, SVG Export Plug-In . SVG Version: 6.00 Build 0)  -->

<svg
   xmlns:dc="http://purl.org/dc/elements/1.1/"
   xmlns:cc="http://creativecommons.org/ns#"
   xmlns:rdf="http://www.w3.org/1999/02/22-rdf-syntax-ns#"
   xmlns:svg="http://www.w3.org/2000/svg"
   xmlns="http://www.w3.org/2000/svg"
   xmlns:sodipodi="http://sodipodi.sourceforge.net/DTD/sodipodi-0.dtd"
   xmlns:inkscape="http://www.inkscape.org/namespaces/inkscape"
   version="1.1"
   id="Layer_1"
   x="0px"
   y="0px"
   width="100px"
   height="100px"
   viewBox="0 0 100 100"
   enable-background="new 0 0 100 100"
   xml:space="preserve"
   inkscape:version="0.91 r13725"
   sodipodi:docname="c-ns-x-s.svg"><metadata
     id="metadata53"><rdf:RDF><cc:Work
         rdf:about=""><dc:format>image/svg+xml</dc:format><dc:type
           rdf:resource="http://purl.org/dc/dcmitype/StillImage" /></cc:Work></rdf:RDF></metadata><defs
     id="defs51" /><sodipodi:namedview
     pagecolor="#ffffff"
     bordercolor="#666666"
     borderopacity="1"
     objecttolerance="10"
     gridtolerance="10"
     guidetolerance="10"
     inkscape:pageopacity="0"
     inkscape:pageshadow="2"
     inkscape:window-width="1366"
     inkscape:window-height="719"
     id="namedview49"
     showgrid="true"
     inkscape:zoom="4"
     inkscape:cx="-42.463862"
     inkscape:cy="-5.9658052"
     inkscape:window-x="0"
     inkscape:window-y="25"
     inkscape:window-maximized="1"
     inkscape:current-layer="Layer_1"><inkscape:grid
       type="xygrid"
       id="grid4181" /></sodipodi:namedview><path
     style="fill:#aaaaaa;fill-opacity:1;stroke:none"
     d="M 22.185547 82.601562 L 20.869141 82.955078 L 21.396484 84.923828 L 19.394531 84.394531 L 19.742188 85.691406 L 21.744141 86.220703 L 22.425781 88.765625 L 19.828125 88.082031 L 19.398438 86.169922 L 18.080078 85.8125 L 18.511719 87.734375 L 16.59375 87.203125 L 16.267578 88.482422 L 18.236328 89.009766 L 16.763672 90.492188 L 18.107422 90.863281 L 19.568359 89.375 L 22.095703 90.066406 L 20.251953 91.929688 L 18.246094 91.380859 L 17.267578 92.375 L 19.285156 92.921875 L 17.839844 94.353516 L 18.783203 95.302734 L 20.166016 93.908203 L 20.746094 95.759766 L 21.710938 94.800781 L 21.125 92.919922 L 23.035156 91.039062 L 23.712891 93.574219 L 22.248047 95.042969 L 22.59375 96.339844 L 24.060547 94.871094 L 24.591797 96.849609 L 25.908203 96.498047 L 25.376953 94.517578 L 27.382812 95.056641 L 27.035156 93.759766 L 25.029297 93.220703 L 24.351562 90.685547 L 26.974609 91.351562 L 27.40625 93.273438 L 28.693359 93.628906 L 28.269531 91.736328 L 30.183594 92.248047 L 30.527344 90.953125 L 28.548828 90.439453 L 30.013672 88.958984 L 28.669922 88.587891 L 27.205078 90.066406 L 24.689453 89.373047 L 26.521484 87.511719 L 28.53125 88.070312 L 29.507812 87.078125 L 27.501953 86.529297 L 28.953125 85.083984 L 28.011719 84.144531 L 26.615234 85.564453 L 26.027344 83.683594 L 25.09375 84.644531 L 25.679688 86.515625 L 23.742188 88.414062 L 23.060547 85.869141 L 24.529297 84.408203 L 24.181641 83.111328 L 22.712891 84.572266 L 22.185547 82.601562 z M 60.591797 82.601562 L 60.064453 84.572266 L 58.59375 83.111328 L 58.248047 84.408203 L 59.716797 85.869141 L 59.035156 88.414062 L 57.126953 86.523438 L 57.710938 84.652344 L 56.748047 83.683594 L 56.160156 85.564453 L 54.763672 84.144531 L 53.841797 85.087891 L 55.285156 86.53125 L 53.267578 87.078125 L 54.246094 88.070312 L 56.255859 87.511719 L 58.097656 89.375 L 55.570312 90.066406 L 54.107422 88.587891 L 52.763672 88.958984 L 54.236328 90.441406 L 52.269531 90.958984 L 52.613281 92.253906 L 54.507812 91.736328 L 54.083984 93.628906 L 55.398438 93.28125 L 55.830078 91.359375 L 58.425781 90.685547 L 57.746094 93.220703 L 55.742188 93.759766 L 55.394531 95.056641 L 57.398438 94.517578 L 56.869141 96.498047 L 58.185547 96.849609 L 58.714844 94.871094 L 60.181641 96.339844 L 60.529297 95.042969 L 59.0625 93.574219 L 59.742188 91.039062 L 61.681641 92.927734 L 61.09375 94.808594 L 62.03125 95.759766 L 62.609375 93.908203 L 64.011719 95.306641 L 64.957031 94.359375 L 63.501953 92.923828 L 65.507812 92.375 L 64.53125 91.380859 L 62.523438 91.929688 L 60.691406 90.070312 L 63.208984 89.375 L 64.669922 90.863281 L 66.013672 90.492188 L 64.548828 89.013672 L 66.529297 88.488281 L 66.183594 87.203125 L 64.263672 87.734375 L 64.695312 85.8125 L 63.40625 86.177734 L 62.978516 88.089844 L 60.351562 88.765625 L 61.033203 86.220703 L 63.035156 85.691406 L 63.382812 84.394531 L 61.380859 84.923828 L 61.908203 82.955078 L 60.591797 82.601562 z M 40.546875 82.845703 L 40.546875 85.363281 L 38.328125 84.091797 L 38.328125 85.75 L 40.546875 87.021484 L 40.546875 90.273438 L 37.667969 88.628906 L 37.767578 86.210938 L 36.308594 85.363281 L 36.208984 87.792969 L 34.091797 86.546875 L 33.292969 87.96875 L 35.474609 89.226562 L 33.244141 90.523438 L 34.726562 91.396484 L 36.945312 90.087891 L 39.736328 91.71875 L 36.945312 93.351562 L 34.726562 92.056641 L 33.244141 92.927734 L 35.474609 94.224609 L 33.292969 95.470703 L 34.115234 96.904297 L 36.208984 95.683594 L 36.308594 98.076172 L 37.767578 97.240234 L 37.667969 94.810547 L 40.546875 93.177734 L 40.546875 96.417969 L 38.328125 97.703125 L 38.328125 99.359375 L 40.546875 98.076172 L 40.546875 100.60547 L 42.230469 100.60547 L 42.230469 98.076172 L 44.447266 99.359375 L 44.447266 97.703125 L 42.230469 96.417969 L 42.230469 93.177734 L 45.146484 94.810547 L 45.046875 97.240234 L 46.466797 98.076172 L 46.566406 95.683594 L 48.685547 96.904297 L 49.507812 95.470703 L 47.314453 94.224609 L 49.533203 92.927734 L 48.050781 92.056641 L 45.832031 93.351562 L 43.052734 91.71875 L 45.832031 90.087891 L 48.050781 91.396484 L 49.533203 90.523438 L 47.314453 89.226562 L 49.507812 87.96875 L 48.685547 86.546875 L 46.566406 87.792969 L 46.466797 85.363281 L 45.046875 86.210938 L 45.146484 88.628906 L 42.230469 90.273438 L 42.230469 87.021484 L 44.447266 85.75 L 44.447266 84.091797 L 42.230469 85.363281 L 42.230469 82.845703 L 40.546875 82.845703 z "
     id="path7713" /></svg>