<?xml version="1.0" encoding="UTF-8" standalone="no"?>
<!-- Generator: Adobe Illustrator 16.0.0, SVG Export Plug-In . SVG Version: 6.00 Build 0)  -->

<svg
   xmlns:dc="http://purl.org/dc/elements/1.1/"
   xmlns:cc="http://creativecommons.org/ns#"
   xmlns:rdf="http://www.w3.org/1999/02/22-rdf-syntax-ns#"
   xmlns:svg="http://www.w3.org/2000/svg"
   xmlns="http://www.w3.org/2000/svg"
   xmlns:sodipodi="http://sodipodi.sourceforge.net/DTD/sodipodi-0.dtd"
   xmlns:inkscape="http://www.inkscape.org/namespaces/inkscape"
   version="1.1"
   id="Layer_1"
   x="0px"
   y="0px"
   width="100px"
   height="100px"
   viewBox="0 0 100 100"
   enable-background="new 0 0 100 100"
   xml:space="preserve"
   inkscape:version="0.91 r13725"
   sodipodi:docname="c-ns-xx-s.svg"><metadata
     id="metadata53"><rdf:RDF><cc:Work
         rdf:about=""><dc:format>image/svg+xml</dc:format><dc:type
           rdf:resource="http://purl.org/dc/dcmitype/StillImage" /></cc:Work></rdf:RDF></metadata><defs
     id="defs51" /><sodipodi:namedview
     pagecolor="#ffffff"
     bordercolor="#666666"
     borderopacity="1"
     objecttolerance="10"
     gridtolerance="10"
     guidetolerance="10"
     inkscape:pageopacity="0"
     inkscape:pageshadow="2"
     inkscape:window-width="1366"
     inkscape:window-height="719"
     id="namedview49"
     showgrid="true"
     inkscape:zoom="4"
     inkscape:cx="10.578098"
     inkscape:cy="32.119831"
     inkscape:window-x="0"
     inkscape:window-y="25"
     inkscape:window-maximized="1"
     inkscape:current-layer="Layer_1"><inkscape:grid
       type="xygrid"
       id="grid4181" /></sodipodi:namedview><path
     style="fill:#aaaaaa;fill-opacity:1;stroke:none"
     d="M 72.599609 82.605469 L 72.072266 84.576172 L 70.601562 83.115234 L 70.255859 84.412109 L 71.724609 85.873047 L 71.042969 88.417969 L 69.134766 86.527344 L 69.71875 84.65625 L 68.755859 83.6875 L 68.167969 85.568359 L 66.771484 84.148438 L 65.849609 85.091797 L 67.292969 86.535156 L 65.275391 87.082031 L 66.253906 88.074219 L 68.263672 87.515625 L 70.105469 89.378906 L 67.578125 90.070312 L 66.115234 88.591797 L 64.771484 88.962891 L 66.244141 90.445312 L 64.277344 90.962891 L 64.621094 92.257812 L 66.515625 91.740234 L 66.091797 93.632812 L 67.40625 93.285156 L 67.837891 91.363281 L 70.433594 90.689453 L 69.753906 93.224609 L 67.75 93.763672 L 67.402344 95.060547 L 69.40625 94.521484 L 68.876953 96.501953 L 70.193359 96.853516 L 70.722656 94.875 L 72.189453 96.34375 L 72.537109 95.046875 L 71.070312 93.578125 L 71.75 91.042969 L 73.689453 92.931641 L 73.101562 94.8125 L 74.039062 95.763672 L 74.617188 93.912109 L 76.019531 95.310547 L 76.964844 94.363281 L 75.509766 92.927734 L 77.515625 92.378906 L 76.539062 91.384766 L 74.53125 91.933594 L 72.699219 90.074219 L 75.216797 89.378906 L 76.677734 90.867188 L 78.021484 90.496094 L 76.556641 89.017578 L 78.537109 88.492188 L 78.191406 87.207031 L 76.271484 87.738281 L 76.703125 85.816406 L 75.414062 86.181641 L 74.986328 88.09375 L 72.359375 88.769531 L 73.041016 86.224609 L 75.042969 85.695312 L 75.390625 84.398438 L 73.388672 84.927734 L 73.916016 82.958984 L 72.599609 82.605469 z M 52.554688 82.849609 L 52.554688 85.367188 L 50.335938 84.095703 L 50.335938 85.753906 L 52.554688 87.025391 L 52.554688 90.277344 L 49.675781 88.632812 L 49.775391 86.214844 L 48.316406 85.367188 L 48.216797 87.796875 L 46.099609 86.550781 L 45.300781 87.972656 L 47.482422 89.230469 L 45.251953 90.527344 L 46.734375 91.400391 L 48.953125 90.091797 L 51.744141 91.722656 L 48.953125 93.355469 L 46.734375 92.060547 L 45.251953 92.931641 L 47.482422 94.228516 L 45.300781 95.474609 L 46.123047 96.908203 L 48.216797 95.6875 L 48.316406 98.080078 L 49.775391 97.244141 L 49.675781 94.814453 L 52.554688 93.181641 L 52.554688 96.421875 L 50.335938 97.707031 L 50.335938 99.363281 L 52.554688 98.080078 L 52.554688 100.60938 L 54.238281 100.60938 L 54.238281 98.080078 L 56.455078 99.363281 L 56.455078 97.707031 L 54.238281 96.421875 L 54.238281 93.181641 L 57.154297 94.814453 L 57.054688 97.244141 L 58.474609 98.080078 L 58.574219 95.6875 L 60.693359 96.908203 L 61.515625 95.474609 L 59.322266 94.228516 L 61.541016 92.931641 L 60.058594 92.060547 L 57.839844 93.355469 L 55.060547 91.722656 L 57.839844 90.091797 L 60.058594 91.400391 L 61.541016 90.527344 L 59.322266 89.230469 L 61.515625 87.972656 L 60.693359 86.550781 L 58.574219 87.796875 L 58.474609 85.367188 L 57.054688 86.214844 L 57.154297 88.632812 L 54.238281 90.277344 L 54.238281 87.025391 L 56.455078 85.753906 L 56.455078 84.095703 L 54.238281 85.367188 L 54.238281 82.849609 L 52.554688 82.849609 z M 15.910156 82.933594 L 14.285156 83.369141 L 14.9375 85.800781 L 12.464844 85.148438 L 12.894531 86.75 L 15.365234 87.402344 L 16.207031 90.544922 L 13 89.701172 L 12.470703 87.339844 L 10.84375 86.898438 L 11.376953 89.271484 L 9.0078125 88.617188 L 8.6035156 90.195312 L 11.037109 90.845703 L 9.2167969 92.675781 L 10.875 93.134766 L 12.679688 91.296875 L 15.798828 92.150391 L 13.525391 94.451172 L 11.046875 93.773438 L 9.8398438 95 L 12.330078 95.673828 L 10.546875 97.443359 L 11.710938 98.613281 L 13.417969 96.892578 L 14.132812 99.177734 L 15.326172 97.994141 L 14.601562 95.671875 L 16.958984 93.349609 L 17.798828 96.480469 L 15.986328 98.294922 L 16.416016 99.894531 L 18.226562 98.082031 L 18.880859 100.52539 L 20.507812 100.08984 L 19.851562 97.646484 L 22.328125 98.3125 L 21.898438 96.710938 L 19.423828 96.044922 L 18.583984 92.914062 L 21.824219 93.736328 L 22.357422 96.109375 L 23.945312 96.548828 L 23.421875 94.210938 L 25.785156 94.84375 L 26.208984 93.246094 L 23.767578 92.609375 L 25.574219 90.783203 L 23.916016 90.324219 L 22.109375 92.150391 L 19.001953 91.292969 L 21.263672 88.996094 L 23.746094 89.6875 L 24.951172 88.460938 L 22.474609 87.78125 L 24.267578 85.998047 L 23.103516 84.839844 L 21.380859 86.591797 L 20.654297 84.269531 L 19.501953 85.455078 L 20.224609 87.765625 L 17.832031 90.109375 L 16.990234 86.966797 L 18.804688 85.166016 L 18.375 83.564453 L 16.5625 85.367188 L 15.910156 82.933594 z M 34.451172 83.138672 L 33.410156 84.927734 L 32.390625 83.162109 L 31.208984 83.84375 L 32.228516 85.609375 L 30.158203 85.615234 L 30.830078 86.779297 L 32.900391 86.771484 L 34.21875 89.054688 L 31.53125 89.066406 L 30.623047 87.330078 L 29.255859 87.326172 L 30.171875 89.070312 L 28.179688 89.054688 L 28.195312 90.375 L 30.236328 90.375 L 29.195312 92.1875 L 30.589844 92.199219 L 31.615234 90.382812 L 34.236328 90.396484 L 32.9375 92.671875 L 30.857422 92.662109 L 30.169922 93.875 L 32.259766 93.880859 L 31.234375 95.638672 L 32.392578 96.310547 L 33.367188 94.605469 L 34.40625 96.244141 L 35.089844 95.066406 L 34.035156 93.402344 L 35.394531 91.091797 L 36.707031 93.365234 L 35.669922 95.164062 L 36.341797 96.326172 L 37.378906 94.527344 L 38.402344 96.302734 L 39.582031 95.621094 L 38.558594 93.845703 L 40.634766 93.847656 L 39.962891 92.685547 L 37.886719 92.683594 L 36.574219 90.410156 L 39.28125 90.373047 L 40.195312 92.119141 L 41.53125 92.128906 L 40.630859 90.410156 L 42.613281 90.410156 L 42.609375 89.070312 L 40.566406 89.083984 L 41.597656 87.277344 L 40.203125 87.265625 L 39.171875 89.074219 L 36.560547 89.054688 L 37.849609 86.783203 L 39.935547 86.802734 L 40.623047 85.589844 L 38.541016 85.578125 L 39.570312 83.806641 L 38.417969 83.144531 L 37.435547 84.876953 L 36.382812 83.210938 L 35.728516 84.380859 L 36.777344 86.037109 L 35.398438 88.373047 L 34.080078 86.091797 L 35.123047 84.300781 L 34.451172 83.138672 z "
     id="path7693" /></svg>