<?xml version="1.0" encoding="UTF-8" standalone="no"?>
<!-- Generator: Adobe Illustrator 16.0.0, SVG Export Plug-In . SVG Version: 6.00 Build 0)  -->

<svg
   xmlns:dc="http://purl.org/dc/elements/1.1/"
   xmlns:cc="http://creativecommons.org/ns#"
   xmlns:rdf="http://www.w3.org/1999/02/22-rdf-syntax-ns#"
   xmlns:svg="http://www.w3.org/2000/svg"
   xmlns="http://www.w3.org/2000/svg"
   xmlns:sodipodi="http://sodipodi.sourceforge.net/DTD/sodipodi-0.dtd"
   xmlns:inkscape="http://www.inkscape.org/namespaces/inkscape"
   version="1.1"
   id="Layer_1"
   x="0px"
   y="0px"
   width="100px"
   height="100px"
   viewBox="0 0 100 100"
   enable-background="new 0 0 100 100"
   xml:space="preserve"
   inkscape:version="0.91 r13725"
   sodipodi:docname="c-ns-xx-rs.svg"><metadata
     id="metadata53"><rdf:RDF><cc:Work
         rdf:about=""><dc:format>image/svg+xml</dc:format><dc:type
           rdf:resource="http://purl.org/dc/dcmitype/StillImage" /></cc:Work></rdf:RDF></metadata><defs
     id="defs51" /><sodipodi:namedview
     pagecolor="#ffffff"
     bordercolor="#666666"
     borderopacity="1"
     objecttolerance="10"
     gridtolerance="10"
     guidetolerance="10"
     inkscape:pageopacity="0"
     inkscape:pageshadow="2"
     inkscape:window-width="1366"
     inkscape:window-height="719"
     id="namedview49"
     showgrid="true"
     inkscape:zoom="5.6568542"
     inkscape:cx="23.540303"
     inkscape:cy="4.5642612"
     inkscape:window-x="0"
     inkscape:window-y="25"
     inkscape:window-maximized="1"
     inkscape:current-layer="Layer_1"><inkscape:grid
       type="xygrid"
       id="grid4181" /></sodipodi:namedview><path
     style="color:#000000;font-style:normal;font-variant:normal;font-weight:normal;font-stretch:normal;font-size:medium;line-height:normal;font-family:sans-serif;text-indent:0;text-align:start;text-decoration:none;text-decoration-line:none;text-decoration-style:solid;text-decoration-color:#000000;letter-spacing:normal;word-spacing:normal;text-transform:none;direction:ltr;block-progression:tb;writing-mode:lr-tb;baseline-shift:baseline;text-anchor:start;white-space:normal;clip-rule:nonzero;display:inline;overflow:visible;visibility:visible;opacity:1;isolation:auto;mix-blend-mode:normal;color-interpolation:sRGB;color-interpolation-filters:linearRGB;solid-color:#000000;solid-opacity:1;fill:#0277bd;fill-opacity:1;fill-rule:nonzero;stroke:none;stroke-width:6;stroke-linecap:round;stroke-linejoin:miter;stroke-miterlimit:4;stroke-dasharray:none;stroke-dashoffset:0;stroke-opacity:1;color-rendering:auto;image-rendering:auto;shape-rendering:auto;text-rendering:auto;enable-background:accumulate"
     d="M 19.859375 82.488281 A 3.0003 3.0003 0 0 0 17.109375 84.75 L 14.003906 96.339844 A 3.0003 3.0003 0 1 0 19.798828 97.892578 L 22.90625 86.302734 A 3.0003 3.0003 0 0 0 19.859375 82.488281 z M 55.859375 82.488281 A 3.0003 3.0003 0 0 0 53.109375 84.75 L 50.003906 96.339844 A 3.0003 3.0003 0 1 0 55.798828 97.892578 L 58.90625 86.302734 A 3.0003 3.0003 0 0 0 55.859375 82.488281 z M 67.859375 82.488281 A 3.0003 3.0003 0 0 0 65.109375 84.75 L 62.003906 96.339844 A 3.0003 3.0003 0 1 0 67.798828 97.892578 L 70.90625 86.302734 A 3.0003 3.0003 0 0 0 67.859375 82.488281 z "
     id="path5449" /><path
     style="fill:#aaaaaa;fill-opacity:1;stroke:none"
     d="M 72.597656 82.605469 L 72.068359 84.576172 L 70.599609 83.115234 L 70.251953 84.412109 L 71.720703 85.873047 L 71.039062 88.417969 L 69.132812 86.527344 L 69.716797 84.65625 L 68.753906 83.6875 L 68.166016 85.568359 L 66.769531 84.148438 L 65.847656 85.091797 L 67.291016 86.535156 L 65.273438 87.082031 L 66.25 88.074219 L 68.259766 87.515625 L 70.103516 89.378906 L 67.576172 90.070312 L 66.111328 88.591797 L 64.769531 88.962891 L 66.242188 90.445312 L 64.275391 90.962891 L 64.617188 92.257812 L 66.511719 91.740234 L 66.087891 93.632812 L 67.404297 93.285156 L 67.835938 91.363281 L 70.431641 90.689453 L 69.751953 93.224609 L 67.746094 93.763672 L 67.398438 95.060547 L 69.404297 94.521484 L 68.873047 96.501953 L 70.189453 96.853516 L 70.720703 94.875 L 72.1875 96.34375 L 72.535156 95.046875 L 71.068359 93.578125 L 71.748047 91.042969 L 73.6875 92.931641 L 73.099609 94.8125 L 74.035156 95.763672 L 74.615234 93.912109 L 76.017578 95.310547 L 76.960938 94.363281 L 75.505859 92.927734 L 77.513672 92.378906 L 76.537109 91.384766 L 74.529297 91.933594 L 72.697266 90.074219 L 75.212891 89.378906 L 76.675781 90.867188 L 78.017578 90.496094 L 76.554688 89.017578 L 78.535156 88.492188 L 78.189453 87.207031 L 76.269531 87.738281 L 76.701172 85.816406 L 75.412109 86.181641 L 74.982422 88.09375 L 72.355469 88.769531 L 73.037109 86.224609 L 75.041016 85.695312 L 75.388672 84.398438 L 73.384766 84.927734 L 73.914062 82.958984 L 72.597656 82.605469 z M 52.552734 82.849609 L 52.552734 85.367188 L 50.333984 84.095703 L 50.333984 85.753906 L 52.552734 87.025391 L 52.552734 90.277344 L 49.673828 88.632812 L 49.773438 86.214844 L 48.314453 85.367188 L 48.214844 87.796875 L 46.095703 86.550781 L 45.298828 87.972656 L 47.480469 89.230469 L 45.248047 90.527344 L 46.732422 91.400391 L 48.951172 90.091797 L 51.742188 91.722656 L 48.951172 93.355469 L 46.732422 92.060547 L 45.248047 92.931641 L 47.480469 94.228516 L 45.298828 95.474609 L 46.121094 96.908203 L 48.214844 95.6875 L 48.314453 98.080078 L 49.773438 97.244141 L 49.673828 94.814453 L 52.552734 93.181641 L 52.552734 96.421875 L 50.333984 97.707031 L 50.333984 99.363281 L 52.552734 98.080078 L 52.552734 100.60938 L 54.234375 100.60938 L 54.234375 98.080078 L 56.453125 99.363281 L 56.453125 97.707031 L 54.234375 96.421875 L 54.234375 93.181641 L 57.150391 94.814453 L 57.050781 97.244141 L 58.472656 98.080078 L 58.572266 95.6875 L 60.691406 96.908203 L 61.513672 95.474609 L 59.320312 94.228516 L 61.539062 92.931641 L 60.054688 92.060547 L 57.835938 93.355469 L 55.056641 91.722656 L 57.835938 90.091797 L 60.054688 91.400391 L 61.539062 90.527344 L 59.320312 89.230469 L 61.513672 87.972656 L 60.691406 86.550781 L 58.572266 87.796875 L 58.472656 85.367188 L 57.050781 86.214844 L 57.150391 88.632812 L 54.234375 90.277344 L 54.234375 87.025391 L 56.453125 85.753906 L 56.453125 84.095703 L 54.234375 85.367188 L 54.234375 82.849609 L 52.552734 82.849609 z M 15.908203 82.933594 L 14.283203 83.369141 L 14.933594 85.800781 L 12.462891 85.148438 L 12.890625 86.75 L 15.363281 87.402344 L 16.205078 90.544922 L 12.998047 89.701172 L 12.46875 87.339844 L 10.841797 86.898438 L 11.373047 89.271484 L 9.0039062 88.617188 L 8.6015625 90.195312 L 11.035156 90.845703 L 9.2148438 92.675781 L 10.873047 93.134766 L 12.677734 91.296875 L 15.796875 92.150391 L 13.523438 94.451172 L 11.044922 93.773438 L 9.8378906 95 L 12.328125 95.673828 L 10.542969 97.443359 L 11.708984 98.613281 L 13.416016 96.892578 L 14.130859 99.177734 L 15.324219 97.994141 L 14.597656 95.671875 L 16.957031 93.349609 L 17.794922 96.480469 L 15.984375 98.294922 L 16.414062 99.894531 L 18.224609 98.082031 L 18.878906 100.52539 L 20.503906 100.08984 L 19.849609 97.646484 L 22.324219 98.3125 L 21.896484 96.710938 L 19.419922 96.044922 L 18.582031 92.914062 L 21.822266 93.736328 L 22.353516 96.109375 L 23.943359 96.548828 L 23.419922 94.210938 L 25.783203 94.84375 L 26.207031 93.246094 L 23.765625 92.609375 L 25.572266 90.783203 L 23.914062 90.324219 L 22.105469 92.150391 L 19 91.292969 L 21.261719 88.996094 L 23.742188 89.6875 L 24.949219 88.460938 L 22.470703 87.78125 L 24.263672 85.998047 L 23.101562 84.839844 L 21.376953 86.591797 L 20.652344 84.269531 L 19.5 85.455078 L 20.220703 87.765625 L 17.830078 90.109375 L 16.988281 86.966797 L 18.802734 85.166016 L 18.373047 83.564453 L 16.558594 85.367188 L 15.908203 82.933594 z M 34.449219 83.138672 L 33.40625 84.927734 L 32.386719 83.162109 L 31.207031 83.84375 L 32.226562 85.609375 L 30.15625 85.615234 L 30.826172 86.779297 L 32.898438 86.771484 L 34.214844 89.054688 L 31.529297 89.066406 L 30.621094 87.330078 L 29.253906 87.326172 L 30.167969 89.070312 L 28.177734 89.054688 L 28.193359 90.375 L 30.232422 90.375 L 29.193359 92.1875 L 30.585938 92.199219 L 31.613281 90.382812 L 34.232422 90.396484 L 32.935547 92.671875 L 30.853516 92.662109 L 30.167969 93.875 L 32.257812 93.880859 L 31.232422 95.638672 L 32.388672 96.310547 L 33.363281 94.605469 L 34.402344 96.244141 L 35.087891 95.066406 L 34.033203 93.402344 L 35.392578 91.091797 L 36.703125 93.365234 L 35.667969 95.164062 L 36.339844 96.326172 L 37.375 94.527344 L 38.400391 96.302734 L 39.580078 95.621094 L 38.556641 93.845703 L 40.630859 93.847656 L 39.960938 92.685547 L 37.884766 92.683594 L 36.572266 90.410156 L 39.279297 90.373047 L 40.193359 92.119141 L 41.527344 92.128906 L 40.628906 90.410156 L 42.609375 90.410156 L 42.607422 89.070312 L 40.5625 89.083984 L 41.59375 87.277344 L 40.201172 87.265625 L 39.169922 89.074219 L 36.558594 89.054688 L 37.847656 86.783203 L 39.933594 86.802734 L 40.619141 85.589844 L 38.539062 85.578125 L 39.568359 83.806641 L 38.416016 83.144531 L 37.433594 84.876953 L 36.378906 83.210938 L 35.726562 84.380859 L 36.775391 86.037109 L 35.396484 88.373047 L 34.078125 86.091797 L 35.119141 84.300781 L 34.449219 83.138672 z "
     id="path5672" /></svg>