<?xml version="1.0" encoding="UTF-8" standalone="no"?>
<!-- Generator: Adobe Illustrator 16.0.0, SVG Export Plug-In . SVG Version: 6.00 Build 0)  -->

<svg
   xmlns:dc="http://purl.org/dc/elements/1.1/"
   xmlns:cc="http://creativecommons.org/ns#"
   xmlns:rdf="http://www.w3.org/1999/02/22-rdf-syntax-ns#"
   xmlns:svg="http://www.w3.org/2000/svg"
   xmlns="http://www.w3.org/2000/svg"
   xmlns:sodipodi="http://sodipodi.sourceforge.net/DTD/sodipodi-0.dtd"
   xmlns:inkscape="http://www.inkscape.org/namespaces/inkscape"
   version="1.1"
   id="Layer_1"
   x="0px"
   y="0px"
   width="100px"
   height="100px"
   viewBox="0 0 100 100"
   enable-background="new 0 0 100 100"
   xml:space="preserve"
   inkscape:version="0.91 r13725"
   sodipodi:docname="c-ns-xxx-r.svg"><metadata
     id="metadata53"><rdf:RDF><cc:Work
         rdf:about=""><dc:format>image/svg+xml</dc:format><dc:type
           rdf:resource="http://purl.org/dc/dcmitype/StillImage" /></cc:Work></rdf:RDF></metadata><defs
     id="defs51" /><sodipodi:namedview
     pagecolor="#ffffff"
     bordercolor="#666666"
     borderopacity="1"
     objecttolerance="10"
     gridtolerance="10"
     guidetolerance="10"
     inkscape:pageopacity="0"
     inkscape:pageshadow="2"
     inkscape:window-width="1366"
     inkscape:window-height="719"
     id="namedview49"
     showgrid="true"
     inkscape:zoom="2.8284271"
     inkscape:cx="43.118863"
     inkscape:cy="25.869559"
     inkscape:window-x="0"
     inkscape:window-y="25"
     inkscape:window-maximized="1"
     inkscape:current-layer="Layer_1"><inkscape:grid
       type="xygrid"
       id="grid4181" /></sodipodi:namedview><path
     style="color:#000000;font-style:normal;font-variant:normal;font-weight:normal;font-stretch:normal;font-size:medium;line-height:normal;font-family:sans-serif;text-indent:0;text-align:start;text-decoration:none;text-decoration-line:none;text-decoration-style:solid;text-decoration-color:#000000;letter-spacing:normal;word-spacing:normal;text-transform:none;direction:ltr;block-progression:tb;writing-mode:lr-tb;baseline-shift:baseline;text-anchor:start;white-space:normal;clip-rule:nonzero;display:inline;overflow:visible;visibility:visible;opacity:1;isolation:auto;mix-blend-mode:normal;color-interpolation:sRGB;color-interpolation-filters:linearRGB;solid-color:#000000;solid-opacity:1;fill:#0277bd;fill-opacity:1;fill-rule:nonzero;stroke:none;stroke-width:6;stroke-linecap:round;stroke-linejoin:miter;stroke-miterlimit:4;stroke-dasharray:none;stroke-dashoffset:0;stroke-opacity:1;color-rendering:auto;image-rendering:auto;shape-rendering:auto;text-rendering:auto;enable-background:accumulate"
     d="M 17.341797 82.482422 A 3.0003 3.0003 0 0 0 14.292969 84.744141 L 11.1875 96.335938 A 3.0003 3.0003 0 1 0 16.982422 97.888672 L 20.087891 86.296875 A 3.0003 3.0003 0 0 0 17.341797 82.482422 z M 29.341797 82.482422 A 3.0003 3.0003 0 0 0 26.292969 84.744141 L 23.1875 96.335938 A 3.0003 3.0003 0 1 0 28.982422 97.888672 L 32.087891 86.296875 A 3.0003 3.0003 0 0 0 29.341797 82.482422 z M 41.341797 82.482422 A 3.0003 3.0003 0 0 0 38.292969 84.744141 L 35.1875 96.335938 A 3.0003 3.0003 0 1 0 40.982422 97.888672 L 44.087891 86.296875 A 3.0003 3.0003 0 0 0 41.341797 82.482422 z M 53.341797 82.482422 A 3.0003 3.0003 0 0 0 50.292969 84.744141 L 47.1875 96.335938 A 3.0003 3.0003 0 1 0 52.982422 97.888672 L 56.087891 86.296875 A 3.0003 3.0003 0 0 0 53.341797 82.482422 z M 65.341797 82.482422 A 3.0003 3.0003 0 0 0 62.292969 84.744141 L 59.1875 96.335938 A 3.0003 3.0003 0 1 0 64.982422 97.888672 L 68.087891 86.296875 A 3.0003 3.0003 0 0 0 65.341797 82.482422 z M 77.341797 82.482422 A 3.0003 3.0003 0 0 0 74.292969 84.744141 L 71.1875 96.335938 A 3.0003 3.0003 0 1 0 76.982422 97.888672 L 80.087891 86.296875 A 3.0003 3.0003 0 0 0 77.341797 82.482422 z "
     id="path6410" /></svg>