<?xml version="1.0" encoding="UTF-8" standalone="no"?>
<!-- Generator: Adobe Illustrator 16.0.0, SVG Export Plug-In . SVG Version: 6.00 Build 0)  -->

<svg
   xmlns:dc="http://purl.org/dc/elements/1.1/"
   xmlns:cc="http://creativecommons.org/ns#"
   xmlns:rdf="http://www.w3.org/1999/02/22-rdf-syntax-ns#"
   xmlns:svg="http://www.w3.org/2000/svg"
   xmlns="http://www.w3.org/2000/svg"
   xmlns:sodipodi="http://sodipodi.sourceforge.net/DTD/sodipodi-0.dtd"
   xmlns:inkscape="http://www.inkscape.org/namespaces/inkscape"
   version="1.1"
   id="Layer_1"
   x="0px"
   y="0px"
   width="100px"
   height="100px"
   viewBox="0 0 100 100"
   enable-background="new 0 0 100 100"
   xml:space="preserve"
   inkscape:version="0.91 r13725"
   sodipodi:docname="c-ns-x-r.svg"><metadata
     id="metadata53"><rdf:RDF><cc:Work
         rdf:about=""><dc:format>image/svg+xml</dc:format><dc:type
           rdf:resource="http://purl.org/dc/dcmitype/StillImage" /></cc:Work></rdf:RDF></metadata><defs
     id="defs51" /><sodipodi:namedview
     pagecolor="#ffffff"
     bordercolor="#666666"
     borderopacity="1"
     objecttolerance="10"
     gridtolerance="10"
     guidetolerance="10"
     inkscape:pageopacity="0"
     inkscape:pageshadow="2"
     inkscape:window-width="1366"
     inkscape:window-height="719"
     id="namedview49"
     showgrid="true"
     inkscape:zoom="4"
     inkscape:cx="35.062211"
     inkscape:cy="8.0182727"
     inkscape:window-x="0"
     inkscape:window-y="25"
     inkscape:window-maximized="1"
     inkscape:current-layer="Layer_1"><inkscape:grid
       type="xygrid"
       id="grid4181" /></sodipodi:namedview><path
     style="color:#000000;font-style:normal;font-variant:normal;font-weight:normal;font-stretch:normal;font-size:medium;line-height:normal;font-family:sans-serif;text-indent:0;text-align:start;text-decoration:none;text-decoration-line:none;text-decoration-style:solid;text-decoration-color:#000000;letter-spacing:normal;word-spacing:normal;text-transform:none;direction:ltr;block-progression:tb;writing-mode:lr-tb;baseline-shift:baseline;text-anchor:start;white-space:normal;clip-rule:nonzero;display:inline;overflow:visible;visibility:visible;opacity:1;isolation:auto;mix-blend-mode:normal;color-interpolation:sRGB;color-interpolation-filters:linearRGB;solid-color:#000000;solid-opacity:1;fill:#0277bd;fill-opacity:1;fill-rule:nonzero;stroke:none;stroke-width:6;stroke-linecap:round;stroke-linejoin:miter;stroke-miterlimit:4;stroke-dasharray:none;stroke-dashoffset:0;stroke-opacity:1;color-rendering:auto;image-rendering:auto;shape-rendering:auto;text-rendering:auto;enable-background:accumulate"
     d="M 18.902344 82.486328 A 3.0003 3.0003 0 0 0 16.152344 84.748047 L 13.046875 96.337891 A 3.0003 3.0003 0 1 0 18.841797 97.890625 L 21.949219 86.300781 A 3.0003 3.0003 0 0 0 18.902344 82.486328 z M 30.902344 82.486328 A 3.0003 3.0003 0 0 0 28.152344 84.748047 L 25.046875 96.337891 A 3.0003 3.0003 0 1 0 30.841797 97.890625 L 33.949219 86.300781 A 3.0003 3.0003 0 0 0 30.902344 82.486328 z M 42.902344 82.486328 A 3.0003 3.0003 0 0 0 40.152344 84.748047 L 37.046875 96.337891 A 3.0003 3.0003 0 1 0 42.841797 97.890625 L 45.949219 86.300781 A 3.0003 3.0003 0 0 0 42.902344 82.486328 z M 54.902344 82.486328 A 3.0003 3.0003 0 0 0 52.152344 84.748047 L 49.046875 96.337891 A 3.0003 3.0003 0 1 0 54.841797 97.890625 L 57.949219 86.300781 A 3.0003 3.0003 0 0 0 54.902344 82.486328 z M 66.902344 82.486328 A 3.0003 3.0003 0 0 0 64.152344 84.748047 L 61.046875 96.337891 A 3.0003 3.0003 0 1 0 66.841797 97.890625 L 69.949219 86.300781 A 3.0003 3.0003 0 0 0 66.902344 82.486328 z "
     id="path3889-6-4-5" /></svg>