<?xml version="1.0" encoding="UTF-8" standalone="no"?>
<!-- Generator: Adobe Illustrator 16.0.0, SVG Export Plug-In . SVG Version: 6.00 Build 0)  -->

<svg
   xmlns:dc="http://purl.org/dc/elements/1.1/"
   xmlns:cc="http://creativecommons.org/ns#"
   xmlns:rdf="http://www.w3.org/1999/02/22-rdf-syntax-ns#"
   xmlns:svg="http://www.w3.org/2000/svg"
   xmlns="http://www.w3.org/2000/svg"
   xmlns:sodipodi="http://sodipodi.sourceforge.net/DTD/sodipodi-0.dtd"
   xmlns:inkscape="http://www.inkscape.org/namespaces/inkscape"
   version="1.1"
   id="Layer_1"
   x="0px"
   y="0px"
   width="100px"
   height="100px"
   viewBox="0 0 100 100"
   enable-background="new 0 0 100 100"
   xml:space="preserve"
   inkscape:version="0.91 r13725"
   sodipodi:docname="gmm-c-ns-xxx.svg"><metadata
     id="metadata53"><rdf:RDF><cc:Work
         rdf:about=""><dc:format>image/svg+xml</dc:format><dc:type
           rdf:resource="http://purl.org/dc/dcmitype/StillImage" /></cc:Work></rdf:RDF></metadata><defs
     id="defs51" /><sodipodi:namedview
     pagecolor="#ffffff"
     bordercolor="#666666"
     borderopacity="1"
     objecttolerance="10"
     gridtolerance="10"
     guidetolerance="10"
     inkscape:pageopacity="0"
     inkscape:pageshadow="2"
     inkscape:window-width="1366"
     inkscape:window-height="719"
     id="namedview49"
     showgrid="true"
     inkscape:zoom="2.8284271"
     inkscape:cx="49.12927"
     inkscape:cy="30.112201"
     inkscape:window-x="0"
     inkscape:window-y="25"
     inkscape:window-maximized="1"
     inkscape:current-layer="Layer_1"><inkscape:grid
       type="xygrid"
       id="grid4181" /></sodipodi:namedview><path
     style="fill:#bbbbbb;fill-opacity:1;stroke:#000000;stroke-width:1;stroke-linecap:butt;stroke-linejoin:miter;stroke-miterlimit:4;stroke-dasharray:none;stroke-opacity:1"
     d="m 74.8924,52.668903 c 5.5661,1.9631 9.4201,7.2681 9.4201,13.3211 0,7.7909 -6.338,14.13 -14.1289,14.13 -0.2352,0 -0.4841,-0.016 -0.7581,-0.022 l -46.28,0 c -10.3849,0 -18.833,-8.448 -18.833,-18.833 0,-4.751 1.775,-9.2888 4.999,-12.776 2.834,-3.065 6.5621,-5.0818 10.6291,-5.78 3.8738,-11.3168 14.6439,-19.092 26.7249,-19.092 15.5709,0 28.239,12.6689 28.239,28.241 0,0.2692 0,0.54 -0.015,0.811 z"
     id="path7399"
     inkscape:connector-curvature="0"
     sodipodi:nodetypes="csscssccsscc" /><path
     sodipodi:nodetypes="csscssccsscc"
     inkscape:connector-curvature="0"
     id="path7401"
     d="m 88.6224,61.843803 c 4.1746,1.4724 7.0651,5.4511 7.0651,9.9909 0,5.8432 -4.7534,10.5975 -10.5968,10.5975 -0.1763,0 -0.363,-0.013 -0.5685,-0.016 l -34.71,0 c -7.7886,0 -14.1247,-6.336 -14.1247,-14.1247 0,-3.5632 1.3313,-6.9667 3.7493,-9.5819 2.1255,-2.2988 4.9215,-3.8115 7.9718,-4.335 2.9053,-8.4878 10.983,-14.3191 20.0437,-14.3191 11.6782,0 21.1792,9.5017 21.1792,21.1807 0,0.2019 0,0.405 -0.016,0.6084 z"
     style="fill:#cccccc;fill-opacity:1;stroke:#000000;stroke-width:1;stroke-linecap:butt;stroke-linejoin:miter;stroke-miterlimit:4;stroke-dasharray:none;stroke-opacity:1" /></svg>