<?xml version="1.0" encoding="UTF-8" standalone="no"?>
<!-- Generator: Adobe Illustrator 16.0.0, SVG Export Plug-In . SVG Version: 6.00 Build 0)  -->

<svg
   xmlns:dc="http://purl.org/dc/elements/1.1/"
   xmlns:cc="http://creativecommons.org/ns#"
   xmlns:rdf="http://www.w3.org/1999/02/22-rdf-syntax-ns#"
   xmlns:svg="http://www.w3.org/2000/svg"
   xmlns="http://www.w3.org/2000/svg"
   xmlns:sodipodi="http://sodipodi.sourceforge.net/DTD/sodipodi-0.dtd"
   xmlns:inkscape="http://www.inkscape.org/namespaces/inkscape"
   version="1.1"
   id="Layer_1"
   x="0px"
   y="0px"
   width="100px"
   height="100px"
   viewBox="0 0 100 100"
   enable-background="new 0 0 100 100"
   xml:space="preserve"
   inkscape:version="0.91 r13725"
   sodipodi:docname="c-ns-x-rs.svg"><metadata
     id="metadata53"><rdf:RDF><cc:Work
         rdf:about=""><dc:format>image/svg+xml</dc:format><dc:type
           rdf:resource="http://purl.org/dc/dcmitype/StillImage" /></cc:Work></rdf:RDF></metadata><defs
     id="defs51" /><sodipodi:namedview
     pagecolor="#ffffff"
     bordercolor="#666666"
     borderopacity="1"
     objecttolerance="10"
     gridtolerance="10"
     guidetolerance="10"
     inkscape:pageopacity="0"
     inkscape:pageshadow="2"
     inkscape:window-width="1366"
     inkscape:window-height="719"
     id="namedview49"
     showgrid="true"
     inkscape:zoom="5.6568542"
     inkscape:cx="33.917375"
     inkscape:cy="13.036484"
     inkscape:window-x="0"
     inkscape:window-y="25"
     inkscape:window-maximized="1"
     inkscape:current-layer="Layer_1"><inkscape:grid
       type="xygrid"
       id="grid4181" /></sodipodi:namedview><path
     style="color:#000000;font-style:normal;font-variant:normal;font-weight:normal;font-stretch:normal;font-size:medium;line-height:normal;font-family:sans-serif;text-indent:0;text-align:start;text-decoration:none;text-decoration-line:none;text-decoration-style:solid;text-decoration-color:#000000;letter-spacing:normal;word-spacing:normal;text-transform:none;direction:ltr;block-progression:tb;writing-mode:lr-tb;baseline-shift:baseline;text-anchor:start;white-space:normal;clip-rule:nonzero;display:inline;overflow:visible;visibility:visible;opacity:1;isolation:auto;mix-blend-mode:normal;color-interpolation:sRGB;color-interpolation-filters:linearRGB;solid-color:#000000;solid-opacity:1;fill:#0277bd;fill-opacity:1;fill-rule:nonzero;stroke:none;stroke-width:6;stroke-linecap:round;stroke-linejoin:miter;stroke-miterlimit:4;stroke-dasharray:none;stroke-dashoffset:0;stroke-opacity:1;color-rendering:auto;image-rendering:auto;shape-rendering:auto;text-rendering:auto;enable-background:accumulate"
     d="M 19.859375 82.484375 A 3.0003 3.0003 0 0 0 17.109375 84.746094 L 14.003906 96.335938 A 3.0003 3.0003 0 1 0 19.798828 97.888672 L 22.90625 86.298828 A 3.0003 3.0003 0 0 0 19.859375 82.484375 z M 43.859375 82.484375 A 3.0003 3.0003 0 0 0 41.109375 84.746094 L 38.003906 96.335938 A 3.0003 3.0003 0 1 0 43.798828 97.888672 L 46.90625 86.298828 A 3.0003 3.0003 0 0 0 43.859375 82.484375 z M 55.859375 82.484375 A 3.0003 3.0003 0 0 0 53.109375 84.746094 L 50.003906 96.335938 A 3.0003 3.0003 0 1 0 55.798828 97.888672 L 58.90625 86.298828 A 3.0003 3.0003 0 0 0 55.859375 82.484375 z "
     id="path5437" /><path
     style="fill:#aaaaaa;fill-opacity:1;stroke:none"
     d="M 22.189453 82.601562 L 20.873047 82.955078 L 21.400391 84.923828 L 19.398438 84.394531 L 19.746094 85.691406 L 21.748047 86.220703 L 22.431641 88.765625 L 19.833984 88.082031 L 19.404297 86.169922 L 18.085938 85.8125 L 18.517578 87.734375 L 16.597656 87.203125 L 16.271484 88.482422 L 18.242188 89.009766 L 16.769531 90.492188 L 18.111328 90.863281 L 19.574219 89.375 L 22.099609 90.066406 L 20.257812 91.929688 L 18.25 91.380859 L 17.273438 92.375 L 19.291016 92.921875 L 17.845703 94.353516 L 18.789062 95.302734 L 20.171875 93.908203 L 20.75 95.759766 L 21.716797 94.800781 L 21.128906 92.919922 L 23.039062 91.039062 L 23.71875 93.574219 L 22.251953 95.042969 L 22.599609 96.339844 L 24.066406 94.871094 L 24.597656 96.849609 L 25.914062 96.498047 L 25.382812 94.517578 L 27.388672 95.056641 L 27.041016 93.759766 L 25.035156 93.220703 L 24.355469 90.685547 L 26.980469 91.351562 L 27.412109 93.273438 L 28.699219 93.628906 L 28.275391 91.736328 L 30.189453 92.248047 L 30.53125 90.953125 L 28.554688 90.439453 L 30.017578 88.958984 L 28.673828 88.587891 L 27.210938 90.066406 L 24.693359 89.373047 L 26.525391 87.511719 L 28.537109 88.070312 L 29.513672 87.078125 L 27.505859 86.529297 L 28.958984 85.083984 L 28.017578 84.144531 L 26.621094 85.564453 L 26.033203 83.683594 L 25.099609 84.644531 L 25.683594 86.515625 L 23.748047 88.414062 L 23.064453 85.869141 L 24.535156 84.408203 L 24.1875 83.111328 L 22.716797 84.572266 L 22.189453 82.601562 z M 60.597656 82.601562 L 60.068359 84.572266 L 58.599609 83.111328 L 58.251953 84.408203 L 59.720703 85.869141 L 59.039062 88.414062 L 57.132812 86.523438 L 57.716797 84.652344 L 56.753906 83.683594 L 56.166016 85.564453 L 54.769531 84.144531 L 53.847656 85.087891 L 55.291016 86.53125 L 53.273438 87.078125 L 54.25 88.070312 L 56.259766 87.511719 L 58.103516 89.375 L 55.576172 90.066406 L 54.111328 88.587891 L 52.769531 88.958984 L 54.242188 90.441406 L 52.275391 90.958984 L 52.617188 92.253906 L 54.511719 91.736328 L 54.087891 93.628906 L 55.404297 93.28125 L 55.835938 91.359375 L 58.431641 90.685547 L 57.751953 93.220703 L 55.746094 93.759766 L 55.398438 95.056641 L 57.404297 94.517578 L 56.873047 96.498047 L 58.189453 96.849609 L 58.720703 94.871094 L 60.1875 96.339844 L 60.535156 95.042969 L 59.068359 93.574219 L 59.748047 91.039062 L 61.6875 92.927734 L 61.099609 94.808594 L 62.035156 95.759766 L 62.615234 93.908203 L 64.017578 95.306641 L 64.960938 94.359375 L 63.505859 92.923828 L 65.513672 92.375 L 64.537109 91.380859 L 62.529297 91.929688 L 60.697266 90.070312 L 63.212891 89.375 L 64.675781 90.863281 L 66.017578 90.492188 L 64.554688 89.013672 L 66.535156 88.488281 L 66.189453 87.203125 L 64.269531 87.734375 L 64.701172 85.8125 L 63.412109 86.177734 L 62.982422 88.089844 L 60.355469 88.765625 L 61.037109 86.220703 L 63.041016 85.691406 L 63.388672 84.394531 L 61.384766 84.923828 L 61.914062 82.955078 L 60.597656 82.601562 z M 40.552734 82.845703 L 40.552734 85.363281 L 38.333984 84.091797 L 38.333984 85.75 L 40.552734 87.021484 L 40.552734 90.273438 L 37.673828 88.628906 L 37.773438 86.210938 L 36.314453 85.363281 L 36.214844 87.792969 L 34.095703 86.546875 L 33.298828 87.96875 L 35.480469 89.226562 L 33.248047 90.523438 L 34.732422 91.396484 L 36.951172 90.087891 L 39.742188 91.71875 L 36.951172 93.351562 L 34.732422 92.056641 L 33.248047 92.927734 L 35.480469 94.224609 L 33.298828 95.470703 L 34.121094 96.904297 L 36.214844 95.683594 L 36.314453 98.076172 L 37.773438 97.240234 L 37.673828 94.810547 L 40.552734 93.177734 L 40.552734 96.417969 L 38.333984 97.703125 L 38.333984 99.359375 L 40.552734 98.076172 L 40.552734 100.60547 L 42.234375 100.60547 L 42.234375 98.076172 L 44.453125 99.359375 L 44.453125 97.703125 L 42.234375 96.417969 L 42.234375 93.177734 L 45.150391 94.810547 L 45.050781 97.240234 L 46.472656 98.076172 L 46.572266 95.683594 L 48.691406 96.904297 L 49.513672 95.470703 L 47.320312 94.224609 L 49.539062 92.927734 L 48.054688 92.056641 L 45.835938 93.351562 L 43.056641 91.71875 L 45.835938 90.087891 L 48.054688 91.396484 L 49.539062 90.523438 L 47.320312 89.226562 L 49.513672 87.96875 L 48.691406 86.546875 L 46.572266 87.792969 L 46.472656 85.363281 L 45.050781 86.210938 L 45.150391 88.628906 L 42.234375 90.273438 L 42.234375 87.021484 L 44.453125 85.75 L 44.453125 84.091797 L 42.234375 85.363281 L 42.234375 82.845703 L 40.552734 82.845703 z "
     id="path5698" /></svg>