<?xml version="1.0" encoding="UTF-8" standalone="no"?>
<!-- Generator: Adobe Illustrator 16.0.0, SVG Export Plug-In . SVG Version: 6.00 Build 0)  -->

<svg
   xmlns:dc="http://purl.org/dc/elements/1.1/"
   xmlns:cc="http://creativecommons.org/ns#"
   xmlns:rdf="http://www.w3.org/1999/02/22-rdf-syntax-ns#"
   xmlns:svg="http://www.w3.org/2000/svg"
   xmlns="http://www.w3.org/2000/svg"
   xmlns:sodipodi="http://sodipodi.sourceforge.net/DTD/sodipodi-0.dtd"
   xmlns:inkscape="http://www.inkscape.org/namespaces/inkscape"
   version="1.1"
   id="Layer_1"
   x="0px"
   y="0px"
   width="100px"
   height="100px"
   viewBox="0 0 100 100"
   enable-background="new 0 0 100 100"
   xml:space="preserve"
   inkscape:version="0.91 r13725"
   sodipodi:docname="c-sc-xx-rs.svg"><metadata
     id="metadata53"><rdf:RDF><cc:Work
         rdf:about=""><dc:format>image/svg+xml</dc:format><dc:type
           rdf:resource="http://purl.org/dc/dcmitype/StillImage" /></cc:Work></rdf:RDF></metadata><defs
     id="defs51" /><sodipodi:namedview
     pagecolor="#ffffff"
     bordercolor="#666666"
     borderopacity="1"
     objecttolerance="10"
     gridtolerance="10"
     guidetolerance="10"
     inkscape:pageopacity="0"
     inkscape:pageshadow="2"
     inkscape:window-width="1366"
     inkscape:window-height="719"
     id="namedview49"
     showgrid="true"
     inkscape:zoom="4"
     inkscape:cx="53.072582"
     inkscape:cy="6.3889609"
     inkscape:window-x="0"
     inkscape:window-y="25"
     inkscape:window-maximized="1"
     inkscape:current-layer="Layer_1"><inkscape:grid
       type="xygrid"
       id="grid4181" /></sodipodi:namedview><path
     style="color:#000000;font-style:normal;font-variant:normal;font-weight:normal;font-stretch:normal;font-size:medium;line-height:normal;font-family:sans-serif;text-indent:0;text-align:start;text-decoration:none;text-decoration-line:none;text-decoration-style:solid;text-decoration-color:#000000;letter-spacing:normal;word-spacing:normal;text-transform:none;direction:ltr;block-progression:tb;writing-mode:lr-tb;baseline-shift:baseline;text-anchor:start;white-space:normal;clip-rule:nonzero;display:inline;overflow:visible;visibility:visible;opacity:1;isolation:auto;mix-blend-mode:normal;color-interpolation:sRGB;color-interpolation-filters:linearRGB;solid-color:#000000;solid-opacity:1;fill:#0277bd;fill-opacity:1;fill-rule:nonzero;stroke:none;stroke-width:6;stroke-linecap:round;stroke-linejoin:miter;stroke-miterlimit:4;stroke-dasharray:none;stroke-dashoffset:0;stroke-opacity:1;color-rendering:auto;image-rendering:auto;shape-rendering:auto;text-rendering:auto;enable-background:accumulate"
     d="M 19.152344 82.574219 A 3.0003 3.0003 0 0 0 16.404297 84.835938 L 14.851562 90.630859 A 3.0003 3.0003 0 1 0 20.646484 92.183594 L 22.199219 86.388672 A 3.0003 3.0003 0 0 0 19.152344 82.574219 z M 43.152344 82.574219 A 3.0003 3.0003 0 0 0 40.404297 84.835938 L 38.851562 90.630859 A 3.0003 3.0003 0 1 0 44.646484 92.183594 L 46.199219 86.388672 A 3.0003 3.0003 0 0 0 43.152344 82.574219 z M 52.542969 88.230469 A 3.0003 3.0003 0 0 0 49.794922 90.492188 L 48.242188 96.287109 A 3.0003 3.0003 0 1 0 54.037109 97.839844 L 55.589844 92.044922 A 3.0003 3.0003 0 0 0 52.542969 88.230469 z "
     id="path5265" /><path
     style="fill:#aaaaaa;fill-opacity:1;stroke:none"
     d="M 40.521484 82.716797 L 40.521484 85.234375 L 38.302734 83.962891 L 38.302734 85.621094 L 40.521484 86.892578 L 40.521484 90.144531 L 37.642578 88.5 L 37.742188 86.082031 L 36.283203 85.234375 L 36.183594 87.664062 L 34.064453 86.417969 L 33.267578 87.839844 L 35.447266 89.097656 L 33.216797 90.394531 L 34.701172 91.267578 L 36.917969 89.958984 L 39.710938 91.591797 L 36.917969 93.222656 L 34.701172 91.927734 L 33.216797 92.800781 L 35.447266 94.095703 L 33.267578 95.341797 L 34.089844 96.775391 L 36.183594 95.554688 L 36.283203 97.947266 L 37.742188 97.111328 L 37.642578 94.681641 L 40.521484 93.048828 L 40.521484 96.289062 L 38.302734 97.574219 L 38.302734 99.230469 L 40.521484 97.947266 L 40.521484 100.47656 L 42.203125 100.47656 L 42.203125 97.947266 L 44.421875 99.230469 L 44.421875 97.574219 L 42.203125 96.289062 L 42.203125 93.048828 L 45.119141 94.681641 L 45.019531 97.111328 L 46.441406 97.947266 L 46.541016 95.554688 L 48.660156 96.775391 L 49.482422 95.341797 L 47.289062 94.095703 L 49.507812 92.800781 L 48.023438 91.927734 L 45.804688 93.222656 L 43.025391 91.591797 L 45.804688 89.958984 L 48.023438 91.267578 L 49.507812 90.394531 L 47.289062 89.097656 L 49.482422 87.839844 L 48.660156 86.417969 L 46.541016 87.664062 L 46.441406 85.234375 L 45.019531 86.082031 L 45.119141 88.5 L 42.203125 90.144531 L 42.203125 86.892578 L 44.421875 85.621094 L 44.421875 83.962891 L 42.203125 85.234375 L 42.203125 82.716797 L 40.521484 82.716797 z M 22.484375 84.404297 L 21.525391 84.660156 L 21.910156 86.095703 L 20.451172 85.710938 L 20.703125 86.65625 L 22.164062 87.042969 L 22.660156 88.898438 L 20.767578 88.398438 L 20.455078 87.003906 L 19.492188 86.744141 L 19.806641 88.146484 L 18.408203 87.757812 L 18.169922 88.691406 L 19.607422 89.076172 L 18.533203 90.15625 L 19.511719 90.427734 L 20.578125 89.341797 L 22.419922 89.845703 L 21.076172 91.203125 L 19.613281 90.802734 L 18.900391 91.527344 L 20.371094 91.925781 L 19.316406 92.970703 L 20.005859 93.662109 L 21.013672 92.646484 L 21.435547 93.996094 L 22.140625 93.296875 L 21.710938 91.925781 L 23.103516 90.554688 L 23.599609 92.402344 L 22.529297 93.472656 L 22.783203 94.417969 L 23.853516 93.347656 L 24.240234 94.791016 L 25.199219 94.533203 L 24.8125 93.089844 L 26.273438 93.484375 L 26.021484 92.539062 L 24.558594 92.144531 L 24.064453 90.296875 L 25.976562 90.783203 L 26.291016 92.183594 L 27.228516 92.443359 L 26.919922 91.0625 L 28.316406 91.435547 L 28.566406 90.492188 L 27.125 90.117188 L 28.191406 89.039062 L 27.212891 88.767578 L 26.144531 89.845703 L 24.310547 89.339844 L 25.646484 87.982422 L 27.111328 88.390625 L 27.824219 87.666016 L 26.361328 87.265625 L 27.419922 86.212891 L 26.732422 85.527344 L 25.714844 86.5625 L 25.287109 85.191406 L 24.605469 85.892578 L 25.03125 87.255859 L 23.619141 88.640625 L 23.123047 86.785156 L 24.193359 85.720703 L 23.941406 84.775391 L 22.869141 85.839844 L 22.484375 84.404297 z M 60.240234 84.404297 L 59.855469 85.839844 L 58.783203 84.775391 L 58.529297 85.720703 L 59.601562 86.785156 L 59.103516 88.640625 L 57.712891 87.261719 L 58.140625 85.898438 L 57.4375 85.191406 L 57.009766 86.5625 L 55.992188 85.527344 L 55.318359 86.216797 L 56.371094 87.267578 L 54.900391 87.666016 L 55.613281 88.390625 L 57.078125 87.982422 L 58.421875 89.341797 L 56.580078 89.845703 L 55.511719 88.767578 L 54.533203 89.039062 L 55.607422 90.119141 L 54.171875 90.496094 L 54.421875 91.439453 L 55.802734 91.0625 L 55.494141 92.443359 L 56.455078 92.189453 L 56.769531 90.787109 L 58.660156 90.296875 L 58.166016 92.144531 L 56.703125 92.539062 L 56.451172 93.484375 L 57.912109 93.089844 L 57.525391 94.533203 L 58.484375 94.791016 L 58.871094 93.347656 L 59.941406 94.417969 L 60.193359 93.472656 L 59.125 92.402344 L 59.619141 90.554688 L 61.033203 91.931641 L 60.605469 93.302734 L 61.289062 93.996094 L 61.710938 92.646484 L 62.732422 93.666016 L 63.421875 92.974609 L 62.361328 91.927734 L 63.824219 91.527344 L 63.111328 90.802734 L 61.648438 91.203125 L 60.3125 89.847656 L 62.146484 89.341797 L 63.212891 90.427734 L 64.191406 90.15625 L 63.125 89.078125 L 64.568359 88.695312 L 64.316406 87.757812 L 62.916016 88.146484 L 63.230469 86.744141 L 62.291016 87.009766 L 61.978516 88.404297 L 60.064453 88.898438 L 60.560547 87.042969 L 62.021484 86.65625 L 62.273438 85.710938 L 60.814453 86.095703 L 61.199219 84.660156 L 60.240234 84.404297 z "
     id="path5323" /></svg>