<?xml version="1.0" encoding="UTF-8" standalone="no"?>
<!-- Generator: Adobe Illustrator 16.0.0, SVG Export Plug-In . SVG Version: 6.00 Build 0)  -->

<svg
   xmlns:dc="http://purl.org/dc/elements/1.1/"
   xmlns:cc="http://creativecommons.org/ns#"
   xmlns:rdf="http://www.w3.org/1999/02/22-rdf-syntax-ns#"
   xmlns:svg="http://www.w3.org/2000/svg"
   xmlns="http://www.w3.org/2000/svg"
   xmlns:sodipodi="http://sodipodi.sourceforge.net/DTD/sodipodi-0.dtd"
   xmlns:inkscape="http://www.inkscape.org/namespaces/inkscape"
   version="1.1"
   id="Layer_1"
   x="0px"
   y="0px"
   width="100px"
   height="100px"
   viewBox="0 0 100 100"
   enable-background="new 0 0 100 100"
   xml:space="preserve"
   inkscape:version="0.91 r13725"
   sodipodi:docname="c-sc-xx-s.svg"><metadata
     id="metadata53"><rdf:RDF><cc:Work
         rdf:about=""><dc:format>image/svg+xml</dc:format><dc:type
           rdf:resource="http://purl.org/dc/dcmitype/StillImage" /></cc:Work></rdf:RDF></metadata><defs
     id="defs51" /><sodipodi:namedview
     pagecolor="#ffffff"
     bordercolor="#666666"
     borderopacity="1"
     objecttolerance="10"
     gridtolerance="10"
     guidetolerance="10"
     inkscape:pageopacity="0"
     inkscape:pageshadow="2"
     inkscape:window-width="1366"
     inkscape:window-height="719"
     id="namedview49"
     showgrid="true"
     inkscape:zoom="5.6568542"
     inkscape:cx="20.876801"
     inkscape:cy="27.664322"
     inkscape:window-x="0"
     inkscape:window-y="25"
     inkscape:window-maximized="1"
     inkscape:current-layer="Layer_1"><inkscape:grid
       type="xygrid"
       id="grid4181" /></sodipodi:namedview><path
     style="fill:#aaaaaa;fill-opacity:1;stroke:none"
     d="M 40.519531 82.720703 L 40.519531 85.238281 L 38.300781 83.966797 L 38.300781 85.625 L 40.519531 86.896484 L 40.519531 90.148438 L 37.640625 88.503906 L 37.740234 86.085938 L 36.28125 85.238281 L 36.181641 87.667969 L 34.0625 86.421875 L 33.265625 87.84375 L 35.447266 89.101562 L 33.216797 90.398438 L 34.699219 91.271484 L 36.917969 89.962891 L 39.708984 91.595703 L 36.917969 93.226562 L 34.699219 91.931641 L 33.216797 92.804688 L 35.447266 94.099609 L 33.265625 95.345703 L 34.087891 96.779297 L 36.181641 95.558594 L 36.28125 97.951172 L 37.740234 97.115234 L 37.640625 94.685547 L 40.519531 93.052734 L 40.519531 96.292969 L 38.300781 97.578125 L 38.300781 99.234375 L 40.519531 97.951172 L 40.519531 100.48047 L 42.201172 100.48047 L 42.201172 97.951172 L 44.419922 99.234375 L 44.419922 97.578125 L 42.201172 96.292969 L 42.201172 93.052734 L 45.119141 94.685547 L 45.019531 97.115234 L 46.439453 97.951172 L 46.539062 95.558594 L 48.658203 96.779297 L 49.480469 95.345703 L 47.287109 94.099609 L 49.505859 92.804688 L 48.023438 91.931641 L 45.804688 93.226562 L 43.025391 91.595703 L 45.804688 89.962891 L 48.023438 91.271484 L 49.505859 90.398438 L 47.287109 89.101562 L 49.480469 87.84375 L 48.658203 86.421875 L 46.539062 87.667969 L 46.439453 85.238281 L 45.019531 86.085938 L 45.119141 88.503906 L 42.201172 90.148438 L 42.201172 86.896484 L 44.419922 85.625 L 44.419922 83.966797 L 42.201172 85.238281 L 42.201172 82.720703 L 40.519531 82.720703 z M 22.484375 84.408203 L 21.523438 84.664062 L 21.908203 86.099609 L 20.449219 85.714844 L 20.703125 86.660156 L 22.162109 87.046875 L 22.658203 88.902344 L 20.765625 88.402344 L 20.453125 87.007812 L 19.492188 86.748047 L 19.806641 88.150391 L 18.40625 87.761719 L 18.169922 88.695312 L 19.605469 89.080078 L 18.53125 90.160156 L 19.509766 90.431641 L 20.576172 89.345703 L 22.417969 89.849609 L 21.074219 91.207031 L 19.611328 90.806641 L 18.898438 91.53125 L 20.369141 91.929688 L 19.316406 92.974609 L 20.003906 93.666016 L 21.011719 92.650391 L 21.433594 94 L 22.138672 93.300781 L 21.710938 91.929688 L 23.103516 90.558594 L 23.597656 92.40625 L 22.529297 93.476562 L 22.783203 94.421875 L 23.851562 93.351562 L 24.238281 94.794922 L 25.197266 94.537109 L 24.810547 93.09375 L 26.273438 93.488281 L 26.019531 92.542969 L 24.558594 92.148438 L 24.0625 90.300781 L 25.974609 90.787109 L 26.291016 92.1875 L 27.228516 92.447266 L 26.919922 91.066406 L 28.314453 91.439453 L 28.564453 90.496094 L 27.123047 90.121094 L 28.189453 89.042969 L 27.210938 88.771484 L 26.144531 89.849609 L 24.308594 89.34375 L 25.644531 87.986328 L 27.109375 88.394531 L 27.822266 87.669922 L 26.359375 87.269531 L 27.417969 86.216797 L 26.732422 85.53125 L 25.712891 86.566406 L 25.285156 85.195312 L 24.603516 85.896484 L 25.03125 87.259766 L 23.619141 88.644531 L 23.121094 86.789062 L 24.193359 85.724609 L 23.939453 84.779297 L 22.869141 85.84375 L 22.484375 84.408203 z M 60.238281 84.408203 L 59.853516 85.84375 L 58.783203 84.779297 L 58.529297 85.724609 L 59.599609 86.789062 L 59.103516 88.644531 L 57.712891 87.265625 L 58.138672 85.902344 L 57.435547 85.195312 L 57.007812 86.566406 L 55.990234 85.53125 L 55.318359 86.220703 L 56.369141 87.271484 L 54.898438 87.669922 L 55.611328 88.394531 L 57.076172 87.986328 L 58.419922 89.345703 L 56.578125 89.849609 L 55.509766 88.771484 L 54.53125 89.042969 L 55.605469 90.123047 L 54.171875 90.5 L 54.421875 91.443359 L 55.802734 91.066406 L 55.494141 92.447266 L 56.453125 92.193359 L 56.767578 90.791016 L 58.658203 90.300781 L 58.164062 92.148438 L 56.703125 92.542969 L 56.449219 93.488281 L 57.910156 93.09375 L 57.523438 94.537109 L 58.484375 94.794922 L 58.871094 93.351562 L 59.939453 94.421875 L 60.193359 93.476562 L 59.123047 92.40625 L 59.619141 90.558594 L 61.033203 91.935547 L 60.603516 93.306641 L 61.287109 94 L 61.708984 92.650391 L 62.732422 93.669922 L 63.419922 92.978516 L 62.359375 91.931641 L 63.822266 91.53125 L 63.109375 90.806641 L 61.646484 91.207031 L 60.310547 89.851562 L 62.146484 89.345703 L 63.210938 90.431641 L 64.189453 90.160156 L 63.123047 89.082031 L 64.566406 88.699219 L 64.314453 87.761719 L 62.916016 88.150391 L 63.230469 86.748047 L 62.291016 87.013672 L 61.976562 88.408203 L 60.0625 88.902344 L 60.560547 87.046875 L 62.019531 86.660156 L 62.273438 85.714844 L 60.8125 86.099609 L 61.197266 84.664062 L 60.238281 84.408203 z "
     id="path7529" /></svg>