<?xml version="1.0" encoding="UTF-8" standalone="no"?>
<!-- Generator: Adobe Illustrator 16.0.0, SVG Export Plug-In . SVG Version: 6.00 Build 0)  -->

<svg
   xmlns:dc="http://purl.org/dc/elements/1.1/"
   xmlns:cc="http://creativecommons.org/ns#"
   xmlns:rdf="http://www.w3.org/1999/02/22-rdf-syntax-ns#"
   xmlns:svg="http://www.w3.org/2000/svg"
   xmlns="http://www.w3.org/2000/svg"
   xmlns:sodipodi="http://sodipodi.sourceforge.net/DTD/sodipodi-0.dtd"
   xmlns:inkscape="http://www.inkscape.org/namespaces/inkscape"
   version="1.1"
   id="Layer_1"
   x="0px"
   y="0px"
   width="100px"
   height="100px"
   viewBox="0 0 100 100"
   enable-background="new 0 0 100 100"
   xml:space="preserve"
   inkscape:version="0.91 r13725"
   sodipodi:docname="c-sc-x-rs.svg"><metadata
     id="metadata53"><rdf:RDF><cc:Work
         rdf:about=""><dc:format>image/svg+xml</dc:format><dc:type
           rdf:resource="http://purl.org/dc/dcmitype/StillImage" /></cc:Work></rdf:RDF></metadata><defs
     id="defs51" /><sodipodi:namedview
     pagecolor="#ffffff"
     bordercolor="#666666"
     borderopacity="1"
     objecttolerance="10"
     gridtolerance="10"
     guidetolerance="10"
     inkscape:pageopacity="0"
     inkscape:pageshadow="2"
     inkscape:window-width="1366"
     inkscape:window-height="719"
     id="namedview49"
     showgrid="true"
     inkscape:zoom="5.6568542"
     inkscape:cx="35.066108"
     inkscape:cy="17.605053"
     inkscape:window-x="0"
     inkscape:window-y="25"
     inkscape:window-maximized="1"
     inkscape:current-layer="Layer_1"><inkscape:grid
       type="xygrid"
       id="grid4181" /></sodipodi:namedview><path
     style="color:#000000;font-style:normal;font-variant:normal;font-weight:normal;font-stretch:normal;font-size:medium;line-height:normal;font-family:sans-serif;text-indent:0;text-align:start;text-decoration:none;text-decoration-line:none;text-decoration-style:solid;text-decoration-color:#000000;letter-spacing:normal;word-spacing:normal;text-transform:none;direction:ltr;block-progression:tb;writing-mode:lr-tb;baseline-shift:baseline;text-anchor:start;white-space:normal;clip-rule:nonzero;display:inline;overflow:visible;visibility:visible;opacity:1;isolation:auto;mix-blend-mode:normal;color-interpolation:sRGB;color-interpolation-filters:linearRGB;solid-color:#000000;solid-opacity:1;fill:#0277bd;fill-opacity:1;fill-rule:nonzero;stroke:none;stroke-width:6;stroke-linecap:round;stroke-linejoin:miter;stroke-miterlimit:4;stroke-dasharray:none;stroke-dashoffset:0;stroke-opacity:1;color-rendering:auto;image-rendering:auto;shape-rendering:auto;text-rendering:auto;enable-background:accumulate"
     d="M 19.154297 82.580078 A 3.0003 3.0003 0 0 0 16.404297 84.841797 L 14.851562 90.636719 A 3.0003 3.0003 0 1 0 20.646484 92.189453 L 22.199219 86.394531 A 3.0003 3.0003 0 0 0 19.154297 82.580078 z M 43.154297 82.580078 A 3.0003 3.0003 0 0 0 40.404297 84.841797 L 38.851562 90.636719 A 3.0003 3.0003 0 1 0 44.646484 92.189453 L 46.199219 86.394531 A 3.0003 3.0003 0 0 0 43.154297 82.580078 z M 52.544922 88.236328 A 3.0003 3.0003 0 0 0 49.794922 90.498047 L 48.242188 96.292969 A 3.0003 3.0003 0 1 0 54.037109 97.845703 L 55.589844 92.050781 A 3.0003 3.0003 0 0 0 52.544922 88.236328 z "
     id="path5255" /><path
     style="fill:#aaaaaa;fill-opacity:1;stroke:none"
     d="M 26.521484 82.722656 L 26.521484 85.240234 L 24.302734 83.96875 L 24.302734 85.626953 L 26.521484 86.898438 L 26.521484 90.150391 L 23.642578 88.505859 L 23.742188 86.087891 L 22.283203 85.240234 L 22.183594 87.669922 L 20.066406 86.423828 L 19.267578 87.845703 L 21.449219 89.103516 L 19.21875 90.400391 L 20.701172 91.273438 L 22.919922 89.962891 L 25.710938 91.595703 L 22.919922 93.228516 L 20.701172 91.933594 L 19.21875 92.804688 L 21.449219 94.101562 L 19.267578 95.347656 L 20.089844 96.78125 L 22.183594 95.560547 L 22.283203 97.953125 L 23.742188 97.117188 L 23.642578 94.6875 L 26.521484 93.054688 L 26.521484 96.294922 L 24.302734 97.578125 L 24.302734 99.236328 L 26.521484 97.953125 L 26.521484 100.48242 L 28.205078 100.48242 L 28.205078 97.953125 L 30.421875 99.236328 L 30.421875 97.578125 L 28.205078 96.294922 L 28.205078 93.054688 L 31.121094 94.6875 L 31.021484 97.117188 L 32.441406 97.953125 L 32.541016 95.560547 L 34.660156 96.78125 L 35.482422 95.347656 L 33.289062 94.101562 L 35.507812 92.804688 L 34.025391 91.933594 L 31.806641 93.228516 L 29.027344 91.595703 L 31.806641 89.962891 L 34.025391 91.273438 L 35.507812 90.400391 L 33.289062 89.103516 L 35.482422 87.845703 L 34.660156 86.423828 L 32.541016 87.669922 L 32.441406 85.240234 L 31.021484 86.087891 L 31.121094 88.505859 L 28.205078 90.150391 L 28.205078 86.898438 L 30.421875 85.626953 L 30.421875 83.96875 L 28.205078 85.240234 L 28.205078 82.722656 L 26.521484 82.722656 z M 46.240234 84.410156 L 45.855469 85.845703 L 44.785156 84.78125 L 44.53125 85.726562 L 45.601562 86.791016 L 45.105469 88.646484 L 43.714844 87.267578 L 44.140625 85.904297 L 43.439453 85.197266 L 43.009766 86.568359 L 41.992188 85.533203 L 41.320312 86.222656 L 42.371094 87.273438 L 40.900391 87.671875 L 41.613281 88.396484 L 43.080078 87.988281 L 44.421875 89.347656 L 42.580078 89.851562 L 41.513672 88.773438 L 40.533203 89.044922 L 41.607422 90.125 L 40.173828 90.501953 L 40.423828 91.445312 L 41.804688 91.068359 L 41.496094 92.449219 L 42.455078 92.195312 L 42.769531 90.792969 L 44.662109 90.302734 L 44.166016 92.150391 L 42.705078 92.542969 L 42.451172 93.490234 L 43.912109 93.095703 L 43.525391 94.539062 L 44.486328 94.796875 L 44.873047 93.353516 L 45.941406 94.423828 L 46.195312 93.478516 L 45.125 92.408203 L 45.621094 90.558594 L 47.035156 91.9375 L 46.607422 93.306641 L 47.289062 94 L 47.712891 92.650391 L 48.734375 93.671875 L 49.421875 92.980469 L 48.361328 91.933594 L 49.824219 91.533203 L 49.111328 90.808594 L 47.648438 91.208984 L 46.3125 89.853516 L 48.148438 89.347656 L 49.212891 90.431641 L 50.193359 90.162109 L 49.125 89.083984 L 50.568359 88.701172 L 50.316406 87.763672 L 48.917969 88.152344 L 49.232422 86.75 L 48.292969 87.015625 L 47.980469 88.410156 L 46.064453 88.902344 L 46.5625 87.046875 L 48.021484 86.662109 L 48.275391 85.716797 L 46.814453 86.101562 L 47.199219 84.666016 L 46.240234 84.410156 z "
     id="path5300" /></svg>