<?xml version="1.0" encoding="UTF-8" standalone="no"?>
<!-- Generator: Adobe Illustrator 16.0.0, SVG Export Plug-In . SVG Version: 6.00 Build 0)  -->

<svg
   xmlns:dc="http://purl.org/dc/elements/1.1/"
   xmlns:cc="http://creativecommons.org/ns#"
   xmlns:rdf="http://www.w3.org/1999/02/22-rdf-syntax-ns#"
   xmlns:svg="http://www.w3.org/2000/svg"
   xmlns="http://www.w3.org/2000/svg"
   xmlns:sodipodi="http://sodipodi.sourceforge.net/DTD/sodipodi-0.dtd"
   xmlns:inkscape="http://www.inkscape.org/namespaces/inkscape"
   version="1.1"
   id="Layer_1"
   x="0px"
   y="0px"
   width="100px"
   height="100px"
   viewBox="0 0 100 100"
   enable-background="new 0 0 100 100"
   xml:space="preserve"
   inkscape:version="0.91 r13725"
   sodipodi:docname="c-sc-xxx-r.svg"><metadata
     id="metadata53"><rdf:RDF><cc:Work
         rdf:about=""><dc:format>image/svg+xml</dc:format><dc:type
           rdf:resource="http://purl.org/dc/dcmitype/StillImage" /></cc:Work></rdf:RDF></metadata><defs
     id="defs51" /><sodipodi:namedview
     pagecolor="#ffffff"
     bordercolor="#666666"
     borderopacity="1"
     objecttolerance="10"
     gridtolerance="10"
     guidetolerance="10"
     inkscape:pageopacity="0"
     inkscape:pageshadow="2"
     inkscape:window-width="1366"
     inkscape:window-height="719"
     id="namedview49"
     showgrid="true"
     inkscape:zoom="5.6568542"
     inkscape:cx="11.707117"
     inkscape:cy="13.43046"
     inkscape:window-x="0"
     inkscape:window-y="25"
     inkscape:window-maximized="1"
     inkscape:current-layer="Layer_1"><inkscape:grid
       type="xygrid"
       id="grid4181" /></sodipodi:namedview><path
     style="color:#000000;font-style:normal;font-variant:normal;font-weight:normal;font-stretch:normal;font-size:medium;line-height:normal;font-family:sans-serif;text-indent:0;text-align:start;text-decoration:none;text-decoration-line:none;text-decoration-style:solid;text-decoration-color:#000000;letter-spacing:normal;word-spacing:normal;text-transform:none;direction:ltr;block-progression:tb;writing-mode:lr-tb;baseline-shift:baseline;text-anchor:start;white-space:normal;clip-rule:nonzero;display:inline;overflow:visible;visibility:visible;opacity:1;isolation:auto;mix-blend-mode:normal;color-interpolation:sRGB;color-interpolation-filters:linearRGB;solid-color:#000000;solid-opacity:1;fill:#0277bd;fill-opacity:1;fill-rule:nonzero;stroke:none;stroke-width:6;stroke-linecap:round;stroke-linejoin:miter;stroke-miterlimit:4;stroke-dasharray:none;stroke-dashoffset:0;stroke-opacity:1;color-rendering:auto;image-rendering:auto;shape-rendering:auto;text-rendering:auto;enable-background:accumulate"
     d="M 20.199219 82.582031 A 3.0003 3.0003 0 0 0 17.449219 84.84375 L 15.896484 90.638672 A 3.0003 3.0003 0 1 0 21.691406 92.191406 L 23.244141 86.396484 A 3.0003 3.0003 0 0 0 20.199219 82.582031 z M 44.199219 82.582031 A 3.0003 3.0003 0 0 0 41.449219 84.84375 L 39.896484 90.638672 A 3.0003 3.0003 0 1 0 45.691406 92.191406 L 47.244141 86.396484 A 3.0003 3.0003 0 0 0 44.199219 82.582031 z M 68.199219 82.582031 A 3.0003 3.0003 0 0 0 65.449219 84.84375 L 63.896484 90.638672 A 3.0003 3.0003 0 1 0 69.691406 92.191406 L 71.244141 86.396484 A 3.0003 3.0003 0 0 0 68.199219 82.582031 z M 29.589844 88.238281 A 3.0003 3.0003 0 0 0 26.839844 90.5 L 25.287109 96.294922 A 3.0003 3.0003 0 1 0 31.082031 97.847656 L 32.634766 92.052734 A 3.0003 3.0003 0 0 0 29.589844 88.238281 z M 53.589844 88.238281 A 3.0003 3.0003 0 0 0 50.839844 90.5 L 49.287109 96.294922 A 3.0003 3.0003 0 1 0 55.082031 97.847656 L 56.634766 92.052734 A 3.0003 3.0003 0 0 0 53.589844 88.238281 z "
     id="path5965" /></svg>