<?xml version="1.0" encoding="UTF-8" standalone="no"?>
<!-- Generator: Adobe Illustrator 16.0.0, SVG Export Plug-In . SVG Version: 6.00 Build 0)  -->

<svg
   xmlns:dc="http://purl.org/dc/elements/1.1/"
   xmlns:cc="http://creativecommons.org/ns#"
   xmlns:rdf="http://www.w3.org/1999/02/22-rdf-syntax-ns#"
   xmlns:svg="http://www.w3.org/2000/svg"
   xmlns="http://www.w3.org/2000/svg"
   xmlns:sodipodi="http://sodipodi.sourceforge.net/DTD/sodipodi-0.dtd"
   xmlns:inkscape="http://www.inkscape.org/namespaces/inkscape"
   version="1.1"
   id="Layer_1"
   x="0px"
   y="0px"
   width="100px"
   height="100px"
   viewBox="0 0 100 100"
   enable-background="new 0 0 100 100"
   xml:space="preserve"
   inkscape:version="0.91 r13725"
   sodipodi:docname="c-sc-xxx-rs.svg"><metadata
     id="metadata53"><rdf:RDF><cc:Work
         rdf:about=""><dc:format>image/svg+xml</dc:format><dc:type
           rdf:resource="http://purl.org/dc/dcmitype/StillImage" /></cc:Work></rdf:RDF></metadata><defs
     id="defs51" /><sodipodi:namedview
     pagecolor="#ffffff"
     bordercolor="#666666"
     borderopacity="1"
     objecttolerance="10"
     gridtolerance="10"
     guidetolerance="10"
     inkscape:pageopacity="0"
     inkscape:pageshadow="2"
     inkscape:window-width="1366"
     inkscape:window-height="719"
     id="namedview49"
     showgrid="true"
     inkscape:zoom="8"
     inkscape:cx="54.916705"
     inkscape:cy="2.4443147"
     inkscape:window-x="0"
     inkscape:window-y="25"
     inkscape:window-maximized="1"
     inkscape:current-layer="Layer_1"><inkscape:grid
       type="xygrid"
       id="grid4181" /></sodipodi:namedview><path
     style="color:#000000;font-style:normal;font-variant:normal;font-weight:normal;font-stretch:normal;font-size:medium;line-height:normal;font-family:sans-serif;text-indent:0;text-align:start;text-decoration:none;text-decoration-line:none;text-decoration-style:solid;text-decoration-color:#000000;letter-spacing:normal;word-spacing:normal;text-transform:none;direction:ltr;block-progression:tb;writing-mode:lr-tb;baseline-shift:baseline;text-anchor:start;white-space:normal;clip-rule:nonzero;display:inline;overflow:visible;visibility:visible;opacity:1;isolation:auto;mix-blend-mode:normal;color-interpolation:sRGB;color-interpolation-filters:linearRGB;solid-color:#000000;solid-opacity:1;fill:#0277bd;fill-opacity:1;fill-rule:nonzero;stroke:none;stroke-width:6;stroke-linecap:round;stroke-linejoin:miter;stroke-miterlimit:4;stroke-dasharray:none;stroke-dashoffset:0;stroke-opacity:1;color-rendering:auto;image-rendering:auto;shape-rendering:auto;text-rendering:auto;enable-background:accumulate"
     d="M 21.453125 82.583984 A 3.0003 3.0003 0 0 0 18.404297 84.845703 L 16.851562 90.640625 A 3.0006147 3.0006147 0 0 0 22.648438 92.193359 L 24.201172 86.398438 A 3.0003 3.0003 0 0 0 21.453125 82.583984 z M 69.453125 82.583984 A 3.0003 3.0003 0 0 0 66.404297 84.845703 L 64.851562 90.640625 A 3.0006147 3.0006147 0 0 0 70.648438 92.193359 L 72.201172 86.398438 A 3.0003 3.0003 0 0 0 69.453125 82.583984 z M 54.84375 88.240234 A 3.0003 3.0003 0 0 0 51.794922 90.501953 L 50.242188 96.296875 A 3.0006137 3.0006137 0 1 0 56.039062 97.849609 L 57.591797 92.054688 A 3.0003 3.0003 0 0 0 54.84375 88.240234 z "
     id="path5275" /><path
     style="fill:#aaaaaa;fill-opacity:1;stroke:none"
     d="M 58.521484 82.726562 L 58.521484 85.244141 L 56.302734 83.974609 L 56.302734 85.630859 L 58.521484 86.902344 L 58.521484 90.15625 L 55.642578 88.509766 L 55.742188 86.091797 L 54.285156 85.244141 L 54.185547 87.675781 L 52.066406 86.429688 L 51.267578 87.849609 L 53.449219 89.109375 L 51.21875 90.404297 L 52.701172 91.277344 L 54.919922 89.96875 L 57.712891 91.601562 L 54.919922 93.234375 L 52.701172 91.9375 L 51.21875 92.810547 L 53.449219 94.107422 L 51.267578 95.353516 L 52.091797 96.787109 L 54.185547 95.564453 L 54.285156 97.957031 L 55.742188 97.123047 L 55.642578 94.693359 L 58.521484 93.060547 L 58.521484 96.300781 L 56.302734 97.583984 L 56.302734 99.242188 L 58.521484 97.957031 L 58.521484 100.48828 L 60.205078 100.48828 L 60.205078 97.957031 L 62.423828 99.242188 L 62.423828 97.583984 L 60.205078 96.300781 L 60.205078 93.060547 L 63.121094 94.693359 L 63.021484 97.123047 L 64.441406 97.957031 L 64.542969 95.564453 L 66.660156 96.787109 L 67.484375 95.353516 L 65.289062 94.107422 L 67.507812 92.810547 L 66.025391 91.9375 L 63.806641 93.234375 L 61.027344 91.601562 L 63.806641 89.96875 L 66.025391 91.277344 L 67.507812 90.404297 L 65.289062 89.109375 L 67.484375 87.849609 L 66.660156 86.429688 L 64.542969 87.675781 L 64.441406 85.244141 L 63.021484 86.091797 L 63.121094 88.509766 L 60.205078 90.15625 L 60.205078 86.902344 L 62.423828 85.630859 L 62.423828 83.974609 L 60.205078 85.244141 L 60.205078 82.726562 L 58.521484 82.726562 z M 21.876953 82.8125 L 20.251953 83.248047 L 20.904297 85.679688 L 18.431641 85.025391 L 18.861328 86.626953 L 21.333984 87.28125 L 22.175781 90.423828 L 18.96875 89.578125 L 18.439453 87.216797 L 16.810547 86.777344 L 17.34375 89.150391 L 14.974609 88.494141 L 14.572266 90.072266 L 17.003906 90.724609 L 15.185547 92.554688 L 16.84375 93.013672 L 18.646484 91.173828 L 21.767578 92.029297 L 19.492188 94.328125 L 17.013672 93.650391 L 15.806641 94.876953 L 18.296875 95.552734 L 16.513672 97.320312 L 17.679688 98.492188 L 19.384766 96.769531 L 20.101562 99.056641 L 21.292969 97.871094 L 20.568359 95.550781 L 22.925781 93.228516 L 23.765625 96.357422 L 21.955078 98.171875 L 22.382812 99.773438 L 24.195312 97.958984 L 24.849609 100.40234 L 26.474609 99.966797 L 25.820312 97.523438 L 28.294922 98.189453 L 27.865234 96.587891 L 25.390625 95.921875 L 24.552734 92.792969 L 27.791016 93.615234 L 28.324219 95.988281 L 29.912109 96.427734 L 29.390625 94.089844 L 31.751953 94.720703 L 32.175781 93.123047 L 29.734375 92.488281 L 31.542969 90.662109 L 29.882812 90.203125 L 28.076172 92.029297 L 24.96875 91.171875 L 27.230469 88.875 L 29.712891 89.564453 L 30.919922 88.337891 L 28.441406 87.660156 L 30.234375 85.876953 L 29.072266 84.716797 L 27.347656 86.46875 L 26.623047 84.146484 L 25.46875 85.333984 L 26.191406 87.642578 L 23.800781 89.988281 L 22.958984 86.845703 L 24.771484 85.042969 L 24.34375 83.441406 L 22.529297 85.244141 L 21.876953 82.8125 z M 78.240234 84.414062 L 77.855469 85.849609 L 76.785156 84.785156 L 76.53125 85.730469 L 77.603516 86.794922 L 77.105469 88.650391 L 75.714844 87.273438 L 76.140625 85.908203 L 75.439453 85.203125 L 75.009766 86.574219 L 73.992188 85.539062 L 73.320312 86.226562 L 74.373047 87.279297 L 72.902344 87.677734 L 73.613281 88.400391 L 75.080078 87.994141 L 76.421875 89.351562 L 74.580078 89.855469 L 73.513672 88.777344 L 72.533203 89.048828 L 73.607422 90.128906 L 72.173828 90.505859 L 72.423828 91.449219 L 73.804688 91.074219 L 73.496094 92.453125 L 74.455078 92.199219 L 74.769531 90.798828 L 76.662109 90.306641 L 76.166016 92.15625 L 74.705078 92.548828 L 74.451172 93.494141 L 75.912109 93.101562 L 75.527344 94.544922 L 76.486328 94.800781 L 76.873047 93.357422 L 77.941406 94.429688 L 78.195312 93.484375 L 77.126953 92.412109 L 77.621094 90.564453 L 79.035156 91.941406 L 78.607422 93.3125 L 79.289062 94.005859 L 79.712891 92.65625 L 80.734375 93.675781 L 81.421875 92.984375 L 80.361328 91.939453 L 81.826172 91.539062 L 81.113281 90.814453 L 79.648438 91.214844 L 78.3125 89.859375 L 80.148438 89.351562 L 81.212891 90.4375 L 82.193359 90.166016 L 81.125 89.087891 L 82.568359 88.705078 L 82.316406 87.769531 L 80.917969 88.15625 L 81.232422 86.755859 L 80.292969 87.021484 L 79.980469 88.416016 L 78.064453 88.908203 L 78.5625 87.052734 L 80.021484 86.666016 L 80.275391 85.720703 L 78.816406 86.107422 L 79.201172 84.671875 L 78.240234 84.414062 z M 40.673828 84.802734 L 39.916016 86.107422 L 39.171875 84.820312 L 38.3125 85.316406 L 39.054688 86.603516 L 37.544922 86.609375 L 38.035156 87.457031 L 39.544922 87.451172 L 40.503906 89.115234 L 38.546875 89.123047 L 37.884766 87.857422 L 36.888672 87.855469 L 37.554688 89.126953 L 36.103516 89.115234 L 36.115234 90.078125 L 37.601562 90.078125 L 36.84375 91.398438 L 37.859375 91.40625 L 38.607422 90.082031 L 40.517578 90.09375 L 39.572266 91.751953 L 38.054688 91.744141 L 37.552734 92.628906 L 39.078125 92.632812 L 38.330078 93.914062 L 39.173828 94.404297 L 39.882812 93.162109 L 40.640625 94.355469 L 41.140625 93.498047 L 40.371094 92.285156 L 41.361328 90.599609 L 42.318359 92.257812 L 41.5625 93.568359 L 42.052734 94.416016 L 42.808594 93.105469 L 43.554688 94.398438 L 44.416016 93.902344 L 43.667969 92.607422 L 45.181641 92.609375 L 44.693359 91.761719 L 43.179688 91.759766 L 42.222656 90.103516 L 44.195312 90.078125 L 44.863281 91.349609 L 45.835938 91.357422 L 45.179688 90.103516 L 46.625 90.103516 L 46.621094 89.126953 L 45.132812 89.136719 L 45.884766 87.820312 L 44.867188 87.810547 L 44.115234 89.128906 L 42.212891 89.115234 L 43.152344 87.458984 L 44.671875 87.472656 L 45.173828 86.589844 L 43.65625 86.582031 L 44.40625 85.291016 L 43.566406 84.806641 L 42.851562 86.070312 L 42.082031 84.855469 L 41.605469 85.708984 L 42.371094 86.916016 L 41.365234 88.619141 L 40.404297 86.955078 L 41.164062 85.650391 L 40.673828 84.802734 z "
     id="path5353" /></svg>