<?xml version="1.0" encoding="UTF-8" standalone="no"?>
<!-- Generator: Adobe Illustrator 16.0.0, SVG Export Plug-In . SVG Version: 6.00 Build 0)  -->

<svg
   xmlns:dc="http://purl.org/dc/elements/1.1/"
   xmlns:cc="http://creativecommons.org/ns#"
   xmlns:rdf="http://www.w3.org/1999/02/22-rdf-syntax-ns#"
   xmlns:svg="http://www.w3.org/2000/svg"
   xmlns="http://www.w3.org/2000/svg"
   xmlns:sodipodi="http://sodipodi.sourceforge.net/DTD/sodipodi-0.dtd"
   xmlns:inkscape="http://www.inkscape.org/namespaces/inkscape"
   version="1.1"
   id="Layer_1"
   x="0px"
   y="0px"
   width="100px"
   height="100px"
   viewBox="0 0 100 100"
   enable-background="new 0 0 100 100"
   xml:space="preserve"
   inkscape:version="0.91 r13725"
   sodipodi:docname="c-sc-x-s.svg"><metadata
     id="metadata53"><rdf:RDF><cc:Work
         rdf:about=""><dc:format>image/svg+xml</dc:format><dc:type
           rdf:resource="http://purl.org/dc/dcmitype/StillImage" /></cc:Work></rdf:RDF></metadata><defs
     id="defs51" /><sodipodi:namedview
     pagecolor="#ffffff"
     bordercolor="#666666"
     borderopacity="1"
     objecttolerance="10"
     gridtolerance="10"
     guidetolerance="10"
     inkscape:pageopacity="0"
     inkscape:pageshadow="2"
     inkscape:window-width="1366"
     inkscape:window-height="719"
     id="namedview49"
     showgrid="true"
     inkscape:zoom="4"
     inkscape:cx="25.091777"
     inkscape:cy="24.166241"
     inkscape:window-x="0"
     inkscape:window-y="25"
     inkscape:window-maximized="1"
     inkscape:current-layer="Layer_1"><inkscape:grid
       type="xygrid"
       id="grid4181" /></sodipodi:namedview><path
     style="fill:#aaaaaa;fill-opacity:1;stroke:none"
     d="M 26.523438 82.724609 L 26.523438 85.242188 L 24.304688 83.970703 L 24.304688 85.628906 L 26.523438 86.900391 L 26.523438 90.152344 L 23.644531 88.507812 L 23.744141 86.089844 L 22.285156 85.242188 L 22.185547 87.671875 L 20.066406 86.425781 L 19.269531 87.847656 L 21.451172 89.105469 L 19.220703 90.402344 L 20.703125 91.275391 L 22.921875 89.966797 L 25.712891 91.599609 L 22.921875 93.230469 L 20.703125 91.935547 L 19.220703 92.808594 L 21.451172 94.103516 L 19.269531 95.349609 L 20.091797 96.783203 L 22.185547 95.5625 L 22.285156 97.955078 L 23.744141 97.119141 L 23.644531 94.689453 L 26.523438 93.056641 L 26.523438 96.296875 L 24.304688 97.582031 L 24.304688 99.238281 L 26.523438 97.955078 L 26.523438 100.48438 L 28.205078 100.48438 L 28.205078 97.955078 L 30.423828 99.238281 L 30.423828 97.582031 L 28.205078 96.296875 L 28.205078 93.056641 L 31.123047 94.689453 L 31.023438 97.119141 L 32.443359 97.955078 L 32.542969 95.5625 L 34.662109 96.783203 L 35.484375 95.349609 L 33.291016 94.103516 L 35.509766 92.808594 L 34.027344 91.935547 L 31.808594 93.230469 L 29.029297 91.599609 L 31.808594 89.966797 L 34.027344 91.275391 L 35.509766 90.402344 L 33.291016 89.105469 L 35.484375 87.847656 L 34.662109 86.425781 L 32.542969 87.671875 L 32.443359 85.242188 L 31.023438 86.089844 L 31.123047 88.507812 L 28.205078 90.152344 L 28.205078 86.900391 L 30.423828 85.628906 L 30.423828 83.970703 L 28.205078 85.242188 L 28.205078 82.724609 L 26.523438 82.724609 z M 46.242188 84.412109 L 45.857422 85.847656 L 44.787109 84.783203 L 44.533203 85.728516 L 45.603516 86.792969 L 45.107422 88.648438 L 43.716797 87.269531 L 44.142578 85.90625 L 43.439453 85.199219 L 43.011719 86.570312 L 41.994141 85.535156 L 41.322266 86.224609 L 42.373047 87.275391 L 40.902344 87.673828 L 41.615234 88.398438 L 43.080078 87.990234 L 44.423828 89.349609 L 42.582031 89.853516 L 41.513672 88.775391 L 40.535156 89.046875 L 41.609375 90.126953 L 40.175781 90.503906 L 40.425781 91.447266 L 41.806641 91.070312 L 41.498047 92.451172 L 42.457031 92.197266 L 42.771484 90.794922 L 44.662109 90.304688 L 44.167969 92.152344 L 42.707031 92.546875 L 42.453125 93.492188 L 43.914062 93.097656 L 43.527344 94.541016 L 44.488281 94.798828 L 44.875 93.355469 L 45.943359 94.425781 L 46.197266 93.480469 L 45.126953 92.410156 L 45.623047 90.5625 L 47.037109 91.939453 L 46.607422 93.310547 L 47.291016 94.003906 L 47.712891 92.654297 L 48.736328 93.673828 L 49.423828 92.982422 L 48.363281 91.935547 L 49.826172 91.535156 L 49.113281 90.810547 L 47.650391 91.210938 L 46.314453 89.855469 L 48.150391 89.349609 L 49.214844 90.435547 L 50.193359 90.164062 L 49.126953 89.085938 L 50.570312 88.703125 L 50.318359 87.765625 L 48.919922 88.154297 L 49.234375 86.751953 L 48.294922 87.017578 L 47.980469 88.412109 L 46.066406 88.90625 L 46.564453 87.050781 L 48.023438 86.664062 L 48.277344 85.71875 L 46.816406 86.103516 L 47.201172 84.667969 L 46.242188 84.412109 z "
     id="path7372-7" /></svg>