<?xml version="1.0" encoding="UTF-8" standalone="no"?>
<!-- Generator: Adobe Illustrator 16.0.0, SVG Export Plug-In . SVG Version: 6.00 Build 0)  -->

<svg
   xmlns:dc="http://purl.org/dc/elements/1.1/"
   xmlns:cc="http://creativecommons.org/ns#"
   xmlns:rdf="http://www.w3.org/1999/02/22-rdf-syntax-ns#"
   xmlns:svg="http://www.w3.org/2000/svg"
   xmlns="http://www.w3.org/2000/svg"
   xmlns:sodipodi="http://sodipodi.sourceforge.net/DTD/sodipodi-0.dtd"
   xmlns:inkscape="http://www.inkscape.org/namespaces/inkscape"
   version="1.1"
   id="Layer_1"
   x="0px"
   y="0px"
   width="100px"
   height="100px"
   viewBox="0 0 100 100"
   enable-background="new 0 0 100 100"
   xml:space="preserve"
   inkscape:version="0.91 r13725"
   sodipodi:docname="c-sc-xxx-s.svg"><metadata
     id="metadata53"><rdf:RDF><cc:Work
         rdf:about=""><dc:format>image/svg+xml</dc:format><dc:type
           rdf:resource="http://purl.org/dc/dcmitype/StillImage" /></cc:Work></rdf:RDF></metadata><defs
     id="defs51" /><sodipodi:namedview
     pagecolor="#ffffff"
     bordercolor="#666666"
     borderopacity="1"
     objecttolerance="10"
     gridtolerance="10"
     guidetolerance="10"
     inkscape:pageopacity="0"
     inkscape:pageshadow="2"
     inkscape:window-width="1366"
     inkscape:window-height="719"
     id="namedview49"
     showgrid="true"
     inkscape:zoom="4"
     inkscape:cx="26.123525"
     inkscape:cy="32.695349"
     inkscape:window-x="0"
     inkscape:window-y="25"
     inkscape:window-maximized="1"
     inkscape:current-layer="Layer_1"><inkscape:grid
       type="xygrid"
       id="grid4181" /></sodipodi:namedview><path
     style="fill:#aaaaaa;fill-opacity:1;stroke:none"
     d="M 58.521484 82.724609 L 58.521484 85.242188 L 56.302734 83.970703 L 56.302734 85.628906 L 58.521484 86.898438 L 58.521484 90.152344 L 55.642578 88.507812 L 55.742188 86.089844 L 54.283203 85.242188 L 54.183594 87.671875 L 52.064453 86.425781 L 51.267578 87.845703 L 53.449219 89.105469 L 51.216797 90.402344 L 52.701172 91.273438 L 54.919922 89.964844 L 57.710938 91.597656 L 54.919922 93.230469 L 52.701172 91.933594 L 51.216797 92.806641 L 53.449219 94.103516 L 51.267578 95.349609 L 52.089844 96.783203 L 54.183594 95.560547 L 54.283203 97.955078 L 55.742188 97.119141 L 55.642578 94.689453 L 58.521484 93.056641 L 58.521484 96.296875 L 56.302734 97.580078 L 56.302734 99.238281 L 58.521484 97.955078 L 58.521484 100.48438 L 60.203125 100.48438 L 60.203125 97.955078 L 62.421875 99.238281 L 62.421875 97.580078 L 60.203125 96.296875 L 60.203125 93.056641 L 63.121094 94.689453 L 63.019531 97.119141 L 64.441406 97.955078 L 64.541016 95.560547 L 66.660156 96.783203 L 67.482422 95.349609 L 65.289062 94.103516 L 67.507812 92.806641 L 66.023438 91.933594 L 63.806641 93.230469 L 61.025391 91.597656 L 63.806641 89.964844 L 66.023438 91.273438 L 67.507812 90.402344 L 65.289062 89.105469 L 67.482422 87.845703 L 66.660156 86.425781 L 64.541016 87.671875 L 64.441406 85.242188 L 63.019531 86.089844 L 63.121094 88.507812 L 60.203125 90.152344 L 60.203125 86.898438 L 62.421875 85.628906 L 62.421875 83.970703 L 60.203125 85.242188 L 60.203125 82.724609 L 58.521484 82.724609 z M 21.876953 82.808594 L 20.251953 83.244141 L 20.902344 85.675781 L 18.431641 85.021484 L 18.859375 86.623047 L 21.332031 87.277344 L 22.173828 90.419922 L 18.966797 89.576172 L 18.4375 87.214844 L 16.810547 86.773438 L 17.341797 89.146484 L 14.972656 88.490234 L 14.570312 90.070312 L 17.003906 90.720703 L 15.183594 92.550781 L 16.841797 93.009766 L 18.646484 91.171875 L 21.765625 92.025391 L 19.492188 94.326172 L 17.013672 93.648438 L 15.806641 94.875 L 18.296875 95.548828 L 16.511719 97.316406 L 17.677734 98.488281 L 19.384766 96.767578 L 20.099609 99.052734 L 21.292969 97.869141 L 20.566406 95.546875 L 22.925781 93.224609 L 23.763672 96.355469 L 21.953125 98.167969 L 22.382812 99.769531 L 24.193359 97.955078 L 24.847656 100.40039 L 26.472656 99.964844 L 25.818359 97.519531 L 28.292969 98.185547 L 27.865234 96.583984 L 25.388672 95.919922 L 24.550781 92.789062 L 27.791016 93.611328 L 28.324219 95.984375 L 29.912109 96.423828 L 29.388672 94.085938 L 31.751953 94.716797 L 32.175781 93.121094 L 29.734375 92.484375 L 31.541016 90.658203 L 29.882812 90.199219 L 28.076172 92.025391 L 24.96875 91.167969 L 27.230469 88.871094 L 29.710938 89.560547 L 30.917969 88.333984 L 28.439453 87.65625 L 30.232422 85.873047 L 29.070312 84.712891 L 27.347656 86.464844 L 26.621094 84.144531 L 25.46875 85.330078 L 26.191406 87.640625 L 23.798828 89.984375 L 22.957031 86.841797 L 24.771484 85.039062 L 24.341797 83.439453 L 22.527344 85.240234 L 21.876953 82.808594 z M 78.240234 84.410156 L 77.855469 85.845703 L 76.783203 84.783203 L 76.53125 85.728516 L 77.601562 86.792969 L 77.103516 88.648438 L 75.712891 87.269531 L 76.140625 85.90625 L 75.4375 85.199219 L 75.009766 86.570312 L 73.992188 85.535156 L 73.320312 86.224609 L 74.371094 87.275391 L 72.900391 87.673828 L 73.613281 88.398438 L 75.078125 87.990234 L 76.421875 89.347656 L 74.580078 89.853516 L 73.511719 88.775391 L 72.533203 89.044922 L 73.607422 90.125 L 72.173828 90.503906 L 72.423828 91.447266 L 73.804688 91.070312 L 73.494141 92.449219 L 74.455078 92.197266 L 74.769531 90.794922 L 76.660156 90.304688 L 76.166016 92.152344 L 74.703125 92.544922 L 74.451172 93.490234 L 75.912109 93.097656 L 75.525391 94.541016 L 76.484375 94.798828 L 76.871094 93.355469 L 77.941406 94.425781 L 78.193359 93.480469 L 77.125 92.410156 L 77.621094 90.560547 L 79.035156 91.9375 L 78.605469 93.308594 L 79.289062 94.001953 L 79.710938 92.652344 L 80.732422 93.673828 L 81.421875 92.982422 L 80.361328 91.935547 L 81.824219 91.535156 L 81.111328 90.810547 L 79.648438 91.210938 L 78.3125 89.855469 L 80.146484 89.347656 L 81.212891 90.433594 L 82.191406 90.162109 L 81.125 89.083984 L 82.568359 88.701172 L 82.316406 87.765625 L 80.917969 88.152344 L 81.232422 86.751953 L 80.291016 87.017578 L 79.978516 88.412109 L 78.064453 88.904297 L 78.560547 87.048828 L 80.021484 86.664062 L 80.273438 85.716797 L 78.814453 86.103516 L 79.199219 84.667969 L 78.240234 84.410156 z M 40.673828 84.798828 L 39.914062 86.103516 L 39.171875 84.816406 L 38.310547 85.3125 L 39.054688 86.599609 L 37.544922 86.605469 L 38.033203 87.453125 L 39.542969 87.447266 L 40.503906 89.111328 L 38.544922 89.121094 L 37.882812 87.853516 L 36.886719 87.851562 L 37.552734 89.123047 L 36.101562 89.111328 L 36.113281 90.074219 L 37.601562 90.074219 L 36.841797 91.394531 L 37.859375 91.404297 L 38.607422 90.080078 L 40.515625 90.089844 L 39.570312 91.75 L 38.052734 91.742188 L 37.552734 92.625 L 39.076172 92.628906 L 38.328125 93.912109 L 39.171875 94.400391 L 39.882812 93.158203 L 40.640625 94.353516 L 41.138672 93.496094 L 40.371094 92.28125 L 41.361328 90.597656 L 42.318359 92.253906 L 41.5625 93.564453 L 42.052734 94.414062 L 42.806641 93.101562 L 43.554688 94.394531 L 44.414062 93.898438 L 43.667969 92.605469 L 45.181641 92.605469 L 44.691406 91.757812 L 43.177734 91.757812 L 42.220703 90.099609 L 44.195312 90.074219 L 44.861328 91.345703 L 45.833984 91.353516 L 45.179688 90.099609 L 46.623047 90.099609 L 46.621094 89.123047 L 45.130859 89.134766 L 45.882812 87.816406 L 44.867188 87.808594 L 44.115234 89.125 L 42.210938 89.111328 L 43.150391 87.455078 L 44.671875 87.470703 L 45.171875 86.585938 L 43.65625 86.578125 L 44.40625 85.287109 L 43.566406 84.802734 L 42.849609 86.066406 L 42.082031 84.853516 L 41.605469 85.705078 L 42.369141 86.912109 L 41.363281 88.615234 L 40.404297 86.951172 L 41.162109 85.646484 L 40.673828 84.798828 z "
     id="path7547" /></svg>