<?xml version="1.0" encoding="UTF-8" standalone="no"?>
<!-- Generator: Adobe Illustrator 16.0.0, SVG Export Plug-In . SVG Version: 6.00 Build 0)  -->

<svg
   xmlns:dc="http://purl.org/dc/elements/1.1/"
   xmlns:cc="http://creativecommons.org/ns#"
   xmlns:rdf="http://www.w3.org/1999/02/22-rdf-syntax-ns#"
   xmlns:svg="http://www.w3.org/2000/svg"
   xmlns="http://www.w3.org/2000/svg"
   xmlns:sodipodi="http://sodipodi.sourceforge.net/DTD/sodipodi-0.dtd"
   xmlns:inkscape="http://www.inkscape.org/namespaces/inkscape"
   version="1.1"
   id="Layer_1"
   x="0px"
   y="0px"
   width="100px"
   height="100px"
   viewBox="0 0 100 100"
   enable-background="new 0 0 100 100"
   xml:space="preserve"
   inkscape:version="0.91 r13725"
   sodipodi:docname="c-st-xx-rs.svg"><metadata
     id="metadata53"><rdf:RDF><cc:Work
         rdf:about=""><dc:format>image/svg+xml</dc:format><dc:type
           rdf:resource="http://purl.org/dc/dcmitype/StillImage" /></cc:Work></rdf:RDF></metadata><defs
     id="defs51" /><sodipodi:namedview
     pagecolor="#ffffff"
     bordercolor="#666666"
     borderopacity="1"
     objecttolerance="10"
     gridtolerance="10"
     guidetolerance="10"
     inkscape:pageopacity="0"
     inkscape:pageshadow="2"
     inkscape:window-width="1366"
     inkscape:window-height="719"
     id="namedview49"
     showgrid="true"
     inkscape:zoom="7.9999999"
     inkscape:cx="53.088468"
     inkscape:cy="4.0702483"
     inkscape:window-x="0"
     inkscape:window-y="25"
     inkscape:window-maximized="1"
     inkscape:current-layer="Layer_1"><inkscape:grid
       type="xygrid"
       id="grid4181" /></sodipodi:namedview><path
     style="color:#000000;font-style:normal;font-variant:normal;font-weight:normal;font-stretch:normal;font-size:medium;line-height:normal;font-family:sans-serif;text-indent:0;text-align:start;text-decoration:none;text-decoration-line:none;text-decoration-style:solid;text-decoration-color:#000000;letter-spacing:normal;word-spacing:normal;text-transform:none;direction:ltr;block-progression:tb;writing-mode:lr-tb;baseline-shift:baseline;text-anchor:start;white-space:normal;clip-rule:nonzero;display:inline;overflow:visible;visibility:visible;opacity:1;isolation:auto;mix-blend-mode:normal;color-interpolation:sRGB;color-interpolation-filters:linearRGB;solid-color:#000000;solid-opacity:1;fill:#0277bd;fill-opacity:1;fill-rule:nonzero;stroke:none;stroke-width:4;stroke-linecap:round;stroke-linejoin:miter;stroke-miterlimit:4;stroke-dasharray:none;stroke-dashoffset:0;stroke-opacity:1;color-rendering:auto;image-rendering:auto;shape-rendering:auto;text-rendering:auto;enable-background:accumulate"
     d="M 30.599609 83.742188 A 2.0002 2.0002 0 0 0 28.765625 85.25 L 27.988281 88.148438 A 2.0007242 2.0007242 0 1 0 31.853516 89.183594 L 32.628906 86.285156 A 2.0002 2.0002 0 0 0 30.798828 83.742188 A 2.0002 2.0002 0 0 0 30.599609 83.742188 z M 20.787109 88.498047 A 2.0002 2.0002 0 0 0 18.955078 90.005859 L 18.177734 92.902344 A 2.0009771 2.0009771 0 0 0 22.042969 93.939453 L 22.818359 91.041016 A 2.0002 2.0002 0 0 0 20.787109 88.498047 z M 52.787109 88.498047 A 2.0002 2.0002 0 0 0 50.955078 90.005859 L 50.177734 92.902344 A 2.0009771 2.0009771 0 0 0 54.042969 93.939453 L 54.818359 91.041016 A 2.0002 2.0002 0 0 0 52.787109 88.498047 z M 42.976562 93.257812 A 2.0002 2.0002 0 0 0 41.142578 94.765625 L 40.367188 97.662109 A 2.0002 2.0002 0 1 0 44.230469 98.697266 L 45.005859 95.800781 A 2.0002 2.0002 0 0 0 42.976562 93.257812 z M 58.976562 93.257812 A 2.0002 2.0002 0 0 0 57.142578 94.765625 L 56.367188 97.662109 A 2.0002 2.0002 0 1 0 60.230469 98.697266 L 61.005859 95.800781 A 2.0002 2.0002 0 0 0 58.976562 93.257812 z "
     id="path5391" /><path
     style="fill:#aaaaaa;fill-opacity:1;stroke:none"
     d="M 42.271484 84.552734 L 41.886719 85.988281 L 40.814453 84.923828 L 40.5625 85.869141 L 41.632812 86.933594 L 41.134766 88.789062 L 39.744141 87.410156 L 40.171875 86.046875 L 39.46875 85.341797 L 39.041016 86.712891 L 38.023438 85.677734 L 37.351562 86.365234 L 38.402344 87.417969 L 36.931641 87.814453 L 37.644531 88.539062 L 39.109375 88.132812 L 40.453125 89.490234 L 38.611328 89.994141 L 37.542969 88.916016 L 36.564453 89.1875 L 37.638672 90.267578 L 36.203125 90.644531 L 36.455078 91.587891 L 37.835938 91.210938 L 37.525391 92.591797 L 38.486328 92.337891 L 38.800781 90.9375 L 40.691406 90.445312 L 40.197266 92.294922 L 38.734375 92.6875 L 38.482422 93.632812 L 39.943359 93.240234 L 39.556641 94.683594 L 40.515625 94.939453 L 40.902344 93.496094 L 41.972656 94.568359 L 42.224609 93.623047 L 41.15625 92.550781 L 41.652344 90.703125 L 43.066406 92.080078 L 42.636719 93.451172 L 43.320312 94.144531 L 43.742188 92.794922 L 44.763672 93.814453 L 45.453125 93.123047 L 44.392578 92.078125 L 45.855469 91.677734 L 45.142578 90.953125 L 43.679688 91.353516 L 42.34375 89.996094 L 44.177734 89.490234 L 45.244141 90.576172 L 46.222656 90.304688 L 45.15625 89.226562 L 46.599609 88.84375 L 46.347656 87.908203 L 44.949219 88.294922 L 45.263672 86.892578 L 44.322266 87.160156 L 44.009766 88.554688 L 42.095703 89.046875 L 42.591797 87.191406 L 44.052734 86.804688 L 44.304688 85.859375 L 42.845703 86.246094 L 43.230469 84.810547 L 42.271484 84.552734 z M 58.712891 84.552734 L 58.712891 86.591797 L 56.916016 85.5625 L 56.916016 86.90625 L 58.712891 87.935547 L 58.712891 90.570312 L 56.380859 89.238281 L 56.460938 87.279297 L 55.279297 86.591797 L 55.199219 88.560547 L 53.482422 87.550781 L 52.835938 88.703125 L 54.603516 89.722656 L 52.796875 90.771484 L 53.998047 91.478516 L 55.794922 90.417969 L 58.056641 91.742188 L 55.794922 93.064453 L 53.998047 92.013672 L 52.796875 92.720703 L 54.603516 93.769531 L 52.835938 94.779297 L 53.501953 95.941406 L 55.199219 94.951172 L 55.279297 96.890625 L 56.460938 96.212891 L 56.380859 94.244141 L 58.712891 92.921875 L 58.712891 95.546875 L 56.916016 96.587891 L 56.916016 97.929688 L 58.712891 96.890625 L 58.712891 98.939453 L 60.074219 98.939453 L 60.074219 96.890625 L 61.871094 97.929688 L 61.871094 96.587891 L 60.074219 95.546875 L 60.074219 92.921875 L 62.4375 94.244141 L 62.357422 96.212891 L 63.507812 96.890625 L 63.587891 94.951172 L 65.304688 95.941406 L 65.970703 94.779297 L 64.193359 93.769531 L 65.990234 92.720703 L 64.789062 92.013672 L 62.992188 93.064453 L 60.742188 91.742188 L 62.992188 90.417969 L 64.789062 91.478516 L 65.990234 90.771484 L 64.193359 89.722656 L 65.970703 88.703125 L 65.304688 87.550781 L 63.587891 88.560547 L 63.507812 86.591797 L 62.357422 87.279297 L 62.4375 89.238281 L 60.074219 90.570312 L 60.074219 87.935547 L 61.871094 86.90625 L 61.871094 85.5625 L 60.074219 86.591797 L 60.074219 84.552734 L 58.712891 84.552734 z M 22.189453 84.621094 L 20.873047 84.974609 L 21.402344 86.945312 L 19.398438 86.414062 L 19.746094 87.710938 L 21.748047 88.242188 L 22.431641 90.787109 L 19.833984 90.103516 L 19.404297 88.189453 L 18.085938 87.832031 L 18.517578 89.755859 L 16.597656 89.224609 L 16.271484 90.503906 L 18.242188 91.03125 L 16.769531 92.513672 L 18.111328 92.884766 L 19.574219 91.394531 L 22.099609 92.087891 L 20.257812 93.951172 L 18.25 93.400391 L 17.273438 94.394531 L 19.291016 94.941406 L 17.845703 96.373047 L 18.789062 97.322266 L 20.171875 95.927734 L 20.751953 97.779297 L 21.716797 96.820312 L 21.128906 94.939453 L 23.039062 93.058594 L 23.71875 95.59375 L 22.251953 97.064453 L 22.599609 98.361328 L 24.066406 96.890625 L 24.597656 98.871094 L 25.914062 98.517578 L 25.382812 96.539062 L 27.388672 97.078125 L 27.041016 95.78125 L 25.035156 95.242188 L 24.355469 92.705078 L 26.980469 93.371094 L 27.412109 95.294922 L 28.699219 95.650391 L 28.275391 93.755859 L 30.189453 94.267578 L 30.53125 92.974609 L 28.554688 92.458984 L 30.017578 90.980469 L 28.675781 90.607422 L 27.210938 92.087891 L 24.693359 91.392578 L 26.527344 89.533203 L 28.537109 90.091797 L 29.513672 89.097656 L 27.505859 88.548828 L 28.958984 87.103516 L 28.017578 86.164062 L 26.621094 87.583984 L 26.033203 85.703125 L 25.099609 86.664062 L 25.683594 88.535156 L 23.748047 90.433594 L 23.066406 87.888672 L 24.535156 86.429688 L 24.1875 85.132812 L 22.71875 86.591797 L 22.189453 84.621094 z "
     id="path5560" /></svg>