<?xml version="1.0" encoding="UTF-8" standalone="no"?>
<!-- Generator: Adobe Illustrator 16.0.0, SVG Export Plug-In . SVG Version: 6.00 Build 0)  -->

<svg
   xmlns:dc="http://purl.org/dc/elements/1.1/"
   xmlns:cc="http://creativecommons.org/ns#"
   xmlns:rdf="http://www.w3.org/1999/02/22-rdf-syntax-ns#"
   xmlns:svg="http://www.w3.org/2000/svg"
   xmlns="http://www.w3.org/2000/svg"
   xmlns:sodipodi="http://sodipodi.sourceforge.net/DTD/sodipodi-0.dtd"
   xmlns:inkscape="http://www.inkscape.org/namespaces/inkscape"
   version="1.1"
   id="Layer_1"
   x="0px"
   y="0px"
   width="100px"
   height="100px"
   viewBox="0 0 100 100"
   enable-background="new 0 0 100 100"
   xml:space="preserve"
   inkscape:version="0.91 r13725"
   sodipodi:docname="c-st-x-r.svg"><metadata
     id="metadata53"><rdf:RDF><cc:Work
         rdf:about=""><dc:format>image/svg+xml</dc:format><dc:type
           rdf:resource="http://purl.org/dc/dcmitype/StillImage" /></cc:Work></rdf:RDF></metadata><defs
     id="defs51" /><sodipodi:namedview
     pagecolor="#ffffff"
     bordercolor="#666666"
     borderopacity="1"
     objecttolerance="10"
     gridtolerance="10"
     guidetolerance="10"
     inkscape:pageopacity="0"
     inkscape:pageshadow="2"
     inkscape:window-width="1366"
     inkscape:window-height="719"
     id="namedview49"
     showgrid="true"
     inkscape:zoom="4.72"
     inkscape:cx="40.252188"
     inkscape:cy="9.5862508"
     inkscape:window-x="0"
     inkscape:window-y="25"
     inkscape:window-maximized="1"
     inkscape:current-layer="Layer_1"><inkscape:grid
       type="xygrid"
       id="grid4181" /></sodipodi:namedview><path
     style="color:#000000;font-style:normal;font-variant:normal;font-weight:normal;font-stretch:normal;font-size:medium;line-height:normal;font-family:sans-serif;text-indent:0;text-align:start;text-decoration:none;text-decoration-line:none;text-decoration-style:solid;text-decoration-color:#000000;letter-spacing:normal;word-spacing:normal;text-transform:none;direction:ltr;block-progression:tb;writing-mode:lr-tb;baseline-shift:baseline;text-anchor:start;white-space:normal;clip-rule:nonzero;display:inline;overflow:visible;visibility:visible;opacity:1;isolation:auto;mix-blend-mode:normal;color-interpolation:sRGB;color-interpolation-filters:linearRGB;solid-color:#000000;solid-opacity:1;fill:#0277bd;fill-opacity:1;fill-rule:nonzero;stroke:none;stroke-width:4;stroke-linecap:round;stroke-linejoin:miter;stroke-miterlimit:4;stroke-dasharray:none;stroke-dashoffset:0;stroke-opacity:1;color-rendering:auto;image-rendering:auto;shape-rendering:auto;text-rendering:auto;enable-background:accumulate"
     d="M 27.623047 83.730469 A 2.0002 2.0002 0 0 0 25.791016 85.238281 L 25.013672 88.136719 A 2.0007237 2.0007237 0 1 0 28.878906 89.171875 L 29.654297 86.273438 A 2.0002 2.0002 0 0 0 27.623047 83.730469 z M 43.623047 83.730469 A 2.0002 2.0002 0 0 0 41.791016 85.238281 L 41.013672 88.136719 A 2.0007237 2.0007237 0 1 0 44.878906 89.171875 L 45.654297 86.273438 A 2.0002 2.0002 0 0 0 43.623047 83.730469 z M 17.814453 88.484375 A 2.0002 2.0002 0 0 0 15.980469 89.992188 L 15.205078 92.890625 A 2.0002 2.0002 0 1 0 19.068359 93.925781 L 19.84375 91.027344 A 2.0002 2.0002 0 0 0 18.013672 88.484375 A 2.0002 2.0002 0 0 0 17.814453 88.484375 z M 33.814453 88.484375 A 2.0002 2.0002 0 0 0 31.980469 89.992188 L 31.205078 92.890625 A 2.0002 2.0002 0 1 0 35.068359 93.925781 L 35.84375 91.027344 A 2.0002 2.0002 0 0 0 34.013672 88.484375 A 2.0002 2.0002 0 0 0 33.814453 88.484375 z M 49.814453 88.484375 A 2.0002 2.0002 0 0 0 47.980469 89.992188 L 47.205078 92.890625 A 2.0002 2.0002 0 1 0 51.068359 93.925781 L 51.84375 91.027344 A 2.0002 2.0002 0 0 0 50.013672 88.484375 A 2.0002 2.0002 0 0 0 49.814453 88.484375 z M 24.001953 93.244141 A 2.0002 2.0002 0 0 0 22.167969 94.751953 L 21.392578 97.650391 A 2.0002 2.0002 0 1 0 25.255859 98.685547 L 26.033203 95.787109 A 2.0002 2.0002 0 0 0 24.201172 93.244141 A 2.0002 2.0002 0 0 0 24.001953 93.244141 z M 40.001953 93.244141 A 2.0002 2.0002 0 0 0 38.167969 94.751953 L 37.392578 97.650391 A 2.0002 2.0002 0 1 0 41.255859 98.685547 L 42.033203 95.787109 A 2.0002 2.0002 0 0 0 40.201172 93.244141 A 2.0002 2.0002 0 0 0 40.001953 93.244141 z "
     id="path6107-6" /></svg>