<?xml version="1.0" encoding="UTF-8" standalone="no"?>
<!-- Generator: Adobe Illustrator 16.0.0, SVG Export Plug-In . SVG Version: 6.00 Build 0)  -->

<svg
   xmlns:dc="http://purl.org/dc/elements/1.1/"
   xmlns:cc="http://creativecommons.org/ns#"
   xmlns:rdf="http://www.w3.org/1999/02/22-rdf-syntax-ns#"
   xmlns:svg="http://www.w3.org/2000/svg"
   xmlns="http://www.w3.org/2000/svg"
   xmlns:sodipodi="http://sodipodi.sourceforge.net/DTD/sodipodi-0.dtd"
   xmlns:inkscape="http://www.inkscape.org/namespaces/inkscape"
   version="1.1"
   id="Layer_1"
   x="0px"
   y="0px"
   width="100px"
   height="100px"
   viewBox="0 0 100 100"
   enable-background="new 0 0 100 100"
   xml:space="preserve"
   inkscape:version="0.91 r13725"
   sodipodi:docname="c-st-xxx-r.svg"><metadata
     id="metadata53"><rdf:RDF><cc:Work
         rdf:about=""><dc:format>image/svg+xml</dc:format><dc:type
           rdf:resource="http://purl.org/dc/dcmitype/StillImage" /></cc:Work></rdf:RDF></metadata><defs
     id="defs51" /><sodipodi:namedview
     pagecolor="#ffffff"
     bordercolor="#666666"
     borderopacity="1"
     objecttolerance="10"
     gridtolerance="10"
     guidetolerance="10"
     inkscape:pageopacity="0"
     inkscape:pageshadow="2"
     inkscape:window-width="1366"
     inkscape:window-height="719"
     id="namedview49"
     showgrid="true"
     inkscape:zoom="5.6568545"
     inkscape:cx="70.053467"
     inkscape:cy="0.6802881"
     inkscape:window-x="0"
     inkscape:window-y="25"
     inkscape:window-maximized="1"
     inkscape:current-layer="Layer_1"><inkscape:grid
       type="xygrid"
       id="grid4181" /></sodipodi:namedview><path
     style="color:#000000;font-style:normal;font-variant:normal;font-weight:normal;font-stretch:normal;font-size:medium;line-height:normal;font-family:sans-serif;text-indent:0;text-align:start;text-decoration:none;text-decoration-line:none;text-decoration-style:solid;text-decoration-color:#000000;letter-spacing:normal;word-spacing:normal;text-transform:none;direction:ltr;block-progression:tb;writing-mode:lr-tb;baseline-shift:baseline;text-anchor:start;white-space:normal;clip-rule:nonzero;display:inline;overflow:visible;visibility:visible;opacity:1;isolation:auto;mix-blend-mode:normal;color-interpolation:sRGB;color-interpolation-filters:linearRGB;solid-color:#000000;solid-opacity:1;fill:#0277bd;fill-opacity:1;fill-rule:nonzero;stroke:none;stroke-width:4;stroke-linecap:round;stroke-linejoin:miter;stroke-miterlimit:4;stroke-dasharray:none;stroke-dashoffset:0;stroke-opacity:1;color-rendering:auto;image-rendering:auto;shape-rendering:auto;text-rendering:auto;enable-background:accumulate"
     d="M 29.640625 83.732422 A 2.0002 2.0002 0 0 0 27.806641 85.240234 L 27.03125 88.138672 A 2.0002 2.0002 0 1 0 30.894531 89.173828 L 31.671875 86.275391 A 2.0002 2.0002 0 0 0 29.839844 83.732422 A 2.0002 2.0002 0 0 0 29.640625 83.732422 z M 45.640625 83.732422 A 2.0002 2.0002 0 0 0 43.806641 85.240234 L 43.03125 88.138672 A 2.0002 2.0002 0 1 0 46.894531 89.173828 L 47.671875 86.275391 A 2.0002 2.0002 0 0 0 45.839844 83.732422 A 2.0002 2.0002 0 0 0 45.640625 83.732422 z M 61.640625 83.732422 A 2.0002 2.0002 0 0 0 59.806641 85.240234 L 59.03125 88.138672 A 2.0002 2.0002 0 1 0 62.894531 89.173828 L 63.671875 86.275391 A 2.0002 2.0002 0 0 0 61.839844 83.732422 A 2.0002 2.0002 0 0 0 61.640625 83.732422 z M 77.640625 83.732422 A 2.0002 2.0002 0 0 0 75.806641 85.240234 L 75.03125 88.138672 A 2.0002 2.0002 0 1 0 78.894531 89.173828 L 79.671875 86.275391 A 2.0002 2.0002 0 0 0 77.839844 83.732422 A 2.0002 2.0002 0 0 0 77.640625 83.732422 z M 19.830078 88.488281 A 2.0002 2.0002 0 0 0 17.996094 89.996094 L 17.220703 92.892578 A 2.0002 2.0002 0 1 0 21.083984 93.927734 L 21.861328 91.03125 A 2.0002 2.0002 0 0 0 19.830078 88.488281 z M 35.830078 88.488281 A 2.0002 2.0002 0 0 0 33.996094 89.996094 L 33.220703 92.892578 A 2.0002 2.0002 0 1 0 37.083984 93.927734 L 37.861328 91.03125 A 2.0002 2.0002 0 0 0 35.830078 88.488281 z M 51.830078 88.488281 A 2.0002 2.0002 0 0 0 49.996094 89.996094 L 49.220703 92.892578 A 2.0002 2.0002 0 1 0 53.083984 93.927734 L 53.861328 91.03125 A 2.0002 2.0002 0 0 0 51.830078 88.488281 z M 67.830078 88.488281 A 2.0002 2.0002 0 0 0 65.996094 89.996094 L 65.220703 92.892578 A 2.0002 2.0002 0 1 0 69.083984 93.927734 L 69.861328 91.03125 A 2.0002 2.0002 0 0 0 67.830078 88.488281 z M 26.017578 93.246094 A 2.0002 2.0002 0 0 0 24.185547 94.753906 L 23.408203 97.652344 A 2.0002 2.0002 0 1 0 27.271484 98.6875 L 28.048828 95.789062 A 2.0002 2.0002 0 0 0 26.216797 93.246094 A 2.0002 2.0002 0 0 0 26.017578 93.246094 z M 42.017578 93.246094 A 2.0002 2.0002 0 0 0 40.185547 94.753906 L 39.408203 97.652344 A 2.0002 2.0002 0 1 0 43.271484 98.6875 L 44.048828 95.789062 A 2.0002 2.0002 0 0 0 42.216797 93.246094 A 2.0002 2.0002 0 0 0 42.017578 93.246094 z M 58.017578 93.246094 A 2.0002 2.0002 0 0 0 56.185547 94.753906 L 55.408203 97.652344 A 2.0002 2.0002 0 1 0 59.271484 98.6875 L 60.048828 95.789062 A 2.0002 2.0002 0 0 0 58.216797 93.246094 A 2.0002 2.0002 0 0 0 58.017578 93.246094 z M 74.017578 93.246094 A 2.0002 2.0002 0 0 0 72.185547 94.753906 L 71.408203 97.652344 A 2.0002 2.0002 0 1 0 75.271484 98.6875 L 76.048828 95.789062 A 2.0002 2.0002 0 0 0 74.216797 93.246094 A 2.0002 2.0002 0 0 0 74.017578 93.246094 z "
     id="path6278" /></svg>