<?xml version="1.0" encoding="UTF-8" standalone="no"?>
<!-- Generator: Adobe Illustrator 16.0.0, SVG Export Plug-In . SVG Version: 6.00 Build 0)  -->

<svg
   xmlns:dc="http://purl.org/dc/elements/1.1/"
   xmlns:cc="http://creativecommons.org/ns#"
   xmlns:rdf="http://www.w3.org/1999/02/22-rdf-syntax-ns#"
   xmlns:svg="http://www.w3.org/2000/svg"
   xmlns="http://www.w3.org/2000/svg"
   xmlns:sodipodi="http://sodipodi.sourceforge.net/DTD/sodipodi-0.dtd"
   xmlns:inkscape="http://www.inkscape.org/namespaces/inkscape"
   version="1.1"
   id="Layer_1"
   x="0px"
   y="0px"
   width="100px"
   height="100px"
   viewBox="0 0 100 100"
   enable-background="new 0 0 100 100"
   xml:space="preserve"
   inkscape:version="0.91 r13725"
   sodipodi:docname="c-st-x-rs.svg"><metadata
     id="metadata53"><rdf:RDF><cc:Work
         rdf:about=""><dc:format>image/svg+xml</dc:format><dc:type
           rdf:resource="http://purl.org/dc/dcmitype/StillImage" /></cc:Work></rdf:RDF></metadata><defs
     id="defs51" /><sodipodi:namedview
     pagecolor="#ffffff"
     bordercolor="#666666"
     borderopacity="1"
     objecttolerance="10"
     gridtolerance="10"
     guidetolerance="10"
     inkscape:pageopacity="0"
     inkscape:pageshadow="2"
     inkscape:window-width="1366"
     inkscape:window-height="719"
     id="namedview49"
     showgrid="true"
     inkscape:zoom="8"
     inkscape:cx="32.762027"
     inkscape:cy="11.13698"
     inkscape:window-x="0"
     inkscape:window-y="25"
     inkscape:window-maximized="1"
     inkscape:current-layer="Layer_1"><inkscape:grid
       type="xygrid"
       id="grid4181" /></sodipodi:namedview><path
     style="color:#000000;font-style:normal;font-variant:normal;font-weight:normal;font-stretch:normal;font-size:medium;line-height:normal;font-family:sans-serif;text-indent:0;text-align:start;text-decoration:none;text-decoration-line:none;text-decoration-style:solid;text-decoration-color:#000000;letter-spacing:normal;word-spacing:normal;text-transform:none;direction:ltr;block-progression:tb;writing-mode:lr-tb;baseline-shift:baseline;text-anchor:start;white-space:normal;clip-rule:nonzero;display:inline;overflow:visible;visibility:visible;opacity:1;isolation:auto;mix-blend-mode:normal;color-interpolation:sRGB;color-interpolation-filters:linearRGB;solid-color:#000000;solid-opacity:1;fill:#0277bd;fill-opacity:1;fill-rule:nonzero;stroke:none;stroke-width:4;stroke-linecap:round;stroke-linejoin:miter;stroke-miterlimit:4;stroke-dasharray:none;stroke-dashoffset:0;stroke-opacity:1;color-rendering:auto;image-rendering:auto;shape-rendering:auto;text-rendering:auto;enable-background:accumulate"
     d="M 28.580078 83.728516 A 2.0002 2.0002 0 0 0 26.748047 85.236328 L 25.970703 88.134766 A 2.0002 2.0002 0 1 0 29.833984 89.169922 L 30.611328 86.271484 A 2.0002 2.0002 0 0 0 28.779297 83.728516 A 2.0002 2.0002 0 0 0 28.580078 83.728516 z M 18.769531 88.484375 A 2.0002 2.0002 0 0 0 16.9375 89.992188 L 16.160156 92.888672 A 2.0007242 2.0007242 0 1 0 20.025391 93.923828 L 20.800781 91.027344 A 2.0002 2.0002 0 0 0 18.769531 88.484375 z M 50.769531 88.484375 A 2.0002 2.0002 0 0 0 48.9375 89.992188 L 48.160156 92.888672 A 2.0007242 2.0007242 0 1 0 52.025391 93.923828 L 52.800781 91.027344 A 2.0002 2.0002 0 0 0 50.769531 88.484375 z M 40.958984 93.242188 A 2.0002 2.0002 0 0 0 39.125 94.75 L 38.349609 97.648438 A 2.0002 2.0002 0 1 0 42.212891 98.683594 L 42.988281 95.785156 A 2.0002 2.0002 0 0 0 41.158203 93.242188 A 2.0002 2.0002 0 0 0 40.958984 93.242188 z "
     id="path5375" /><path
     style="fill:#aaaaaa;fill-opacity:1;stroke:none"
     d="M 26.695312 84.539062 L 26.695312 86.578125 L 24.896484 85.548828 L 24.896484 86.890625 L 26.695312 87.921875 L 26.695312 90.556641 L 24.363281 89.224609 L 24.443359 87.265625 L 23.261719 86.578125 L 23.181641 88.546875 L 21.464844 87.537109 L 20.818359 88.689453 L 22.585938 89.708984 L 20.779297 90.757812 L 21.980469 91.464844 L 23.777344 90.404297 L 26.039062 91.726562 L 23.777344 93.050781 L 21.980469 92 L 20.779297 92.707031 L 22.585938 93.755859 L 20.818359 94.765625 L 21.484375 95.927734 L 23.181641 94.9375 L 23.261719 96.876953 L 24.443359 96.199219 L 24.363281 94.230469 L 26.695312 92.908203 L 26.695312 95.533203 L 24.896484 96.572266 L 24.896484 97.916016 L 26.695312 96.876953 L 26.695312 98.925781 L 28.056641 98.925781 L 28.056641 96.876953 L 29.853516 97.916016 L 29.853516 96.572266 L 28.056641 95.533203 L 28.056641 92.908203 L 30.419922 94.230469 L 30.337891 96.199219 L 31.490234 96.876953 L 31.570312 94.9375 L 33.287109 95.927734 L 33.953125 94.765625 L 32.175781 93.755859 L 33.972656 92.707031 L 32.771484 92 L 30.974609 93.050781 L 28.722656 91.726562 L 30.974609 90.404297 L 32.771484 91.464844 L 33.972656 90.757812 L 32.175781 89.708984 L 33.953125 88.689453 L 33.287109 87.537109 L 31.570312 88.546875 L 31.490234 86.578125 L 30.337891 87.265625 L 30.419922 89.224609 L 28.056641 90.556641 L 28.056641 87.921875 L 29.853516 86.890625 L 29.853516 85.548828 L 28.056641 86.578125 L 28.056641 84.539062 L 26.695312 84.539062 z M 46.253906 86.539062 L 45.869141 87.974609 L 44.796875 86.910156 L 44.544922 87.855469 L 45.615234 88.919922 L 45.117188 90.775391 L 43.726562 89.396484 L 44.154297 88.033203 L 43.451172 87.326172 L 43.023438 88.697266 L 42.005859 87.664062 L 41.332031 88.351562 L 42.384766 89.402344 L 40.914062 89.800781 L 41.626953 90.525391 L 43.091797 90.119141 L 44.435547 91.476562 L 42.59375 91.980469 L 41.525391 90.902344 L 40.546875 91.173828 L 41.621094 92.253906 L 40.185547 92.630859 L 40.435547 93.574219 L 41.816406 93.197266 L 41.507812 94.578125 L 42.46875 94.324219 L 42.783203 92.923828 L 44.673828 92.431641 L 44.179688 94.279297 L 42.716797 94.673828 L 42.464844 95.619141 L 43.925781 95.226562 L 43.539062 96.667969 L 44.498047 96.925781 L 44.884766 95.482422 L 45.955078 96.554688 L 46.207031 95.609375 L 45.138672 94.537109 L 45.632812 92.689453 L 47.046875 94.066406 L 46.619141 95.4375 L 47.302734 96.130859 L 47.724609 94.78125 L 48.746094 95.800781 L 49.435547 95.109375 L 48.375 94.0625 L 49.837891 93.662109 L 49.125 92.939453 L 47.662109 93.339844 L 46.326172 91.982422 L 48.160156 91.476562 L 49.226562 92.5625 L 50.205078 92.291016 L 49.138672 91.212891 L 50.582031 90.830078 L 50.330078 89.894531 L 48.929688 90.28125 L 49.244141 88.878906 L 48.304688 89.146484 L 47.992188 90.539062 L 46.078125 91.033203 L 46.574219 89.177734 L 48.035156 88.791016 L 48.287109 87.845703 L 46.828125 88.232422 L 47.212891 86.794922 L 46.253906 86.539062 z "
     id="path5546" /></svg>