<?xml version="1.0" encoding="UTF-8" standalone="no"?>
<!-- Generator: Adobe Illustrator 16.0.0, SVG Export Plug-In . SVG Version: 6.00 Build 0)  -->

<svg
   xmlns:dc="http://purl.org/dc/elements/1.1/"
   xmlns:cc="http://creativecommons.org/ns#"
   xmlns:rdf="http://www.w3.org/1999/02/22-rdf-syntax-ns#"
   xmlns:svg="http://www.w3.org/2000/svg"
   xmlns="http://www.w3.org/2000/svg"
   xmlns:sodipodi="http://sodipodi.sourceforge.net/DTD/sodipodi-0.dtd"
   xmlns:inkscape="http://www.inkscape.org/namespaces/inkscape"
   version="1.1"
   id="Layer_1"
   x="0px"
   y="0px"
   width="100px"
   height="100px"
   viewBox="0 0 100 100"
   enable-background="new 0 0 100 100"
   xml:space="preserve"
   inkscape:version="0.91 r13725"
   sodipodi:docname="c-st-xx-s.svg"><metadata
     id="metadata53"><rdf:RDF><cc:Work
         rdf:about=""><dc:format>image/svg+xml</dc:format><dc:type
           rdf:resource="http://purl.org/dc/dcmitype/StillImage" /></cc:Work></rdf:RDF></metadata><defs
     id="defs51" /><sodipodi:namedview
     pagecolor="#ffffff"
     bordercolor="#666666"
     borderopacity="1"
     objecttolerance="10"
     gridtolerance="10"
     guidetolerance="10"
     inkscape:pageopacity="0"
     inkscape:pageshadow="2"
     inkscape:window-width="1366"
     inkscape:window-height="719"
     id="namedview49"
     showgrid="true"
     inkscape:zoom="4"
     inkscape:cx="52.786222"
     inkscape:cy="-1.72653"
     inkscape:window-x="0"
     inkscape:window-y="25"
     inkscape:window-maximized="1"
     inkscape:current-layer="Layer_1"><inkscape:grid
       type="xygrid"
       id="grid4181" /></sodipodi:namedview><path
     style="fill:#aaaaaa;fill-opacity:1;stroke:none"
     d="M 42.271484 84.546875 L 41.886719 85.982422 L 40.816406 84.919922 L 40.5625 85.865234 L 41.634766 86.927734 L 41.136719 88.783203 L 39.746094 87.40625 L 40.171875 86.041016 L 39.470703 85.335938 L 39.041016 86.707031 L 38.023438 85.671875 L 37.351562 86.359375 L 38.404297 87.412109 L 36.933594 87.810547 L 37.646484 88.535156 L 39.111328 88.126953 L 40.453125 89.484375 L 38.611328 89.990234 L 37.544922 88.910156 L 36.564453 89.181641 L 37.640625 90.261719 L 36.205078 90.640625 L 36.455078 91.582031 L 37.835938 91.207031 L 37.527344 92.585938 L 38.486328 92.333984 L 38.800781 90.931641 L 40.693359 90.439453 L 40.197266 92.289062 L 38.736328 92.681641 L 38.482422 93.626953 L 39.945312 93.234375 L 39.558594 94.677734 L 40.517578 94.933594 L 40.904297 93.492188 L 41.972656 94.5625 L 42.226562 93.617188 L 41.158203 92.544922 L 41.652344 90.697266 L 43.066406 92.074219 L 42.638672 93.445312 L 43.320312 94.138672 L 43.744141 92.789062 L 44.765625 93.810547 L 45.453125 93.117188 L 44.392578 92.072266 L 45.857422 91.671875 L 45.144531 90.947266 L 43.679688 91.347656 L 42.34375 89.992188 L 44.179688 89.484375 L 45.244141 90.570312 L 46.224609 90.298828 L 45.15625 89.220703 L 46.599609 88.837891 L 46.347656 87.902344 L 44.949219 88.289062 L 45.263672 86.888672 L 44.324219 87.154297 L 44.011719 88.548828 L 42.095703 89.041016 L 42.59375 87.185547 L 44.052734 86.798828 L 44.306641 85.853516 L 42.847656 86.240234 L 43.232422 84.804688 L 42.271484 84.546875 z M 58.712891 84.548828 L 58.712891 86.587891 L 56.916016 85.556641 L 56.916016 86.900391 L 58.712891 87.929688 L 58.712891 90.564453 L 56.380859 89.232422 L 56.462891 87.273438 L 55.28125 86.587891 L 55.199219 88.556641 L 53.484375 87.546875 L 52.837891 88.697266 L 54.603516 89.716797 L 52.796875 90.767578 L 53.998047 91.472656 L 55.794922 90.414062 L 58.056641 91.736328 L 55.794922 93.058594 L 53.998047 92.007812 L 52.796875 92.714844 L 54.603516 93.765625 L 52.837891 94.775391 L 53.503906 95.935547 L 55.199219 94.945312 L 55.28125 96.884766 L 56.462891 96.208984 L 56.380859 94.240234 L 58.712891 92.916016 L 58.712891 95.541016 L 56.916016 96.582031 L 56.916016 97.923828 L 58.712891 96.884766 L 58.712891 98.933594 L 60.076172 98.933594 L 60.076172 96.884766 L 61.873047 97.923828 L 61.873047 96.582031 L 60.076172 95.541016 L 60.076172 92.916016 L 62.439453 94.240234 L 62.357422 96.208984 L 63.507812 96.884766 L 63.589844 94.945312 L 65.304688 95.935547 L 65.972656 94.775391 L 64.195312 93.765625 L 65.992188 92.714844 L 64.791016 92.007812 L 62.994141 93.058594 L 60.742188 91.736328 L 62.994141 90.414062 L 64.791016 91.472656 L 65.992188 90.767578 L 64.195312 89.716797 L 65.972656 88.697266 L 65.304688 87.546875 L 63.589844 88.556641 L 63.507812 86.587891 L 62.357422 87.273438 L 62.439453 89.232422 L 60.076172 90.564453 L 60.076172 87.929688 L 61.873047 86.900391 L 61.873047 85.556641 L 60.076172 86.587891 L 60.076172 84.548828 L 58.712891 84.548828 z M 22.191406 84.617188 L 20.875 84.96875 L 21.402344 86.939453 L 19.400391 86.410156 L 19.748047 87.707031 L 21.75 88.236328 L 22.431641 90.78125 L 19.833984 90.097656 L 19.40625 88.185547 L 18.087891 87.828125 L 18.519531 89.75 L 16.599609 89.21875 L 16.273438 90.498047 L 18.244141 91.025391 L 16.769531 92.507812 L 18.113281 92.878906 L 19.574219 91.390625 L 22.101562 92.082031 L 20.259766 93.945312 L 18.251953 93.396484 L 17.273438 94.388672 L 19.291016 94.935547 L 17.845703 96.369141 L 18.791016 97.316406 L 20.171875 95.921875 L 20.751953 97.773438 L 21.71875 96.814453 L 21.130859 94.933594 L 23.041016 93.052734 L 23.720703 95.587891 L 22.253906 97.058594 L 22.601562 98.355469 L 24.068359 96.884766 L 24.597656 98.865234 L 25.914062 98.511719 L 25.384766 96.533203 L 27.388672 97.072266 L 27.041016 95.775391 L 25.037109 95.236328 L 24.357422 92.701172 L 26.982422 93.367188 L 27.412109 95.289062 L 28.699219 95.644531 L 28.275391 93.751953 L 30.189453 94.261719 L 30.533203 92.96875 L 28.554688 92.453125 L 30.019531 90.974609 L 28.675781 90.603516 L 27.212891 92.082031 L 24.695312 91.386719 L 26.527344 89.527344 L 28.537109 90.085938 L 29.515625 89.091797 L 27.507812 88.542969 L 28.960938 87.097656 L 28.017578 86.160156 L 26.621094 87.578125 L 26.035156 85.697266 L 25.099609 86.658203 L 25.685547 88.529297 L 23.748047 90.427734 L 23.066406 87.882812 L 24.535156 86.423828 L 24.1875 85.126953 L 22.71875 86.585938 L 22.191406 84.617188 z "
     id="path7607" /></svg>