<?xml version="1.0" encoding="UTF-8" standalone="no"?>
<!-- Generator: Adobe Illustrator 16.0.0, SVG Export Plug-In . SVG Version: 6.00 Build 0)  -->

<svg
   xmlns:dc="http://purl.org/dc/elements/1.1/"
   xmlns:cc="http://creativecommons.org/ns#"
   xmlns:rdf="http://www.w3.org/1999/02/22-rdf-syntax-ns#"
   xmlns:svg="http://www.w3.org/2000/svg"
   xmlns="http://www.w3.org/2000/svg"
   xmlns:sodipodi="http://sodipodi.sourceforge.net/DTD/sodipodi-0.dtd"
   xmlns:inkscape="http://www.inkscape.org/namespaces/inkscape"
   version="1.1"
   id="Layer_1"
   x="0px"
   y="0px"
   width="100px"
   height="100px"
   viewBox="0 0 100 100"
   enable-background="new 0 0 100 100"
   xml:space="preserve"
   inkscape:version="0.91 r13725"
   sodipodi:docname="c-st-xx.svg"><metadata
     id="metadata53"><rdf:RDF><cc:Work
         rdf:about=""><dc:format>image/svg+xml</dc:format><dc:type
           rdf:resource="http://purl.org/dc/dcmitype/StillImage" /></cc:Work></rdf:RDF></metadata><defs
     id="defs51" /><sodipodi:namedview
     pagecolor="#ffffff"
     bordercolor="#666666"
     borderopacity="1"
     objecttolerance="10"
     gridtolerance="10"
     guidetolerance="10"
     inkscape:pageopacity="0"
     inkscape:pageshadow="2"
     inkscape:window-width="1366"
     inkscape:window-height="719"
     id="namedview49"
     showgrid="true"
     inkscape:zoom="5.6568543"
     inkscape:cx="19.769495"
     inkscape:cy="31.856522"
     inkscape:window-x="0"
     inkscape:window-y="25"
     inkscape:window-maximized="1"
     inkscape:current-layer="Layer_1"><inkscape:grid
       type="xygrid"
       id="grid4181" /></sodipodi:namedview><path
     style="fill:#dddddd;fill-opacity:1;stroke:#000000;stroke-width:1;stroke-linecap:butt;stroke-linejoin:miter;stroke-miterlimit:4;stroke-dasharray:none;stroke-opacity:1"
     d="m 56.633995,62.817438 c 3.5623,1.2564 6.0289,4.6516 6.0289,8.5255 0,4.98615 -4.0563,9.04315 -9.0425,9.04315 -0.1505,0 -0.3098,-0.01 -0.4852,-0.014 l -29.6192,0 c -6.6463,0 -12.0531,-5.4067 -12.0531,-12.05305 0,-3.0406 1.136,-5.9449 3.1994,-8.1766 1.8137,-1.9616 4.1997,-3.2524 6.8026,-3.6992 2.4792,-7.24281 9.3721,-12.21891 17.1039,-12.21891 9.9654,0 18.073,8.10811 18.073,18.07421 0,0.1723 0,0.3456 -0.01,0.5191 z"
     id="path7385"
     inkscape:connector-curvature="0"
     sodipodi:nodetypes="csscssccsscc" /><path
     sodipodi:nodetypes="csscssccsscc"
     inkscape:connector-curvature="0"
     id="path7387"
     d="m 65.741195,68.689438 c 2.6718,0.9423 4.5217,3.4887 4.5217,6.39405 0,3.7397 -3.0422,6.7824 -6.7819,6.7824 -0.1129,0 -0.2323,-0.01 -0.3639,-0.011 l -22.2144,0 c -4.9847,0 -9.0398,-4.055 -9.0398,-9.03975 0,-2.2805 0.852,-4.4587 2.3995,-6.1325 1.3603,-1.4712 3.1498,-2.4393 5.102,-2.7744 1.8594,-5.4321 7.0291,-9.1642 12.8279,-9.1642 7.4741,0 13.5548,6.0811 13.5548,13.5557 0,0.1292 0,0.2592 -0.01,0.3893 z"
     style="fill:#eeeeee;fill-opacity:1;stroke:#000000;stroke-width:1;stroke-linecap:butt;stroke-linejoin:miter;stroke-miterlimit:4;stroke-dasharray:none;stroke-opacity:1" /></svg>