<?xml version="1.0" encoding="UTF-8" standalone="no"?>
<!-- Generator: Adobe Illustrator 16.0.0, SVG Export Plug-In . SVG Version: 6.00 Build 0)  -->

<svg
   xmlns:dc="http://purl.org/dc/elements/1.1/"
   xmlns:cc="http://creativecommons.org/ns#"
   xmlns:rdf="http://www.w3.org/1999/02/22-rdf-syntax-ns#"
   xmlns:svg="http://www.w3.org/2000/svg"
   xmlns="http://www.w3.org/2000/svg"
   xmlns:sodipodi="http://sodipodi.sourceforge.net/DTD/sodipodi-0.dtd"
   xmlns:inkscape="http://www.inkscape.org/namespaces/inkscape"
   version="1.1"
   id="Layer_1"
   x="0px"
   y="0px"
   width="100px"
   height="100px"
   viewBox="0 0 100 100"
   enable-background="new 0 0 100 100"
   xml:space="preserve"
   inkscape:version="0.91 r13725"
   sodipodi:docname="c-st-xx-r.svg"><metadata
     id="metadata53"><rdf:RDF><cc:Work
         rdf:about=""><dc:format>image/svg+xml</dc:format><dc:type
           rdf:resource="http://purl.org/dc/dcmitype/StillImage" /></cc:Work></rdf:RDF></metadata><defs
     id="defs51" /><sodipodi:namedview
     pagecolor="#ffffff"
     bordercolor="#666666"
     borderopacity="1"
     objecttolerance="10"
     gridtolerance="10"
     guidetolerance="10"
     inkscape:pageopacity="0"
     inkscape:pageshadow="2"
     inkscape:window-width="1366"
     inkscape:window-height="719"
     id="namedview49"
     showgrid="true"
     inkscape:zoom="5.6568543"
     inkscape:cx="21.802427"
     inkscape:cy="16.300173"
     inkscape:window-x="0"
     inkscape:window-y="25"
     inkscape:window-maximized="1"
     inkscape:current-layer="Layer_1"><inkscape:grid
       type="xygrid"
       id="grid4181" /></sodipodi:namedview><path
     style="color:#000000;font-style:normal;font-variant:normal;font-weight:normal;font-stretch:normal;font-size:medium;line-height:normal;font-family:sans-serif;text-indent:0;text-align:start;text-decoration:none;text-decoration-line:none;text-decoration-style:solid;text-decoration-color:#000000;letter-spacing:normal;word-spacing:normal;text-transform:none;direction:ltr;block-progression:tb;writing-mode:lr-tb;baseline-shift:baseline;text-anchor:start;white-space:normal;clip-rule:nonzero;display:inline;overflow:visible;visibility:visible;opacity:1;isolation:auto;mix-blend-mode:normal;color-interpolation:sRGB;color-interpolation-filters:linearRGB;solid-color:#000000;solid-opacity:1;fill:#0277bd;fill-opacity:1;fill-rule:nonzero;stroke:none;stroke-width:4;stroke-linecap:round;stroke-linejoin:miter;stroke-miterlimit:4;stroke-dasharray:none;stroke-dashoffset:0;stroke-opacity:1;color-rendering:auto;image-rendering:auto;shape-rendering:auto;text-rendering:auto;enable-background:accumulate"
     d="M 29.642578 83.742188 A 2.0002 2.0002 0 0 0 27.810547 85.25 L 27.035156 88.148438 A 2.0002 2.0002 0 1 0 30.898438 89.183594 L 31.673828 86.285156 A 2.0002 2.0002 0 0 0 29.642578 83.742188 z M 45.642578 83.742188 A 2.0002 2.0002 0 0 0 43.810547 85.25 L 43.035156 88.148438 A 2.0002 2.0002 0 1 0 46.898438 89.183594 L 47.673828 86.285156 A 2.0002 2.0002 0 0 0 45.642578 83.742188 z M 61.642578 83.742188 A 2.0002 2.0002 0 0 0 59.810547 85.25 L 59.035156 88.148438 A 2.0002 2.0002 0 1 0 62.898438 89.183594 L 63.673828 86.285156 A 2.0002 2.0002 0 0 0 61.642578 83.742188 z M 19.833984 88.496094 A 2.0002 2.0002 0 0 0 18 90.003906 L 17.224609 92.902344 A 2.0002 2.0002 0 1 0 21.087891 93.9375 L 21.865234 91.039062 A 2.0002 2.0002 0 0 0 20.033203 88.496094 A 2.0002 2.0002 0 0 0 19.833984 88.496094 z M 35.833984 88.496094 A 2.0002 2.0002 0 0 0 34 90.003906 L 33.224609 92.902344 A 2.0002 2.0002 0 1 0 37.087891 93.9375 L 37.865234 91.039062 A 2.0002 2.0002 0 0 0 36.033203 88.496094 A 2.0002 2.0002 0 0 0 35.833984 88.496094 z M 51.833984 88.496094 A 2.0002 2.0002 0 0 0 50 90.003906 L 49.224609 92.902344 A 2.0002 2.0002 0 1 0 53.087891 93.9375 L 53.865234 91.039062 A 2.0002 2.0002 0 0 0 52.033203 88.496094 A 2.0002 2.0002 0 0 0 51.833984 88.496094 z M 26.021484 93.255859 A 2.0002 2.0002 0 0 0 24.1875 94.763672 L 23.412109 97.662109 A 2.0002 2.0002 0 1 0 27.275391 98.697266 L 28.052734 95.798828 A 2.0002 2.0002 0 0 0 26.220703 93.255859 A 2.0002 2.0002 0 0 0 26.021484 93.255859 z M 42.021484 93.255859 A 2.0002 2.0002 0 0 0 40.1875 94.763672 L 39.412109 97.662109 A 2.0002 2.0002 0 1 0 43.275391 98.697266 L 44.052734 95.798828 A 2.0002 2.0002 0 0 0 42.220703 93.255859 A 2.0002 2.0002 0 0 0 42.021484 93.255859 z M 58.021484 93.255859 A 2.0002 2.0002 0 0 0 56.1875 94.763672 L 55.412109 97.662109 A 2.0002 2.0002 0 1 0 59.275391 98.697266 L 60.052734 95.798828 A 2.0002 2.0002 0 0 0 58.220703 93.255859 A 2.0002 2.0002 0 0 0 58.021484 93.255859 z "
     id="path6230" /></svg>