<?xml version="1.0" encoding="UTF-8" standalone="no"?>
<!-- Generator: Adobe Illustrator 16.0.0, SVG Export Plug-In . SVG Version: 6.00 Build 0)  -->

<svg
   xmlns:dc="http://purl.org/dc/elements/1.1/"
   xmlns:cc="http://creativecommons.org/ns#"
   xmlns:rdf="http://www.w3.org/1999/02/22-rdf-syntax-ns#"
   xmlns:svg="http://www.w3.org/2000/svg"
   xmlns="http://www.w3.org/2000/svg"
   xmlns:sodipodi="http://sodipodi.sourceforge.net/DTD/sodipodi-0.dtd"
   xmlns:inkscape="http://www.inkscape.org/namespaces/inkscape"
   version="1.1"
   id="Layer_1"
   x="0px"
   y="0px"
   width="100px"
   height="100px"
   viewBox="0 0 100 100"
   enable-background="new 0 0 100 100"
   xml:space="preserve"
   inkscape:version="0.91 r13725"
   sodipodi:docname="c-st-xxx-rs.svg"><metadata
     id="metadata53"><rdf:RDF><cc:Work
         rdf:about=""><dc:format>image/svg+xml</dc:format><dc:type
           rdf:resource="http://purl.org/dc/dcmitype/StillImage" /></cc:Work></rdf:RDF></metadata><defs
     id="defs51" /><sodipodi:namedview
     pagecolor="#ffffff"
     bordercolor="#666666"
     borderopacity="1"
     objecttolerance="10"
     gridtolerance="10"
     guidetolerance="10"
     inkscape:pageopacity="0"
     inkscape:pageshadow="2"
     inkscape:window-width="1366"
     inkscape:window-height="719"
     id="namedview49"
     showgrid="true"
     inkscape:zoom="7.9999999"
     inkscape:cx="53.037046"
     inkscape:cy="17.326217"
     inkscape:window-x="0"
     inkscape:window-y="25"
     inkscape:window-maximized="1"
     inkscape:current-layer="Layer_1"><inkscape:grid
       type="xygrid"
       id="grid4181" /></sodipodi:namedview><path
     style="color:#000000;font-style:normal;font-variant:normal;font-weight:normal;font-stretch:normal;font-size:medium;line-height:normal;font-family:sans-serif;text-indent:0;text-align:start;text-decoration:none;text-decoration-line:none;text-decoration-style:solid;text-decoration-color:#000000;letter-spacing:normal;word-spacing:normal;text-transform:none;direction:ltr;block-progression:tb;writing-mode:lr-tb;baseline-shift:baseline;text-anchor:start;white-space:normal;clip-rule:nonzero;display:inline;overflow:visible;visibility:visible;opacity:1;isolation:auto;mix-blend-mode:normal;color-interpolation:sRGB;color-interpolation-filters:linearRGB;solid-color:#000000;solid-opacity:1;fill:#0277bd;fill-opacity:1;fill-rule:nonzero;stroke:none;stroke-width:4;stroke-linecap:round;stroke-linejoin:miter;stroke-miterlimit:4;stroke-dasharray:none;stroke-dashoffset:0;stroke-opacity:1;color-rendering:auto;image-rendering:auto;shape-rendering:auto;text-rendering:auto;enable-background:accumulate"
     d="M 30.597656 83.732422 A 2.0002 2.0002 0 0 0 28.763672 85.240234 L 27.988281 88.138672 A 2.0002 2.0002 0 1 0 31.851562 89.173828 L 32.628906 86.275391 A 2.0002 2.0002 0 0 0 30.597656 83.732422 z M 78.597656 83.732422 A 2.0002 2.0002 0 0 0 76.763672 85.240234 L 75.988281 88.138672 A 2.0002 2.0002 0 1 0 79.851562 89.173828 L 80.628906 86.275391 A 2.0002 2.0002 0 0 0 78.597656 83.732422 z M 20.787109 88.486328 A 2.0002 2.0002 0 0 0 18.955078 89.994141 L 18.177734 92.892578 A 2.0002 2.0002 0 1 0 22.041016 93.927734 L 22.818359 91.029297 A 2.0002 2.0002 0 0 0 20.986328 88.486328 A 2.0002 2.0002 0 0 0 20.787109 88.486328 z M 52.787109 88.486328 A 2.0002 2.0002 0 0 0 50.955078 89.994141 L 50.177734 92.892578 A 2.0002 2.0002 0 1 0 54.041016 93.927734 L 54.818359 91.029297 A 2.0002 2.0002 0 0 0 52.986328 88.486328 A 2.0002 2.0002 0 0 0 52.787109 88.486328 z M 42.974609 93.246094 A 2.0002 2.0002 0 0 0 41.142578 94.753906 L 40.365234 97.652344 A 2.0002 2.0002 0 1 0 44.228516 98.6875 L 45.005859 95.789062 A 2.0002 2.0002 0 0 0 42.974609 93.246094 z M 58.974609 93.246094 A 2.0002 2.0002 0 0 0 57.142578 94.753906 L 56.365234 97.652344 A 2.0002 2.0002 0 1 0 60.228516 98.6875 L 61.005859 95.789062 A 2.0002 2.0002 0 0 0 58.974609 93.246094 z "
     id="path5411" /><path
     style="fill:#aaaaaa;fill-opacity:1;stroke:none"
     d="M 78.269531 84.541016 L 77.884766 85.978516 L 76.814453 84.914062 L 76.560547 85.859375 L 77.632812 86.923828 L 77.134766 88.779297 L 75.744141 87.400391 L 76.169922 86.037109 L 75.46875 85.330078 L 75.039062 86.701172 L 74.021484 85.666016 L 73.349609 86.355469 L 74.402344 87.40625 L 72.931641 87.804688 L 73.642578 88.529297 L 75.109375 88.121094 L 76.451172 89.478516 L 74.609375 89.984375 L 73.542969 88.90625 L 72.5625 89.175781 L 73.636719 90.257812 L 72.203125 90.634766 L 72.453125 91.578125 L 73.833984 91.201172 L 73.525391 92.582031 L 74.484375 92.328125 L 74.798828 90.925781 L 76.691406 90.435547 L 76.195312 92.283203 L 74.734375 92.675781 L 74.480469 93.621094 L 75.943359 93.228516 L 75.556641 94.671875 L 76.515625 94.929688 L 76.902344 93.486328 L 77.970703 94.556641 L 78.224609 93.611328 L 77.15625 92.541016 L 77.650391 90.691406 L 79.064453 92.068359 L 78.636719 93.439453 L 79.318359 94.132812 L 79.742188 92.783203 L 80.763672 93.804688 L 81.451172 93.113281 L 80.390625 92.066406 L 81.855469 91.666016 L 81.142578 90.941406 L 79.677734 91.341797 L 78.341797 89.986328 L 80.177734 89.480469 L 81.242188 90.564453 L 82.222656 90.294922 L 81.154297 89.214844 L 82.597656 88.833984 L 82.345703 87.896484 L 80.947266 88.283203 L 81.261719 86.882812 L 80.322266 87.148438 L 80.009766 88.542969 L 78.09375 89.035156 L 78.591797 87.179688 L 80.050781 86.794922 L 80.304688 85.849609 L 78.845703 86.234375 L 79.230469 84.798828 L 78.269531 84.541016 z M 58.710938 84.542969 L 58.710938 86.582031 L 56.914062 85.552734 L 56.914062 86.894531 L 58.710938 87.923828 L 58.710938 90.558594 L 56.378906 89.226562 L 56.460938 87.267578 L 55.279297 86.582031 L 55.197266 88.550781 L 53.482422 87.541016 L 52.835938 88.691406 L 54.601562 89.710938 L 52.794922 90.761719 L 53.996094 91.46875 L 55.792969 90.408203 L 58.054688 91.730469 L 55.792969 93.052734 L 53.996094 92.003906 L 52.794922 92.708984 L 54.601562 93.759766 L 52.835938 94.769531 L 53.501953 95.929688 L 55.197266 94.941406 L 55.279297 96.878906 L 56.460938 96.203125 L 56.378906 94.234375 L 58.710938 92.912109 L 58.710938 95.537109 L 56.914062 96.576172 L 56.914062 97.919922 L 58.710938 96.878906 L 58.710938 98.927734 L 60.074219 98.927734 L 60.074219 96.878906 L 61.871094 97.919922 L 61.871094 96.576172 L 60.074219 95.537109 L 60.074219 92.912109 L 62.435547 94.234375 L 62.355469 96.203125 L 63.505859 96.878906 L 63.587891 94.941406 L 65.302734 95.929688 L 65.970703 94.769531 L 64.193359 93.759766 L 65.990234 92.708984 L 64.789062 92.003906 L 62.992188 93.052734 L 60.740234 91.730469 L 62.992188 90.408203 L 64.789062 91.46875 L 65.990234 90.761719 L 64.193359 89.710938 L 65.970703 88.691406 L 65.302734 87.541016 L 63.587891 88.550781 L 63.505859 86.582031 L 62.355469 87.267578 L 62.435547 89.226562 L 60.074219 90.558594 L 60.074219 87.923828 L 61.871094 86.894531 L 61.871094 85.552734 L 60.074219 86.582031 L 60.074219 84.542969 L 58.710938 84.542969 z M 22.189453 84.611328 L 20.873047 84.964844 L 21.400391 86.933594 L 19.398438 86.404297 L 19.746094 87.701172 L 21.748047 88.230469 L 22.429688 90.775391 L 19.832031 90.091797 L 19.404297 88.179688 L 18.085938 87.822266 L 18.517578 89.744141 L 16.597656 89.212891 L 16.271484 90.492188 L 18.242188 91.019531 L 16.767578 92.501953 L 18.111328 92.873047 L 19.572266 91.384766 L 22.099609 92.076172 L 20.257812 93.939453 L 18.25 93.390625 L 17.271484 94.384766 L 19.289062 94.929688 L 17.84375 96.363281 L 18.789062 97.3125 L 20.169922 95.917969 L 20.75 97.769531 L 21.716797 96.808594 L 21.128906 94.929688 L 23.039062 93.048828 L 23.71875 95.583984 L 22.251953 97.052734 L 22.599609 98.349609 L 24.066406 96.880859 L 24.595703 98.859375 L 25.912109 98.507812 L 25.382812 96.527344 L 27.386719 97.066406 L 27.039062 95.769531 L 25.035156 95.230469 L 24.355469 92.695312 L 26.978516 93.361328 L 27.410156 95.283203 L 28.697266 95.638672 L 28.273438 93.746094 L 30.1875 94.257812 L 30.53125 92.962891 L 28.552734 92.447266 L 30.017578 90.96875 L 28.673828 90.597656 L 27.210938 92.076172 L 24.693359 91.380859 L 26.525391 89.521484 L 28.535156 90.080078 L 29.513672 89.087891 L 27.505859 88.537109 L 28.957031 87.09375 L 28.015625 86.154297 L 26.619141 87.572266 L 26.033203 85.693359 L 25.097656 86.654297 L 25.683594 88.525391 L 23.746094 90.423828 L 23.064453 87.876953 L 24.533203 86.417969 L 24.185547 85.121094 L 22.716797 86.580078 L 22.189453 84.611328 z M 40.703125 84.929688 L 39.945312 86.234375 L 39.201172 84.947266 L 38.341797 85.443359 L 39.083984 86.732422 L 37.574219 86.736328 L 38.064453 87.583984 L 39.574219 87.580078 L 40.533203 89.242188 L 38.576172 89.251953 L 37.914062 87.986328 L 36.917969 87.982422 L 37.583984 89.255859 L 36.132812 89.244141 L 36.144531 90.205078 L 37.630859 90.205078 L 36.873047 91.527344 L 37.888672 91.535156 L 38.636719 90.210938 L 40.546875 90.220703 L 39.601562 91.880859 L 38.083984 91.873047 L 37.582031 92.755859 L 39.107422 92.761719 L 38.359375 94.042969 L 39.203125 94.533203 L 39.912109 93.289062 L 40.669922 94.484375 L 41.169922 93.626953 L 40.400391 92.412109 L 41.390625 90.728516 L 42.347656 92.384766 L 41.591797 93.697266 L 42.082031 94.544922 L 42.837891 93.232422 L 43.583984 94.527344 L 44.445312 94.029297 L 43.697266 92.736328 L 45.210938 92.738281 L 44.722656 91.890625 L 43.208984 91.888672 L 42.251953 90.230469 L 44.224609 90.205078 L 44.892578 91.476562 L 45.865234 91.484375 L 45.208984 90.232422 L 46.654297 90.230469 L 46.650391 89.253906 L 45.162109 89.265625 L 45.914062 87.947266 L 44.896484 87.939453 L 44.144531 89.255859 L 42.242188 89.242188 L 43.181641 87.587891 L 44.701172 87.601562 L 45.203125 86.716797 L 43.685547 86.708984 L 44.435547 85.417969 L 43.595703 84.933594 L 42.880859 86.197266 L 42.111328 84.984375 L 41.634766 85.835938 L 42.400391 87.042969 L 41.394531 88.746094 L 40.433594 87.082031 L 41.193359 85.777344 L 40.703125 84.929688 z "
     id="path5581" /></svg>