<?xml version="1.0" encoding="UTF-8" standalone="no"?>
<!-- Generator: Adobe Illustrator 16.0.0, SVG Export Plug-In . SVG Version: 6.00 Build 0)  -->

<svg
   xmlns:dc="http://purl.org/dc/elements/1.1/"
   xmlns:cc="http://creativecommons.org/ns#"
   xmlns:rdf="http://www.w3.org/1999/02/22-rdf-syntax-ns#"
   xmlns:svg="http://www.w3.org/2000/svg"
   xmlns="http://www.w3.org/2000/svg"
   xmlns:sodipodi="http://sodipodi.sourceforge.net/DTD/sodipodi-0.dtd"
   xmlns:inkscape="http://www.inkscape.org/namespaces/inkscape"
   version="1.1"
   id="Layer_1"
   x="0px"
   y="0px"
   width="100px"
   height="100px"
   viewBox="0 0 100 100"
   enable-background="new 0 0 100 100"
   xml:space="preserve"
   inkscape:version="0.91 r13725"
   sodipodi:docname="c-st-x-s.svg"><metadata
     id="metadata53"><rdf:RDF><cc:Work
         rdf:about=""><dc:format>image/svg+xml</dc:format><dc:type
           rdf:resource="http://purl.org/dc/dcmitype/StillImage" /></cc:Work></rdf:RDF></metadata><defs
     id="defs51" /><sodipodi:namedview
     pagecolor="#ffffff"
     bordercolor="#666666"
     borderopacity="1"
     objecttolerance="10"
     gridtolerance="10"
     guidetolerance="10"
     inkscape:pageopacity="0"
     inkscape:pageshadow="2"
     inkscape:window-width="1366"
     inkscape:window-height="719"
     id="namedview49"
     showgrid="true"
     inkscape:zoom="4"
     inkscape:cx="27.818386"
     inkscape:cy="19.024376"
     inkscape:window-x="0"
     inkscape:window-y="25"
     inkscape:window-maximized="1"
     inkscape:current-layer="Layer_1"><inkscape:grid
       type="xygrid"
       id="grid4181" /></sodipodi:namedview><path
     style="fill:#aaaaaa;fill-opacity:1;stroke:none"
     d="M 26.695312 84.541016 L 26.695312 86.580078 L 24.898438 85.550781 L 24.898438 86.892578 L 26.695312 87.921875 L 26.695312 90.556641 L 24.363281 89.224609 L 24.443359 87.265625 L 23.261719 86.580078 L 23.181641 88.548828 L 21.464844 87.539062 L 20.818359 88.689453 L 22.585938 89.708984 L 20.779297 90.759766 L 21.980469 91.466797 L 23.777344 90.40625 L 26.039062 91.728516 L 23.777344 93.050781 L 21.980469 92 L 20.779297 92.707031 L 22.585938 93.757812 L 20.818359 94.767578 L 21.484375 95.927734 L 23.181641 94.939453 L 23.261719 96.876953 L 24.443359 96.201172 L 24.363281 94.232422 L 26.695312 92.910156 L 26.695312 95.535156 L 24.898438 96.574219 L 24.898438 97.916016 L 26.695312 96.876953 L 26.695312 98.925781 L 28.056641 98.925781 L 28.056641 96.876953 L 29.853516 97.916016 L 29.853516 96.574219 L 28.056641 95.535156 L 28.056641 92.910156 L 30.419922 94.232422 L 30.339844 96.201172 L 31.490234 96.876953 L 31.570312 94.939453 L 33.287109 95.927734 L 33.953125 94.767578 L 32.175781 93.757812 L 33.972656 92.707031 L 32.771484 92 L 30.974609 93.050781 L 28.724609 91.728516 L 30.974609 90.40625 L 32.771484 91.466797 L 33.972656 90.759766 L 32.175781 89.708984 L 33.953125 88.689453 L 33.287109 87.539062 L 31.570312 88.548828 L 31.490234 86.580078 L 30.339844 87.265625 L 30.419922 89.224609 L 28.056641 90.556641 L 28.056641 87.921875 L 29.853516 86.892578 L 29.853516 85.550781 L 28.056641 86.580078 L 28.056641 84.541016 L 26.695312 84.541016 z M 46.253906 86.539062 L 45.869141 87.976562 L 44.796875 86.912109 L 44.544922 87.857422 L 45.615234 88.921875 L 45.117188 90.777344 L 43.726562 89.398438 L 44.154297 88.035156 L 43.451172 87.328125 L 43.023438 88.699219 L 42.005859 87.664062 L 41.333984 88.353516 L 42.384766 89.404297 L 40.914062 89.802734 L 41.626953 90.527344 L 43.091797 90.119141 L 44.435547 91.476562 L 42.59375 91.982422 L 41.525391 90.904297 L 40.546875 91.173828 L 41.621094 92.253906 L 40.185547 92.632812 L 40.4375 93.576172 L 41.818359 93.199219 L 41.507812 94.578125 L 42.46875 94.326172 L 42.783203 92.923828 L 44.673828 92.433594 L 44.179688 94.28125 L 42.716797 94.673828 L 42.464844 95.619141 L 43.925781 95.226562 L 43.539062 96.669922 L 44.498047 96.927734 L 44.884766 95.484375 L 45.955078 96.554688 L 46.207031 95.609375 L 45.138672 94.539062 L 45.634766 92.689453 L 47.048828 94.066406 L 46.619141 95.4375 L 47.302734 96.130859 L 47.724609 94.78125 L 48.746094 95.802734 L 49.435547 95.111328 L 48.375 94.064453 L 49.837891 93.664062 L 49.125 92.939453 L 47.662109 93.339844 L 46.326172 91.984375 L 48.160156 91.478516 L 49.226562 92.5625 L 50.205078 92.292969 L 49.138672 91.212891 L 50.582031 90.830078 L 50.330078 89.894531 L 48.931641 90.28125 L 49.246094 88.880859 L 48.304688 89.146484 L 47.992188 90.541016 L 46.078125 91.033203 L 46.574219 89.177734 L 48.035156 88.792969 L 48.287109 87.847656 L 46.828125 88.232422 L 47.212891 86.796875 L 46.253906 86.539062 z "
     id="path7631" /></svg>