<?xml version="1.0" encoding="UTF-8" standalone="no"?>
<!-- Generator: Adobe Illustrator 16.0.0, SVG Export Plug-In . SVG Version: 6.00 Build 0)  -->

<svg
   xmlns:dc="http://purl.org/dc/elements/1.1/"
   xmlns:cc="http://creativecommons.org/ns#"
   xmlns:rdf="http://www.w3.org/1999/02/22-rdf-syntax-ns#"
   xmlns:svg="http://www.w3.org/2000/svg"
   xmlns="http://www.w3.org/2000/svg"
   xmlns:sodipodi="http://sodipodi.sourceforge.net/DTD/sodipodi-0.dtd"
   xmlns:inkscape="http://www.inkscape.org/namespaces/inkscape"
   version="1.1"
   id="Layer_1"
   x="0px"
   y="0px"
   width="100px"
   height="100px"
   viewBox="0 0 100 100"
   enable-background="new 0 0 100 100"
   xml:space="preserve"
   inkscape:version="0.91 r13725"
   sodipodi:docname="c-st-xxx.svg"><metadata
     id="metadata53"><rdf:RDF><cc:Work
         rdf:about=""><dc:format>image/svg+xml</dc:format><dc:type
           rdf:resource="http://purl.org/dc/dcmitype/StillImage" /></cc:Work></rdf:RDF></metadata><defs
     id="defs51" /><sodipodi:namedview
     pagecolor="#ffffff"
     bordercolor="#666666"
     borderopacity="1"
     objecttolerance="10"
     gridtolerance="10"
     guidetolerance="10"
     inkscape:pageopacity="0"
     inkscape:pageshadow="2"
     inkscape:window-width="1366"
     inkscape:window-height="719"
     id="namedview49"
     showgrid="true"
     inkscape:zoom="2.8284272"
     inkscape:cx="-3.1550121"
     inkscape:cy="19.672804"
     inkscape:window-x="0"
     inkscape:window-y="25"
     inkscape:window-maximized="1"
     inkscape:current-layer="Layer_1"><inkscape:grid
       type="xygrid"
       id="grid4181" /></sodipodi:namedview><path
     sodipodi:nodetypes="csscssccsscc"
     inkscape:connector-curvature="0"
     id="path7389"
     d="m 66.573169,58.75107 c 4.4529,1.5705 7.5361,5.8145 7.5361,10.6569 0,6.23265 -5.0704,11.30395 -11.3031,11.30395 -0.1882,0 -0.3873,-0.013 -0.6065,-0.018 l -37.024,0 c -8.3079,0 -15.0664,-6.7584 -15.0664,-15.06635 0,-3.8008 1.42,-7.4311 3.9992,-10.2208 2.2672,-2.452 5.2497,-4.06549 8.5033,-4.62399 3.099,-9.053503 11.7151,-15.273633 21.3799,-15.273633 12.4567,0 22.5912,10.13513 22.5912,22.592823 0,0.2153 0,0.432 -0.012,0.6488 z"
     style="fill:#dddddd;fill-opacity:1;stroke:#000000;stroke-width:1;stroke-linecap:butt;stroke-linejoin:miter;stroke-miterlimit:4;stroke-dasharray:none;stroke-opacity:1" /><path
     style="fill:#eeeeee;fill-opacity:1;stroke:#000000;stroke-width:1;stroke-linecap:butt;stroke-linejoin:miter;stroke-miterlimit:4;stroke-dasharray:none;stroke-opacity:1"
     d="m 83.957169,66.09097 c 3.3397,1.1779 5.6521,4.3609 5.6521,7.99265 0,4.6746 -3.8027,8.478 -8.4774,8.478 -0.1411,0 -0.2904,-0.01 -0.4548,-0.013 l -27.768,0 c -6.2309,0 -11.2998,-5.0688 -11.2998,-11.29975 0,-2.8505 1.065,-5.5733 2.9994,-7.6655 1.7004,-1.839 3.9372,-3.0492 6.3775,-3.468 2.3242,-6.7902 8.7864,-11.455303 16.0349,-11.455303 9.3426,0 16.9434,7.601403 16.9434,16.944603 0,0.1615 0,0.324 -0.013,0.4867 z"
     id="path7391"
     inkscape:connector-curvature="0"
     sodipodi:nodetypes="csscssccsscc" /></svg>