<?xml version="1.0" encoding="UTF-8" standalone="no"?>
<!-- Generator: Adobe Illustrator 16.0.0, SVG Export Plug-In . SVG Version: 6.00 Build 0)  -->

<svg
   xmlns:dc="http://purl.org/dc/elements/1.1/"
   xmlns:cc="http://creativecommons.org/ns#"
   xmlns:rdf="http://www.w3.org/1999/02/22-rdf-syntax-ns#"
   xmlns:svg="http://www.w3.org/2000/svg"
   xmlns="http://www.w3.org/2000/svg"
   xmlns:sodipodi="http://sodipodi.sourceforge.net/DTD/sodipodi-0.dtd"
   xmlns:inkscape="http://www.inkscape.org/namespaces/inkscape"
   version="1.1"
   id="Layer_1"
   x="0px"
   y="0px"
   width="100px"
   height="100px"
   viewBox="0 0 100 100"
   enable-background="new 0 0 100 100"
   xml:space="preserve"
   inkscape:version="0.91 r13725"
   sodipodi:docname="c-st-xxx-s.svg"><metadata
     id="metadata53"><rdf:RDF><cc:Work
         rdf:about=""><dc:format>image/svg+xml</dc:format><dc:type
           rdf:resource="http://purl.org/dc/dcmitype/StillImage" /></cc:Work></rdf:RDF></metadata><defs
     id="defs51" /><sodipodi:namedview
     pagecolor="#ffffff"
     bordercolor="#666666"
     borderopacity="1"
     objecttolerance="10"
     gridtolerance="10"
     guidetolerance="10"
     inkscape:pageopacity="0"
     inkscape:pageshadow="2"
     inkscape:window-width="1366"
     inkscape:window-height="719"
     id="namedview49"
     showgrid="true"
     inkscape:zoom="4"
     inkscape:cx="3.189083"
     inkscape:cy="18.822678"
     inkscape:window-x="0"
     inkscape:window-y="25"
     inkscape:window-maximized="1"
     inkscape:current-layer="Layer_1"><inkscape:grid
       type="xygrid"
       id="grid4181" /></sodipodi:namedview><path
     style="fill:#aaaaaa;fill-opacity:1;stroke:none"
     d="M 58.708984 84.542969 L 58.708984 86.582031 L 56.912109 85.552734 L 56.912109 86.896484 L 58.708984 87.925781 L 58.708984 90.560547 L 56.376953 89.228516 L 56.458984 87.269531 L 55.277344 86.582031 L 55.197266 88.550781 L 53.480469 87.541016 L 52.833984 88.693359 L 54.601562 89.712891 L 52.792969 90.761719 L 53.996094 91.46875 L 55.792969 90.408203 L 58.052734 91.732422 L 55.792969 93.054688 L 53.996094 92.003906 L 52.792969 92.710938 L 54.601562 93.759766 L 52.833984 94.769531 L 53.5 95.931641 L 55.197266 94.941406 L 55.277344 96.880859 L 56.458984 96.203125 L 56.376953 94.234375 L 58.708984 92.912109 L 58.708984 95.537109 L 56.912109 96.578125 L 56.912109 97.919922 L 58.708984 96.880859 L 58.708984 98.929688 L 60.072266 98.929688 L 60.072266 96.880859 L 61.869141 97.919922 L 61.869141 96.578125 L 60.072266 95.537109 L 60.072266 92.912109 L 62.435547 94.234375 L 62.353516 96.203125 L 63.505859 96.880859 L 63.585938 94.941406 L 65.302734 95.931641 L 65.96875 94.769531 L 64.191406 93.759766 L 65.988281 92.710938 L 64.787109 92.003906 L 62.990234 93.054688 L 60.738281 91.732422 L 62.990234 90.408203 L 64.787109 91.46875 L 65.988281 90.761719 L 64.191406 89.712891 L 65.96875 88.693359 L 65.302734 87.541016 L 63.585938 88.550781 L 63.505859 86.582031 L 62.353516 87.269531 L 62.435547 89.228516 L 60.072266 90.560547 L 60.072266 87.925781 L 61.869141 86.896484 L 61.869141 85.552734 L 60.072266 86.582031 L 60.072266 84.542969 L 58.708984 84.542969 z M 78.267578 84.542969 L 77.882812 85.978516 L 76.8125 84.914062 L 76.558594 85.859375 L 77.630859 86.923828 L 77.132812 88.779297 L 75.742188 87.400391 L 76.169922 86.037109 L 75.466797 85.332031 L 75.039062 86.701172 L 74.019531 85.667969 L 73.347656 86.355469 L 74.400391 87.408203 L 72.929688 87.804688 L 73.642578 88.529297 L 75.107422 88.123047 L 76.451172 89.480469 L 74.607422 89.984375 L 73.541016 88.90625 L 72.5625 89.177734 L 73.636719 90.257812 L 72.201172 90.634766 L 72.451172 91.578125 L 73.832031 91.201172 L 73.523438 92.582031 L 74.482422 92.328125 L 74.796875 90.927734 L 76.689453 90.435547 L 76.193359 92.285156 L 74.732422 92.677734 L 74.478516 93.623047 L 75.941406 93.230469 L 75.554688 94.671875 L 76.513672 94.929688 L 76.900391 93.486328 L 77.970703 94.558594 L 78.222656 93.613281 L 77.154297 92.541016 L 77.648438 90.693359 L 79.0625 92.070312 L 78.634766 93.441406 L 79.318359 94.134766 L 79.740234 92.785156 L 80.761719 93.804688 L 81.451172 93.113281 L 80.388672 92.068359 L 81.853516 91.667969 L 81.140625 90.943359 L 79.677734 91.34375 L 78.341797 89.986328 L 80.175781 89.480469 L 81.242188 90.566406 L 82.220703 90.294922 L 81.154297 89.216797 L 82.597656 88.833984 L 82.345703 87.898438 L 80.945312 88.285156 L 81.259766 86.882812 L 80.320312 87.150391 L 80.007812 88.544922 L 78.09375 89.037109 L 78.589844 87.181641 L 80.048828 86.794922 L 80.302734 85.849609 L 78.84375 86.236328 L 79.228516 84.800781 L 78.267578 84.542969 z M 22.1875 84.611328 L 20.871094 84.964844 L 21.398438 86.935547 L 19.396484 86.404297 L 19.744141 87.701172 L 21.746094 88.232422 L 22.427734 90.777344 L 19.832031 90.09375 L 19.402344 88.179688 L 18.083984 87.822266 L 18.515625 89.746094 L 16.595703 89.214844 L 16.269531 90.494141 L 18.240234 91.021484 L 16.765625 92.503906 L 18.109375 92.875 L 19.570312 91.384766 L 22.097656 92.078125 L 20.255859 93.941406 L 18.248047 93.390625 L 17.271484 94.384766 L 19.287109 94.931641 L 17.84375 96.363281 L 18.787109 97.3125 L 20.169922 95.917969 L 20.748047 97.769531 L 21.714844 96.810547 L 21.126953 94.929688 L 23.037109 93.048828 L 23.716797 95.583984 L 22.25 97.054688 L 22.597656 98.351562 L 24.064453 96.880859 L 24.59375 98.861328 L 25.910156 98.507812 L 25.380859 96.529297 L 27.384766 97.068359 L 27.037109 95.771484 L 25.033203 95.232422 L 24.353516 92.695312 L 26.978516 93.361328 L 27.410156 95.285156 L 28.695312 95.640625 L 28.273438 93.746094 L 30.185547 94.257812 L 30.529297 92.964844 L 28.552734 92.449219 L 30.015625 90.970703 L 28.671875 90.597656 L 27.208984 92.078125 L 24.691406 91.382812 L 26.523438 89.523438 L 28.533203 90.082031 L 29.511719 89.087891 L 27.503906 88.539062 L 28.957031 87.09375 L 28.015625 86.154297 L 26.619141 87.574219 L 26.03125 85.693359 L 25.097656 86.654297 L 25.681641 88.525391 L 23.744141 90.423828 L 23.0625 87.878906 L 24.533203 86.419922 L 24.185547 85.123047 L 22.714844 86.582031 L 22.1875 84.611328 z M 40.703125 84.931641 L 39.943359 86.236328 L 39.199219 84.949219 L 38.339844 85.445312 L 39.082031 86.732422 L 37.572266 86.738281 L 38.0625 87.585938 L 39.572266 87.580078 L 40.533203 89.244141 L 38.574219 89.251953 L 37.912109 87.986328 L 36.916016 87.984375 L 37.582031 89.255859 L 36.130859 89.244141 L 36.142578 90.207031 L 37.628906 90.205078 L 36.871094 91.527344 L 37.886719 91.535156 L 38.634766 90.210938 L 40.544922 90.222656 L 39.599609 91.880859 L 38.082031 91.873047 L 37.582031 92.757812 L 39.105469 92.761719 L 38.357422 94.042969 L 39.201172 94.533203 L 39.912109 93.291016 L 40.669922 94.484375 L 41.167969 93.626953 L 40.400391 92.414062 L 41.390625 90.728516 L 42.345703 92.386719 L 41.591797 93.697266 L 42.080078 94.544922 L 42.835938 93.234375 L 43.583984 94.527344 L 44.443359 94.03125 L 43.697266 92.736328 L 45.210938 92.738281 L 44.720703 91.890625 L 43.207031 91.888672 L 42.25 90.232422 L 44.224609 90.205078 L 44.890625 91.478516 L 45.863281 91.486328 L 45.207031 90.232422 L 46.652344 90.232422 L 46.650391 89.255859 L 45.160156 89.265625 L 45.912109 87.949219 L 44.896484 87.939453 L 44.144531 89.257812 L 42.240234 89.244141 L 43.179688 87.587891 L 44.701172 87.601562 L 45.201172 86.71875 L 43.683594 86.710938 L 44.433594 85.417969 L 43.59375 84.935547 L 42.878906 86.197266 L 42.109375 84.984375 L 41.634766 85.837891 L 42.398438 87.044922 L 41.392578 88.746094 L 40.431641 87.083984 L 41.191406 85.779297 L 40.703125 84.931641 z "
     id="path7583" /></svg>