<?xml version="1.0" encoding="UTF-8" standalone="no"?>
<!-- Generator: Adobe Illustrator 16.0.0, SVG Export Plug-In . SVG Version: 6.00 Build 0)  -->

<svg
   xmlns:dc="http://purl.org/dc/elements/1.1/"
   xmlns:cc="http://creativecommons.org/ns#"
   xmlns:rdf="http://www.w3.org/1999/02/22-rdf-syntax-ns#"
   xmlns:svg="http://www.w3.org/2000/svg"
   xmlns="http://www.w3.org/2000/svg"
   xmlns:sodipodi="http://sodipodi.sourceforge.net/DTD/sodipodi-0.dtd"
   xmlns:inkscape="http://www.inkscape.org/namespaces/inkscape"
   version="1.1"
   id="Layer_1"
   x="0px"
   y="0px"
   width="100px"
   height="100px"
   viewBox="0 0 100 100"
   enable-background="new 0 0 100 100"
   xml:space="preserve"
   inkscape:version="0.48.4 r9939"
   sodipodi:docname="i-stars.svg"><metadata
     id="metadata53"><rdf:RDF><cc:Work
         rdf:about=""><dc:format>image/svg+xml</dc:format><dc:type
           rdf:resource="http://purl.org/dc/dcmitype/StillImage" /></cc:Work></rdf:RDF></metadata><defs
     id="defs51" /><sodipodi:namedview
     pagecolor="#ffffff"
     bordercolor="#666666"
     borderopacity="1"
     objecttolerance="10"
     gridtolerance="10"
     guidetolerance="10"
     inkscape:pageopacity="0"
     inkscape:pageshadow="2"
     inkscape:window-width="640"
     inkscape:window-height="480"
     id="namedview49"
     showgrid="true"
     inkscape:zoom="2.8284271"
     inkscape:cx="61.606455"
     inkscape:cy="57.881368"
     inkscape:window-x="0"
     inkscape:window-y="25"
     inkscape:window-maximized="0"
     inkscape:current-layer="Layer_1"><inkscape:grid
       type="xygrid"
       id="grid3030" /></sodipodi:namedview><g
     transform="translate(-1390.3433,-52.300496)"
     style="fill:#ffff00;fill-opacity:1;stroke:#777777;stroke-width:0.5;stroke-linejoin:round;stroke-miterlimit:4;stroke-opacity:1;stroke-dasharray:none"
     id="g13320"><path
       sodipodi:nodetypes="ccccc"
       inkscape:connector-curvature="0"
       id="path13322"
       d="m 1410.1572,99.596883 c -0.3192,3.361047 -2.0698,5.462267 -5.8117,5.811617 3.4464,0.42795 5.5149,2.23421 5.8117,5.81159 0.3496,-3.66942 2.4508,-5.4277 5.8115,-5.81159 -3.4612,-0.3438 -5.3637,-2.31736 -5.8115,-5.811617 z"
       style="fill:#ffff00;fill-opacity:1;stroke:#777777;stroke-width:0.5;stroke-linejoin:round;stroke-miterlimit:4;stroke-opacity:1;stroke-dasharray:none" /><path
       sodipodi:nodetypes="ccccc"
       inkscape:connector-curvature="0"
       id="path13324"
       d="m 1467.4912,85.26957 c -0.4866,5.122788 -3.155,8.325339 -8.8578,8.857783 5.2526,0.652267 8.4051,3.405292 8.8578,8.857807 0.5324,-5.592776 3.7349,-8.272673 8.8578,-8.857807 -5.2757,-0.523996 -8.1755,-3.53199 -8.8578,-8.857783 z"
       style="fill:#ffff00;fill-opacity:1;stroke:#777777;stroke-width:0.5;stroke-linejoin:round;stroke-miterlimit:4;stroke-opacity:1;stroke-dasharray:none" /><path
       sodipodi:nodetypes="ccccc"
       inkscape:connector-curvature="0"
       id="path13326"
       d="m 1430.3222,53.622058 c -0.7122,7.50024 -4.6191,12.189133 -12.9685,12.968681 7.6907,0.954998 12.3058,4.985695 12.9685,12.968714 0.7797,-8.188345 5.4685,-12.112023 12.9689,-12.968714 -7.7241,-0.767173 -11.9695,-5.171144 -12.9689,-12.968681 z"
       style="fill:#ffff00;fill-opacity:1;stroke:#777777;stroke-width:0.5;stroke-linejoin:round;stroke-miterlimit:4;stroke-opacity:1;stroke-dasharray:none" /><path
       sodipodi:nodetypes="ccccc"
       inkscape:connector-curvature="0"
       id="path13328"
       d="m 1439.986,113.27895 c -0.4866,5.12279 -3.1551,8.32537 -8.8578,8.8578 5.2527,0.65228 8.4052,3.40529 8.8578,8.85781 0.5326,-5.59277 3.7349,-8.27267 8.8578,-8.85781 -5.2756,-0.52397 -8.1755,-3.53198 -8.8578,-8.8578 z"
       style="fill:#ffff00;fill-opacity:1;stroke:#777777;stroke-width:0.5;stroke-linejoin:round;stroke-miterlimit:4;stroke-opacity:1;stroke-dasharray:none" /></g></svg>