<?xml version="1.0" encoding="UTF-8" standalone="no"?>
<!-- Generator: Adobe Illustrator 16.0.0, SVG Export Plug-In . SVG Version: 6.00 Build 0)  -->

<svg
   xmlns:dc="http://purl.org/dc/elements/1.1/"
   xmlns:cc="http://creativecommons.org/ns#"
   xmlns:rdf="http://www.w3.org/1999/02/22-rdf-syntax-ns#"
   xmlns:svg="http://www.w3.org/2000/svg"
   xmlns="http://www.w3.org/2000/svg"
   xmlns:sodipodi="http://sodipodi.sourceforge.net/DTD/sodipodi-0.dtd"
   xmlns:inkscape="http://www.inkscape.org/namespaces/inkscape"
   version="1.1"
   id="Layer_1"
   x="0px"
   y="0px"
   width="100px"
   height="100px"
   viewBox="0 0 100 100"
   enable-background="new 0 0 100 100"
   xml:space="preserve"
   inkscape:version="0.91 r13725"
   sodipodi:docname="sun-big.svg"><metadata
     id="metadata53"><rdf:RDF><cc:Work
         rdf:about=""><dc:format>image/svg+xml</dc:format><dc:type
           rdf:resource="http://purl.org/dc/dcmitype/StillImage" /></cc:Work></rdf:RDF></metadata><defs
     id="defs51" /><sodipodi:namedview
     pagecolor="#ffffff"
     bordercolor="#666666"
     borderopacity="1"
     objecttolerance="10"
     gridtolerance="10"
     guidetolerance="10"
     inkscape:pageopacity="0"
     inkscape:pageshadow="2"
     inkscape:window-width="1366"
     inkscape:window-height="719"
     id="namedview49"
     showgrid="true"
     inkscape:zoom="4.72"
     inkscape:cx="50.472996"
     inkscape:cy="74.285847"
     inkscape:window-x="0"
     inkscape:window-y="25"
     inkscape:window-maximized="1"
     inkscape:current-layer="Layer_1"><inkscape:grid
       type="xygrid"
       id="grid4181" /></sodipodi:namedview><g
     id="g4140"><path
       sodipodi:open="true"
       sodipodi:end="0.010873193"
       sodipodi:start="0.01915258"
       d="M 74.995415,40.785109 A 25,25 0 0 1 49.572952,65.302676 25,25 0 0 1 25.002817,39.931016 25,25 0 0 1 50.323567,15.308418 25,25 0 0 1 74.998522,40.578148"
       sodipodi:ry="25"
       sodipodi:rx="25"
       sodipodi:cy="40.306324"
       sodipodi:cx="50"
       id="path6899"
       style="fill:#ffa111;fill-opacity:1;fill-rule:nonzero;stroke:none"
       sodipodi:type="arc" /><path
       inkscape:connector-curvature="0"
       id="path6901"
       d="M 50.472656,3.8085938 C 30.392516,3.5486812 13.805381,19.678253 13.503906,39.757812 13.202431,59.837372 29.298061,76.457746 49.376953,76.800781 69.455846,77.143817 86.109545,61.083999 86.494141,41.005859 a 4.0004,4.0004 0 0 0 -0.002,-0.123047 4.0004,4.0004 0 0 0 0.0059,-0.179687 C 86.716396,20.62249 70.552797,4.0685063 50.472656,3.8085938 Z m -0.103515,8.0000002 c 15.762835,0.20403 28.300309,13.043416 28.128906,28.80664 a 4.0004,4.0004 0 0 0 0.002,0.08984 4.0004,4.0004 0 0 0 -0.0059,0.146484 C 78.192235,56.612828 65.275528,69.072016 49.513672,68.802734 33.751816,68.533453 21.26725,55.641286 21.503906,39.878906 21.740563,24.116526 34.606305,11.604563 50.369141,11.808594 Z"
       style="color:#000000;font-style:normal;font-variant:normal;font-weight:normal;font-stretch:normal;font-size:medium;line-height:normal;font-family:sans-serif;text-indent:0;text-align:start;text-decoration:none;text-decoration-line:none;text-decoration-style:solid;text-decoration-color:#000000;letter-spacing:normal;word-spacing:normal;text-transform:none;direction:ltr;block-progression:tb;writing-mode:lr-tb;baseline-shift:baseline;text-anchor:start;white-space:normal;clip-rule:nonzero;display:inline;overflow:visible;visibility:visible;opacity:1;isolation:auto;mix-blend-mode:normal;color-interpolation:sRGB;color-interpolation-filters:linearRGB;solid-color:#000000;solid-opacity:1;fill:#ffc111;fill-opacity:1;fill-rule:nonzero;stroke:none;stroke-width:8;stroke-linecap:round;stroke-linejoin:miter;stroke-miterlimit:4;stroke-dasharray:none;stroke-dashoffset:0;stroke-opacity:1;color-rendering:auto;image-rendering:auto;shape-rendering:auto;text-rendering:auto;enable-background:accumulate" /></g></svg>