<?xml version="1.0" encoding="UTF-8" standalone="no"?>
<!-- Generator: Adobe Illustrator 16.0.0, SVG Export Plug-In . SVG Version: 6.00 Build 0)  -->

<svg
   xmlns:dc="http://purl.org/dc/elements/1.1/"
   xmlns:cc="http://creativecommons.org/ns#"
   xmlns:rdf="http://www.w3.org/1999/02/22-rdf-syntax-ns#"
   xmlns:svg="http://www.w3.org/2000/svg"
   xmlns="http://www.w3.org/2000/svg"
   xmlns:sodipodi="http://sodipodi.sourceforge.net/DTD/sodipodi-0.dtd"
   xmlns:inkscape="http://www.inkscape.org/namespaces/inkscape"
   version="1.1"
   id="Layer_1"
   x="0px"
   y="0px"
   width="100px"
   height="100px"
   viewBox="0 0 100 100"
   enable-background="new 0 0 100 100"
   xml:space="preserve"
   inkscape:version="0.91 r13725"
   sodipodi:docname="sun-small.svg"><metadata
     id="metadata53"><rdf:RDF><cc:Work
         rdf:about=""><dc:format>image/svg+xml</dc:format><dc:type
           rdf:resource="http://purl.org/dc/dcmitype/StillImage" /></cc:Work></rdf:RDF></metadata><defs
     id="defs51" /><sodipodi:namedview
     pagecolor="#ffffff"
     bordercolor="#666666"
     borderopacity="1"
     objecttolerance="10"
     gridtolerance="10"
     guidetolerance="10"
     inkscape:pageopacity="0"
     inkscape:pageshadow="2"
     inkscape:window-width="1366"
     inkscape:window-height="719"
     id="namedview49"
     showgrid="true"
     inkscape:zoom="2"
     inkscape:cx="89.81796"
     inkscape:cy="35.01397"
     inkscape:window-x="0"
     inkscape:window-y="25"
     inkscape:window-maximized="1"
     inkscape:current-layer="Layer_1"><inkscape:grid
       type="xygrid"
       id="grid3030" /></sodipodi:namedview><g
     id="g4140"><path
       sodipodi:open="true"
       sodipodi:end="0.010873193"
       sodipodi:start="0.01915258"
       d="M 68.744242,40.366905 A 18.75,18.75 0 0 1 49.677395,58.755081 18.75,18.75 0 0 1 31.249794,39.726335 18.75,18.75 0 0 1 50.240356,21.259387 18.75,18.75 0 0 1 68.746572,40.211685"
       sodipodi:ry="18.75"
       sodipodi:rx="18.75"
       sodipodi:cy="40.007816"
       sodipodi:cx="49.997681"
       id="path8183"
       style="fill:#ffa111;fill-opacity:1;fill-rule:nonzero;stroke:none"
       sodipodi:type="arc" /><path
       inkscape:connector-curvature="0"
       id="path8185"
       d="M 50.351562,12.634766 C 35.291457,12.439831 22.851106,24.537987 22.625,39.597656 22.398894,54.657326 34.470127,67.121629 49.529297,67.378906 64.588466,67.636183 77.078741,55.589855 77.367188,40.53125 a 3.0003,3.0003 0 0 0 0,-0.05859 3.0003,3.0003 0 0 0 0.0039,-0.167968 C 77.534856,25.244211 65.411668,12.8297 50.351562,12.634766 Z m -0.07812,6 c 11.822126,0.153022 21.226208,9.78305 21.097656,21.605468 a 3.0003,3.0003 0 0 0 0.002,0.07422 3.0003,3.0003 0 0 0 -0.0039,0.103516 C 71.142711,52.238918 61.454205,61.580868 49.632812,61.378906 37.81142,61.176945 28.447508,51.509285 28.625,39.6875 28.802492,27.865715 38.451311,18.481743 50.273438,18.634766 Z"
       style="color:#000000;font-style:normal;font-variant:normal;font-weight:normal;font-stretch:normal;font-size:medium;line-height:normal;font-family:sans-serif;text-indent:0;text-align:start;text-decoration:none;text-decoration-line:none;text-decoration-style:solid;text-decoration-color:#000000;letter-spacing:normal;word-spacing:normal;text-transform:none;direction:ltr;block-progression:tb;writing-mode:lr-tb;baseline-shift:baseline;text-anchor:start;white-space:normal;clip-rule:nonzero;display:inline;overflow:visible;visibility:visible;opacity:1;isolation:auto;mix-blend-mode:normal;color-interpolation:sRGB;color-interpolation-filters:linearRGB;solid-color:#000000;solid-opacity:1;fill:#ffc111;fill-opacity:1;fill-rule:nonzero;stroke:none;stroke-width:6;stroke-linecap:round;stroke-linejoin:miter;stroke-miterlimit:4;stroke-dasharray:none;stroke-dashoffset:0;stroke-opacity:1;color-rendering:auto;image-rendering:auto;shape-rendering:auto;text-rendering:auto;enable-background:accumulate" /></g></svg>